<svg xmlns="http://www.w3.org/2000/svg" viewBox="0 0 1317.9 768.1" enable-background="new 0 0 1317.9 768.1"><style type="text/css">.st0{fill:none;} .st1{fill:#FFFFFF;} .st2{fill:#B9BBBD;} .st3{fill:#909295;} .st4{fill:#838587;} .st5{fill:#77787B;} .st6{fill:#E6E7E8;} .st7{fill:#563017;} .st8{fill:#865833;} .st9{fill:#9B6E4A;} .st10{fill:#773D20;} .st11{fill:#92FFF9;} .st12{fill:#4F4F4F;} .st13{fill:#C1C1C1;} .st14{fill:#424242;} .st15{fill:#5076AD;} .st16{fill:#7F7F7F;} .st17{fill:#EDEDED;} .st18{fill:#5B5B5B;} .st19{fill:#8AB1BA;} .st20{fill:#475759;} .st21{fill:#2D3138;} .st22{fill:#F3F3F3;} .st23{fill:#C0E0FF;} .st24{fill:#589842;} .st25{fill:#156B36;} .st26{fill-rule:evenodd;clip-rule:evenodd;fill:#8B8C8B;} .st27{fill-rule:evenodd;clip-rule:evenodd;fill:url(#XMLID_3_);} .st28{fill-rule:evenodd;clip-rule:evenodd;fill:url(#XMLID_7_);} .st29{fill-rule:evenodd;clip-rule:evenodd;fill:url(#XMLID_8_);} .st30{fill-rule:evenodd;clip-rule:evenodd;fill:#FFFFFF;} .st31{fill-rule:evenodd;clip-rule:evenodd;fill:url(#XMLID_9_);} .st32{fill:#1E120D;} .st33{fill:#1A1A1A;} .st34{fill:#5B606B;} .st35{fill:#4D525B;} .st36{fill:#323948;} .st37{fill:#F04925;} .st38{fill:#CE2C11;} .st39{fill:#231F20;} .st40{fill:#F7B029;} .st41{fill:#F08E30;} .st42{fill:#6E757F;} .st43{fill-rule:evenodd;clip-rule:evenodd;fill:#666866;} .st44{opacity:0.14;fill:#221F1F;} .st45{fill-rule:evenodd;clip-rule:evenodd;fill:url(#XMLID_17_);} .st46{fill:url(#XMLID_18_);} .st47{fill:url(#XMLID_30_);} .st48{fill:url(#XMLID_33_);} .st49{fill:url(#XMLID_34_);} .st50{fill:url(#XMLID_41_);} .st51{fill:#F6F7F7;} .st52{fill:#FFD900;} .st53{fill:#F1F2F2;} .st54{fill:#704C06;} .st55{fill:#744C29;} .st56{fill:#2CE288;} .st57{fill:#31C77F;} .st58{fill:#975324;} .st59{fill:#AF6728;} .st60{fill:#CD802E;} .st61{fill:#58463A;} .st62{fill:#5E4638;} .st63{fill-rule:evenodd;clip-rule:evenodd;fill:#DDA64F;} .st64{fill:#DDA64F;} .st65{fill:#AE855D;} .st66{fill:#BBBBBB;stroke:#000000;stroke-width:0.25;stroke-miterlimit:10;} .st67{fill:none;stroke:#000000;stroke-width:0.25;stroke-miterlimit:10;} .st68{fill:#717272;} .st69{fill:none;stroke:#717272;stroke-miterlimit:10;} .st70{fill:#FF0000;} .st71{fill:#8F5237;} .st72{fill:#BA874A;} .st73{opacity:0.6;fill:#D9B387;} .st74{fill-rule:evenodd;clip-rule:evenodd;} .st75{fill:url(#XMLID_43_);} .st76{opacity:0.39;fill:url(#SVGID_1_);} .st77{fill:none;stroke:#FFFFFF;stroke-miterlimit:10;} .st78{fill:#F1F1F2;stroke:#FFFFFF;stroke-miterlimit:10;} .st79{display:none;}</style><pattern id="cirkels3" width="2" height="8" x="-2355.5" y="-3359.9" patternUnits="userSpaceOnUse" viewBox="0.1 -8.1 2 8" overflow="visible"><path d="M.1-8.1h2v8h-2z" class="st0"/><path d="M1.2-.1c0 .1-.1.1 0 0C1 0 1 0 1-.1s0-.1.2 0c-.1-.1 0 0 0 0zM2.2-2.1c0 .1-.1.1 0 0C2-2 2-2 2-2.1c0 0 0-.1.2 0-.1-.1 0 0 0 0zM.2-2.1c0 .1-.1.1 0 0C0-2 0-2 0-2.1c0 0 0-.1.2 0-.1-.1 0 0 0 0zM1.2-4.1c0 .1-.1.1 0 0C1-4 1-4 1-4.1c0 0 0-.1.2 0-.1-.1 0 0 0 0zM2.2-6.1c0 .1-.1.1 0 0C2-6 2-6 2-6.1c0 0 0-.1.2 0-.1-.1 0 0 0 0zM.2-6.1c0 .1-.1.1 0 0C0-6 0-6 0-6.1c0 0 0-.1.2 0-.1-.1 0 0 0 0zM1.2-8.1c0 .1-.1.1 0 0C1-8 1-8 1-8.1c0 0 0-.1.2 0-.1-.1 0 0 0 0z" class="st1"/></pattern><g id="Capa_1"><path d="M1146.7 387.5l4.8-9.1c.1-.2.2-.5.3-.7-1-.5-1.8-1.3-2.4-2.3-.7-1.3-.9-2.7-.6-4.1-.5-.2-.9-.3-1.4-.3l-10.3-.6c-5.9-.3-11.8 1.3-16.7 4.8l-101.5 71.1c-2.3 1.6-.3 5.1 2.2 3.9l113.1-50.8c5.3-2.5 9.8-6.7 12.5-11.9z" class="st2"/><path d="M1153.2 559.5c7.1-3.3 14-7 20.7-10.9l-.5-151.5v-3.2l-.1-14.5v-1.5l-11.1-.3-.2 3.2v.2l-.1 1.5v.4l-.5 9.7-8.2 166.9z" class="st3"/><path d="M1161.4 392.6c2-.9 3.8-2.2 5.2-4l1 1.7c1.5 2.6 3.5 4.9 5.8 6.7l-.1-19.2-11.1-.3-.8 15.1z" class="st4"/><path d="M1162 381.1l19.9-3c3.9-.6 6.8-3.9 6.9-7.9.1-4-2.7-7.4-6.5-8.2l-19.7-3.9-.6 23z" class="st5"/><path d="M1154.3 382.8l4.3.1c7.2.2 13.1-5.5 13.3-12.7.2-7.2-5.5-13.1-12.7-13.3l-4.3-.1-.6 26z" class="st3"/><path d="M1152.4 350l5.1 8.4c1-.7 2.3-1.1 3.6-1 1.9 0 3.5.9 4.7 2.2.2-.2.3-.4.5-.6l5.8-8.5c3.3-4.9 4.9-10.8 4.5-16.8l-8.9-123.6c-.2-2.8-4.2-2.8-4.5-.1l-14.5 123c-.7 5.9.6 11.9 3.7 17zM1163.5 380.1l4.2 7.1c3.1 5.1 7.7 9 13.3 11.2l115.8 44.3c2.6 1 4.4-2.6 2-4.1l-105.4-65.2c-5.1-3.1-11-4.5-16.9-3.8l-8.9 1c.7 1 1 2.2 1 3.5-.2 3-2.3 5.5-5.1 6z" class="st2"/><path d="M1141.5 369.5c-.2 7.2 5.6 13.2 12.8 13.4 7.2.2 7.7-5.7 7.9-12.9.2-7.2-.1-13.1-7.3-13.2-7.3-.3-13.2 5.5-13.4 12.7z" class="st6"/><path d="M1041.1 276.9l6.8-12.9c.2-.3.3-.7.4-1-1.4-.7-2.6-1.8-3.5-3.3-1-1.8-1.3-3.9-.9-5.8-.6-.2-1.3-.4-2.1-.4l-14.6-.8c-8.4-.5-16.8 1.9-23.7 6.8l-144.4 101c-3.2 2.3-.4 7.2 3.2 5.6l160.8-72.2c7.7-3.5 14.1-9.5 18-17z" class="st2"/><path d="M1047.5 580.6c1.3.1 2.6.1 3.8.1 9.7.2 19.3-.2 28.7-1.1l-.5-145v-10.7l-.1-20.1-.4-113.1v-4.5l-.1-20.7v-2.1l-15.8-.4-.2 3.4-.2 4.1-.7 13.8-6.3 128.3-.4 8.1-.3 4.6-.5 9.8-7 145.5z" class="st3"/><path d="M1062 284.3c2.9-1.2 5.4-3.2 7.3-5.7l1.4 2.4c2.2 3.7 5 6.9 8.2 9.6l-.1-27.3-15.8-.4-1 21.4z" class="st4"/><path d="M1062.9 267.8l28.3-4.3c5.6-.8 9.7-5.6 9.8-11.2.1-5.6-3.8-10.5-9.3-11.6l-28.1-5.6-.7 32.7z" class="st5"/><path d="M1051.8 270.4l6.1.1c10.2.2 18.7-7.9 18.9-18.1.2-10.2-7.9-18.7-18.1-18.9l-6.1-.1-.8 37z" class="st3"/><path d="M1049.2 223.6l7.3 11.9c1.5-1 3.2-1.5 5.1-1.5 2.7.1 5 1.3 6.6 3.2.3-.3.5-.6.7-.9l8.2-12.1c4.7-7 7-15.4 6.4-23.9l-12.6-175.8c-.3-3.9-6-4.1-6.4-.1l-20.6 175.1c-1 8.4.9 16.9 5.3 24.1zM1064.9 266.5l6 10c4.3 7.3 11 12.9 18.9 15.9l164.6 63c3.7 1.4 6.2-3.7 2.9-5.8l-149.9-92.7c-7.2-4.4-15.7-6.4-24.1-5.4l-12.7 1.4c.9 1.4 1.4 3.2 1.4 5-.1 4.3-3.1 7.8-7.1 8.6z" class="st2"/><path d="M1033.7 251.4c-.2 10.3 7.9 18.8 18.2 19 10.3.2 11-8.1 11.2-18.3s-.1-18.6-10.4-18.8-18.8 7.8-19 18.1z" class="st6"/><g id="XMLID_529_"><g id="XMLID_533_"><path id="XMLID_568_" d="M839.3 399.5l114 1.2-50.1-44.9-6.3-5.7z" class="st7"/><path id="XMLID_567_" d="M854.4 394.6v1.9l98.9 1.1-50.1-42.2-42.3 34z" class="st8"/><g id="XMLID_564_"><path id="XMLID_566_" d="M1099.38 516.74l-159.8-1.8 1.42-124.6 159.8 1.8z" class="st9"/><path id="XMLID_565_" d="M854.4 394.6L853.1 514l88.7 1 1.4-124.6-82.3-1z" class="st8"/></g><path id="XMLID_563_" d="M1121.4 399.5l-.1 3.1-172.2-1.9-54.5-48.8 2.3-1.8z" class="st7"/><path id="XMLID_562_" d="M1064.9 352l56.5 47.5-170.3-1.9-54.2-47.5z" class="st7"/><g id="XMLID_559_"><path id="XMLID_561_" d="M857.4 528.5l165.8 21.4 1.1-6.1-165.9-21.4z" class="st7"/><path id="XMLID_560_" d="M1024.4 530.4L858.1 548l-.9-6.1 166.3-17.6z" class="st7"/></g><path id="XMLID_558_" d="M1029.3 553.75l-12.2-.14.4-35.1 12.2.15z" class="st7"/><path id="XMLID_557_" d="M863.25 551.86l-12.2-.14.37-32.7 12.2.14z" class="st7"/><path id="XMLID_556_" d="M846.1 524l260.1 2.9c.3 0 .6-.3.6-.6l.1-8.9c0-.3-.3-.6-.6-.6l-260.1-2.9c-.3 0-.6.3-.6.6l-.1 8.9c-.1.3.2.6.6.6z" class="st10"/><path id="XMLID_555_" d="M1093.04 554.46l-12.2-.13.34-30.3 12.2.14z" class="st10"/><path id="XMLID_554_" d="M947.47 552.77l-12.2-.14.34-30.3 12.2.14z" class="st10"/><path id="XMLID_553_" d="M920.92 514.77l-47-.53.88-77.1 47 .54z" class="st7"/><path id="XMLID_552_" d="M929.6 440.5l-62.5-.7.06-5.4 62.5.7z" class="st7"/><g id="XMLID_544_"><path id="XMLID_551_" d="M984.9 444.1l70.6.78-.48 41.6-70.6-.8z" class="st11"/><path id="XMLID_550_" d="M980.5 444.1l79.5.9c.2 0 .4-.2.4-.3l.1-5c0-.2-.2-.4-.3-.4l-79.5-.9c-.2 0-.4.2-.4.3l-.1 5c-.1.2.1.4.3.4z" class="st10"/><path id="XMLID_549_" d="M980 490l79.5.9c.2 0 .4-.2.4-.3l.1-5c0-.2-.2-.4-.3-.4l-79.5-.9c-.2 0-.4.2-.4.3l-.1 5c-.1.2.1.4.3.4z" class="st10"/><path id="XMLID_548_" d="M1020.87 487.56l-2.2-.03.5-44.4 2.2.03z" class="st10"/><path id="XMLID_547_" d="M1056.38 464.65l-.02 2.2-72.8-.83.03-2.2z" class="st10"/><path id="XMLID_546_" d="M1057.25 487.98l-2.2-.02.5-44.4 2.2.03z" class="st10"/><path id="XMLID_545_" d="M984.5 487.13l-2.2-.02.5-44.4 2.2.04z" class="st10"/></g><path id="XMLID_543_" d="M896.8 353.9l-57.5 45.6v-3.2l57.6-46.2z" class="st7"/><g id="XMLID_540_"><path id="XMLID_542_" d="M1085.25 551.92L941.2 530.8l.9-6.14 144.05 21.13z" class="st10"/><path id="XMLID_541_" d="M941 544.3l144.5-17.84.77 6.16-144.5 17.85z" class="st10"/></g><g id="XMLID_534_"><path id="XMLID_539_" d="M870.6 524.3l53.5.6c.3 0 .6-.3.6-.6l.1-8.9c0-.3-.3-.6-.6-.6l-53.5-.6c-.3 0-.6.3-.6.6l-.1 8.9c-.1.3.2.6.6.6z" class="st9"/><path id="XMLID_538_" d="M864 534.3l53.5.6c.3 0 .6-.3.6-.6l.1-8.9c0-.3-.3-.6-.6-.6l-53.5-.6c-.3 0-.6.3-.6.6l-.1 8.9c0 .3.3.6.6.6z" class="st8"/><path id="XMLID_537_" d="M857.5 544.3l53.5.6c.3 0 .6-.3.6-.6l.1-8.9c0-.3-.3-.6-.6-.6l-53.5-.6c-.3 0-.6.3-.6.6l-.1 8.9c0 .3.2.6.6.6z" class="st9"/><path id="XMLID_536_" d="M850.9 554.2l53.5.6c.3 0 .6-.3.6-.6l.1-8.9c0-.3-.3-.6-.6-.6l-53.5-.6c-.3 0-.6.3-.6.6l-.1 8.9c0 .4.3.6.6.6z" class="st8"/><path id="XMLID_535_" d="M844.4 564.2l53.5.6c.3 0 .6-.3.6-.6l.1-8.9c0-.3-.3-.6-.6-.6l-53.5-.6c-.3 0-.6.3-.6.6l-.1 8.9c0 .3.2.6.6.6z" class="st9"/></g></g><g id="XMLID_530_"><path id="XMLID_532_" d="M1072.64 377.62l-34.7-.4.44-38.6 34.7.4z" class="st9"/><path id="XMLID_531_" d="M1080.26 339.04l-49.3-.56.12-10.8 49.3.56z" class="st7"/></g></g><g id="XMLID_523_"><path id="XMLID_528_" d="M870.6 524.3l53.5.6c.3 0 .6-.3.6-.6l.1-8.9c0-.3-.3-.6-.6-.6l-53.5-.6c-.3 0-.6.3-.6.6l-.1 8.9c-.1.3.2.6.6.6z" class="st9"/><path id="XMLID_527_" d="M864 534.3l53.5.6c.3 0 .6-.3.6-.6l.1-8.9c0-.3-.3-.6-.6-.6l-53.5-.6c-.3 0-.6.3-.6.6l-.1 8.9c0 .3.3.6.6.6z" class="st8"/><path id="XMLID_526_" d="M857.5 544.3l53.5.6c.3 0 .6-.3.6-.6l.1-8.9c0-.3-.3-.6-.6-.6l-53.5-.6c-.3 0-.6.3-.6.6l-.1 8.9c0 .3.2.6.6.6z" class="st9"/><path id="XMLID_525_" d="M850.9 554.2l53.5.6c.3 0 .6-.3.6-.6l.1-8.9c0-.3-.3-.6-.6-.6l-53.5-.6c-.3 0-.6.3-.6.6l-.1 8.9c0 .4.3.6.6.6z" class="st8"/><path id="XMLID_524_" d="M844.4 564.2l53.5.6c.3 0 .6-.3.6-.6l.1-8.9c0-.3-.3-.6-.6-.6l-53.5-.6c-.3 0-.6.3-.6.6l-.1 8.9c0 .3.2.6.6.6z" class="st9"/></g><g id="XMLID_285_"><path id="XMLID_496_" d="M980.2 498c6.5.7 6.2.7 6.2.7v-2c.5.1 1.1.1 1.7.1 1.2 0 1.9 0 2.3 0v-1.6h-1.9s-2.3.1-3.6-1c-1.3-1.1-2.5-2.3-2-3.5.5-1.2.8-1.9 2.6-3.1 1.8-1.2 3.8-2.9 4.7-3.1.9-.2 3.3-.2 3.3-.2s1.2.2.9 1.5c-.4 1.4-.5 1.7-.5 1.7l1.8.6s.3-1.7.9-2.4c.6-.7 1.4-1.9-.1-2.9s-2.6-1.1-4.9-.9c-2.3.1-7.8.3-10.5 1.6-2.8 1.3-8.1 2.2-8.7 6.1-.4 3.6 1.2 7.6 7.8 8.4zm-3-10.4c3.9-1.6 6.6-2.9 7.4-2.6.8.2.8.2.8.2s-3.2 1.4-3.7 2.5-1.6 4 0 6.1c1 1.3 1.8 2.1 3.1 2.6l-3.4-.3s-3.8.2-5.1-1.5c-1.3-1.8-2.9-5.5.9-7z" class="st12"/><g id="XMLID_427_"><g id="XMLID_471_"><g id="XMLID_493_"><path id="XMLID_495_" d="M984.62 509.85l.38.1-6.3 20.67-.4-.1z" class="st13"/><path id="XMLID_494_" d="M977.87 530.33l-.36-.2L987.5 511l.36.2z" class="st13"/></g><g id="XMLID_490_"><path id="XMLID_492_" d="M999.44 538.9l-.12.37-20.65-6.32.12-.38z" class="st13"/><path id="XMLID_491_" d="M978.94 532.12l.18-.35 19.16 9.97-.18.36z" class="st13"/></g><g id="XMLID_487_"><path id="XMLID_489_" d="M970.38 553.74l-.4-.1 6.32-20.67.38.1z" class="st13"/><path id="XMLID_488_" d="M977.18 533.27l.36.18-10 19.15-.35-.2z" class="st13"/></g><g id="XMLID_484_"><path id="XMLID_486_" d="M955.55 524.77l.1-.38 20.67 6.3-.12.38z" class="st13"/><path id="XMLID_485_" d="M976.05 531.46l-.18.36-19.16-9.97.2-.36z" class="st13"/></g><g id="XMLID_481_"><path id="XMLID_483_" d="M967.1 511.25l.35-.2 10.16 19.07-.35.2z" class="st13"/><path id="XMLID_482_" d="M976.7 530.5l-.4.13-6.46-20.6.38-.13z" class="st13"/></g><g id="XMLID_478_"><path id="XMLID_480_" d="M998.03 521.27l.2.35-19.07 10.15-.2-.35z" class="st13"/><path id="XMLID_479_" d="M978.74 531.1l-.12-.4 20.6-6.5.12.4z" class="st13"/></g><g id="XMLID_475_"><path id="XMLID_477_" d="M987.97 552.4l-.35.2-10.18-19.07.36-.18z" class="st13"/><path id="XMLID_476_" d="M978.3 533l.4-.1 6.5 20.58-.37.12z" class="st13"/></g><g id="XMLID_472_"><path id="XMLID_474_" d="M956.9 542.36l-.2-.35 19.07-10.15.2.35z" class="st13"/><path id="XMLID_473_" d="M976.25 532.65l.12.38-20.6 6.5-.12-.4z" class="st13"/></g></g><g id="XMLID_446_"><g id="XMLID_468_"><path id="XMLID_470_" d="M976.06 508.76l.4-.03 1.7 21.53-.4.03z" class="st13"/><path id="XMLID_469_" d="M977.4 530.3l-.4-.03 2.25-21.48.4.03z" class="st13"/></g><g id="XMLID_465_"><path id="XMLID_467_" d="M1000.6 530.37l.02.4-21.53 1.7-.04-.4z" class="st13"/><path id="XMLID_466_" d="M979.02 531.58l.04-.4 21.48 2.26-.04.4z" class="st13"/></g><g id="XMLID_462_"><path id="XMLID_464_" d="M978.95 554.8l-.4.04-1.7-21.53.4-.03z" class="st13"/><path id="XMLID_463_" d="M977.72 533.4l.4.03-2.27 21.48-.4-.03z" class="st13"/></g><g id="XMLID_459_"><path id="XMLID_461_" d="M954.54 533.27l-.04-.4 21.54-1.7.03.4z" class="st13"/><path id="XMLID_460_" d="M976.1 531.97l-.04.4-21.5-2.26.06-.38z" class="st13"/></g><g id="XMLID_456_"><path id="XMLID_458_" d="M960.2 516.55l.25-.3 16.45 14-.26.3z" class="st13"/><path id="XMLID_457_" d="M976.4 530.9l-.3.25-13.6-16.78.3-.25z" class="st13"/></g><g id="XMLID_453_"><path id="XMLID_455_" d="M992.75 514.44l.3.26-14.02 16.43-.3-.26z" class="st13"/><path id="XMLID_454_" d="M978.45 530.6l-.25-.3 16.78-13.6.25.3z" class="st13"/></g><g id="XMLID_450_"><path id="XMLID_452_" d="M994.86 547.1l-.26.3-16.45-14 .26-.3z" class="st13"/><path id="XMLID_451_" d="M978.77 532.8l.32-.27 13.58 16.8-.3.24z" class="st13"/></g><g id="XMLID_447_"><path id="XMLID_449_" d="M962.3 549.1l-.3-.26 14.02-16.44.3.26z" class="st13"/><path id="XMLID_448_" d="M976.6 532.98l.25.3-16.78 13.6-.25-.3z" class="st13"/></g></g><path id="XMLID_440_" d="M977.9 503.7c-15.5-.2-28.3 12.2-28.5 27.7-.2 15.5 12.2 28.3 27.7 28.5 15.5.2 28.3-12.2 28.5-27.7.2-15.6-12.2-28.3-27.7-28.5zm-.7 51.2c-12.7-.2-22.9-10.6-22.8-23.4.2-12.7 10.6-22.9 23.4-22.8 12.7.2 22.9 10.6 22.8 23.4-.1 12.8-10.6 23-23.4 22.8z" class="st14"/><path id="XMLID_434_" d="M977.9 505.8c-14.3-.2-26.1 11.3-26.3 25.6-.2 14.3 11.3 26.1 25.6 26.3 14.3.2 26.1-11.3 26.3-25.6.2-14.3-11.3-26.1-25.6-26.3zm-.7 48.8c-12.6-.2-22.7-10.5-22.5-23.1.2-12.6 10.5-22.7 23.1-22.5 12.6.2 22.7 10.5 22.5 23.1-.1 12.6-10.5 22.7-23.1 22.5z" class="st12"/><path id="XMLID_428_" d="M977.8 507.8c-13.3-.2-24.1 10.4-24.3 23.7-.2 13.3 10.4 24.1 23.7 24.3s24.1-10.4 24.3-23.7c.2-13.2-10.4-24.1-23.7-24.3zm-.6 46.7c-12.5-.2-22.5-10.4-22.4-23 .2-12.5 10.4-22.5 23-22.4 12.5.2 22.5 10.4 22.4 23-.2 12.5-10.4 22.5-23 22.4z" class="st12"/></g><g id="XMLID_352_"><g id="XMLID_402_"><g id="XMLID_424_"><path id="XMLID_426_" d="M1061.56 509.86l.4-.03 1.7 21.53-.4.03z" class="st13"/><path id="XMLID_425_" d="M1062.88 531.47l-.4-.04 2.26-21.48.4.04z" class="st13"/></g><g id="XMLID_421_"><path id="XMLID_423_" d="M1086.1 531.45l.04.4-21.54 1.7-.03-.4z" class="st13"/><path id="XMLID_422_" d="M1064.55 532.72l.04-.4 21.48 2.26-.05.4z" class="st13"/></g><g id="XMLID_418_"><path id="XMLID_420_" d="M1064.46 555.9l-.4.04-1.7-21.53.4-.03z" class="st13"/><path id="XMLID_419_" d="M1063.26 534.4l.4.04-2.26 21.48-.4-.04z" class="st13"/></g><g id="XMLID_415_"><path id="XMLID_417_" d="M1040 534.45l-.02-.4 21.53-1.7.04.4z" class="st13"/><path id="XMLID_416_" d="M1061.58 533.2l-.04.4-21.48-2.26.04-.4z" class="st13"/></g><g id="XMLID_412_"><path id="XMLID_414_" d="M1045.76 517.66l.26-.3 16.45 14-.26.3z" class="st13"/><path id="XMLID_413_" d="M1061.84 532.02l-.3.25-13.6-16.78.3-.26z" class="st13"/></g><g id="XMLID_409_"><path id="XMLID_411_" d="M1078.28 515.5l.3.27-14.02 16.42-.3-.26z" class="st13"/><path id="XMLID_410_" d="M1063.9 531.7l-.25-.3 16.78-13.6.25.3z" class="st13"/></g><g id="XMLID_406_"><path id="XMLID_408_" d="M1080.44 548.17l-.26.3-16.45-14 .26-.3z" class="st13"/><path id="XMLID_407_" d="M1064.25 533.83l.3-.25 13.6 16.78-.3.26z" class="st13"/></g><g id="XMLID_403_"><path id="XMLID_405_" d="M1047.75 550.2l-.3-.24 14.02-16.44.3.26z" class="st13"/><path id="XMLID_404_" d="M1062.15 534.1l.25.3-16.8 13.6-.24-.3z" class="st13"/></g></g><g id="XMLID_371_"><g id="XMLID_399_"><path id="XMLID_401_" d="M1070.23 510.88l.38.12-6.3 20.66-.37-.12z" class="st13"/><path id="XMLID_400_" d="M1063.33 531.47l-.36-.18 9.97-19.17.36.18z" class="st13"/></g><g id="XMLID_390_"><path id="XMLID_398_" d="M1084.98 540.07l-.12.38-20.65-6.32.12-.38z" class="st13"/><path id="XMLID_397_" d="M1064.56 533.2l.2-.35 19.15 9.98-.18.35z" class="st13"/></g><g id="XMLID_387_"><path id="XMLID_389_" d="M1055.95 554.78l-.38-.1 6.3-20.67.4.12z" class="st13"/><path id="XMLID_388_" d="M1062.74 534.45l.36.2-10 19.13-.35-.18z" class="st13"/></g><g id="XMLID_384_"><path id="XMLID_386_" d="M1041.06 525.75l.12-.38 20.66 6.3-.12.4z" class="st13"/><path id="XMLID_385_" d="M1061.54 532.62l-.18.35-19.16-9.97.18-.36z" class="st13"/></g><g id="XMLID_381_"><path id="XMLID_383_" d="M1052.5 512.35l.35-.2 10.16 19.06-.34.2z" class="st13"/><path id="XMLID_382_" d="M1062.18 531.57l-.38.12-6.47-20.62.38-.12z" class="st13"/></g><g id="XMLID_378_"><path id="XMLID_380_" d="M1083.53 522.35l.2.36-19.08 10.16-.2-.36z" class="st13"/><path id="XMLID_379_" d="M1064.33 532.08l-.12-.38 20.6-6.5.13.4z" class="st13"/></g><g id="XMLID_375_"><path id="XMLID_377_" d="M1073.54 553.5l-.35.18-10.18-19.05.35-.2z" class="st13"/><path id="XMLID_376_" d="M1063.8 534.1l.4-.1 6.5 20.6-.38.1z" class="st13"/></g><g id="XMLID_372_"><path id="XMLID_374_" d="M1042.42 543.42l-.18-.35 19.06-10.16.2.37z" class="st13"/><path id="XMLID_373_" d="M1061.72 533.76l.12.4-20.6 6.5-.12-.4z" class="st13"/></g></g><path id="XMLID_365_" d="M1063.4 504.8c-15.5-.2-28.3 12.2-28.5 27.7-.2 15.5 12.2 28.3 27.7 28.5 15.5.2 28.3-12.2 28.5-27.7.3-15.6-12.2-28.3-27.7-28.5zm-.6 51.2c-12.7-.2-22.9-10.6-22.8-23.4.2-12.7 10.6-22.9 23.4-22.8 12.7.2 22.9 10.6 22.8 23.4-.2 12.8-10.7 23-23.4 22.8z" class="st14"/><path id="XMLID_359_" d="M1063.4 506.9c-14.3-.2-26.1 11.3-26.3 25.6-.2 14.3 11.3 26.1 25.6 26.3 14.3.2 26.1-11.3 26.3-25.6.2-14.3-11.3-26.1-25.6-26.3zm-.6 48.8c-12.6-.2-22.7-10.5-22.5-23.1.2-12.6 10.5-22.7 23.1-22.5 12.6.2 22.7 10.5 22.5 23.1-.2 12.6-10.5 22.7-23.1 22.5z" class="st12"/><path id="XMLID_353_" d="M1063.4 508.9c-13.3-.2-24.1 10.4-24.3 23.7-.2 13.3 10.4 24.1 23.7 24.3 13.3.2 24.1-10.4 24.3-23.7.1-13.2-10.5-24.1-23.7-24.3zm-.6 46.7c-12.5-.2-22.5-10.4-22.4-23 .2-12.5 10.4-22.5 23-22.4 12.5.2 22.5 10.4 22.4 23-.2 12.5-10.5 22.5-23 22.4z" class="st12"/></g><g id="XMLID_326_"><path id="XMLID_307_" d="M1042.1 493.25l-48.7-.63.04-3.1 48.7.63z" class="st15"/><path id="XMLID_306_" d="M1029.25 535.57l-2.73 2.5-35.7-38.9 2.73-2.5z" class="st15"/><path id="XMLID_305_" d="M978.7 530.7s3.8-3.1 6.8-9.5c3.1-6.4 6.2-14.3 6.3-16.2.2-1.9-.3-2.5-.3-2.5l-1.7-.5s-1.7 2.3-2.8 6.6c-1.1 4.3-3.7 12.3-4.1 13.2-.4.9-4.3 7.9-5 8.2l-.7.7h1.5z" class="st15"/><path id="XMLID_289_" d="M992.05 502.42l-2.4-.7 4.52-15.56 2.4.7z" class="st15"/><path id="XMLID_287_" d="M989 501.8c-.1.2.1.4.3.5l2.4.7c.2.1.5 0 .5-.3.1-.2-.1-.4-.3-.5l-2.4-.7c-.2-.1-.4.1-.5.3z" class="st15"/><path id="XMLID_267_" d="M1028.28 538.9l-1.92-.58 15.9-53.17 1.92.57z" class="st15"/><path id="XMLID_266_" d="M1064.12 533.2l-1.7.85-21.56-43.22 1.7-.84z" class="st15"/><path id="XMLID_265_" d="M1063.3 533.55l-35.76 4.9-.17-1.2 35.77-4.9z" class="st15"/></g><g id="XMLID_323_"><circle id="XMLID_325_" cx="977.5" cy="531.8" r="3.2" class="st16"/><circle id="XMLID_324_" cx="977.5" cy="531.8" r="2.4" class="st17"/></g><g id="XMLID_290_"><g id="XMLID_320_"><path id="XMLID_322_" d="M1030.68 551.95l-1.58.27-2.23-13.1 1.58-.28z" class="st18"/><path id="XMLID_321_" d="M1033.4 552.4c0 .1-.1.1-.2.1l-4.7-.1c-.1 0-.2-.1-.1-.1v-.9c0-.1.1-.1.2-.1l4.7.1c.1 0 .2.1.1.1v.9z" class="st19"/></g><path id="XMLID_319_" d="M1028.16 528.77l35 .9-.03.6-35-.9z" class="st20"/><path id="XMLID_318_" d="M1063.27 536.07l-33.37 10.86-.16-.47 33.38-10.87z" class="st20"/><g id="XMLID_300_"><path id="XMLID_304_" d="M1018.3 537.9c-.1 5.1 4 9.3 9.2 9.4 5.1.1 9.3-4 9.4-9.2.1-5.1-4-9.3-9.2-9.4-5.1 0-9.3 4.1-9.4 9.2zm9.1-.5c0 .1 0 .2-.1.2-.1.1-.2.1-.3 0l-6.7-3.1c-.1 0-.1-.1-.1-.2s0-.1 0-.2c.6-1.2 1.5-2.1 2.6-2.9 1.1-.8 2.3-1.2 3.6-1.4.1 0 .1 0 .2.1s.1.1.1.2l.7 7.3zm7.7-2.9c0 .1-.1.1-.1.2l-6.7 3c-.1 0-.2 0-.3 0-.1-.1-.1-.2-.1-.2l.8-7.3c0-.1 0-.1.1-.2s.1-.1.2-.1c1.3.2 2.5.7 3.6 1.5s1.9 1.8 2.5 3c0 0 0 .1 0 .1zm-1.7 9.1l-5.2-5.2c-.1-.1-.1-.2-.1-.3 0-.1.1-.2.2-.2l7.1-2c.1 0 .1 0 .2 0s.1.1.1.2c.3 1.3.2 2.6-.1 3.9-.3 1.3-1 2.5-1.8 3.5 0 .1-.1.1-.2.1s-.2 0-.2 0zm-9.8 1.3l3.8-6.3c0-.1.1-.1.2-.1s.2.1.2.1l3.6 6.4c0 .1 0 .1 0 .2s-.1.1-.1.2c-1.2.6-2.5.9-3.8.8s-2.6-.3-3.8-.9c-.1 0-.1-.1-.1-.2-.1 0 0-.1 0-.2zm-4.1-5c-.3-1.3-.3-2.6 0-3.9 0-.1.1-.1.1-.2.1 0 .1 0 .2 0l7 2.1c.1 0 .2.1.2.2s0 .2-.1.3l-5.4 5c-.1.1-.1.1-.2.1s-.1 0-.2-.1c-.7-1-1.3-2.2-1.6-3.5z" class="st12"/><path id="XMLID_301_" d="M1018.3 537.9c-.1 5.1 4 9.3 9.2 9.4 5.1.1 9.3-4 9.4-9.2.1-5.1-4-9.3-9.2-9.4-5.1 0-9.3 4.1-9.4 9.2zm.6 0c.1-4.8 4-8.7 8.8-8.6 4.8.1 8.7 4 8.6 8.8-.1 4.8-4 8.7-8.8 8.6-4.8 0-8.7-4-8.6-8.8z" class="st21"/></g><g id="XMLID_297_"><circle id="XMLID_299_" cx="1063" cy="532.9" r="3.2" class="st16"/><circle id="XMLID_298_" cx="1063" cy="532.9" r="2.4" class="st17"/></g><g id="XMLID_294_"><path id="XMLID_296_" d="M1024.35 524.74l1.58-.27 2.22 13.1-1.57.28z" class="st18"/><path id="XMLID_295_" d="M1026.9 524.6c0 .1-.1.1-.2.1l-4.7-.1c-.1 0-.2-.1-.1-.1v-.9c0-.1.1-.1.2-.1l4.7.1c.1 0 .2.1.1.1v.9z" class="st19"/></g><g id="XMLID_291_"><circle id="XMLID_293_" cx="1027.6" cy="538" r="1.7" class="st19"/><circle id="XMLID_292_" cx="1027.6" cy="538" r="1.2" class="st22"/></g></g><path id="XMLID_288_" d="M1042 485.4c0 .1 0 .3.1.3l1.7.5c.1 0 .2 0 .3-.2l1.5-4.9c0-.1 0-.3-.1-.3l-1.7-.5c-.1 0-.2 0-.3.2l-1.5 4.9z" class="st23"/><path id="XMLID_286_" d="M1048 482.1s4.1-2.6 5.4-3.6c1.3-1 1.9-3-2.1-2-3.9 1-6.4 1.7-8.8 2.1-2.4.4-7.9.8-9.9 2.3-2 1.5-3 3.3.7 2.5 3.7-.8 3.4-1.5 7.6-1.6 4.2-.1 4.4.4 5.4.4 1.1 0 .2.4 1.7-.1z" class="st12"/></g><path d="M1189.8 575.4l-.5-27.9c-3.9-.1-8.5 1.3-12.4 1.6 3.8-2.8 7.9-5.2 12.3-7.1v-.7c-6.6.8-13.1 3-18.7 6.2 4.2-4 8.8-7.6 13.7-10.9-10 1.2-18 7.9-25.2 14.3 4.1-6.1 8.2-12.2 12.4-18.3-8.1 3-15.4 8-20.9 14.2 2.2-7.8 4-15.7 5.2-23.7-3.6 7.3-7.8 14.4-12.7 21 1.4-7.8.3-15.9-3.1-23.1-1.9 8.2-3.8 16.3-5.7 24.5-2.6-6.9-6.6-13.4-11.9-19 .1 6.2.2 12.4.4 18.5-1.9-3.8-5.8-6.8-10.2-7.9 2 2.5 3 5.7 2.9 8.8-1.7-2.4-4.2-4.3-7-5.4.4 2.5.8 5 1.1 7.6-1 .3-2.2-.2-2.6-1.1 1.6 3.8-10.4 1-12.4 1.1-5.1.1-10.1 1.6-15.2 1.2 4.3-1.3 8.6-2.8 12.6-4.6-6.9-1.6-14.3-1.1-21 1.3 3.4-2.5 7-4.8 10.8-6.7-8.3.8-16.3 3.7-23 8.1 3.8-3.5 5.2-8.5 6.5-13.2-4.6 4.7-9.5 9.1-14.8 13.2 1.5-4.6 1.2-9.6-1-14-2.4 4.7-4.8 9.4-7.2 14.1-3-3.9-7.4-6.9-12.3-8.4.7 3.5 1.5 7 2.2 10.5-2.7-2.2-6.3-3.6-9.9-3.8.5 1.6 1 3.2 1.5 4.7.3.9-11.2.5-12.8-.2 1.5-1.5 3.3-2.7 5-4-5.1.2-10.1 1.2-14.8 2.8 2.9-2.2 6.3-3.9 9.9-4.9-6.5-1.5-12.7 2.9-19.2 4.1 1.6-2.9 2.6-6.1 3.1-9.4-3.4 2.7-6.3 5.7-8.8 9.1-.9-3.2-2.4-6.3-4.3-9.1-1 2.9-1.4 5.9-1.2 8.9-3.6-2.7-8-4.5-12.6-5 2.5 1.2 4.6 3.1 6.2 5.3-3.2.1-6.4.1-9.6.2 1.7.6 3.1 1.6 4.1 3-.6-.8-10.2 0-12-.3-3.6-.6-7-1.2-10.7-1.6 1.9-1.9 4.6-3.3 7.2-4.2-6.7.8-13.4 2.1-19.9 3.9 2.7-1.8 5.2-3.8 7.6-6-5.9 1.1-11.6 3.2-16.8 5.9 1.6-1.6 2.5-3.8 2.5-6-3.1 2.5-6.3 4.9-9.4 7.4-.5-2.9-1.7-5.7-3.5-8.1-.9 2.4-1.9 4.8-2.8 7.2-4-1.2-7.7-3-11.1-5.3 2.6 1.7-1.7 9.1-4.2 4.1-.7-1.5-.2-3.2.3-4.8-2.2 1.1-4.1 2.9-5 5-.1.3-.3.6-.7.7-.5.1-.9-.6-.9-1.1-.5-5.3 3-10.2 6.3-14.5-5.9 4.5-10.8 10-14.3 16.2-.4-2 0-4.1.4-6.1.7-3.6 1.4-7.2 2-10.8.3-1.6.7-3.4 1.7-4.7-1.6 2-3.2 3.9-4.8 5.9-4.6 5.6-9.3 11.4-11.1 18.1-1.3-4.5.1-10-1.8-14.2-.9 1.3-6.7 11.9-5.9 13-1.1-1.5-1.6-3.4-1.2-5.1-2.4 2.6-5.2 5-8.4 6.9-1.2-3.2-.7-7 1.4-9.9-5.8 1.5-18.3 4.8-21.4 10 1.6-2.7 2.4-5.8 2.4-8.9-3.1 2.6-5.9 5.7-8.1 8.9-2.4-4-4.9-7.9-7.5-11.8l-1.3 11.6c-3.9-4.8-9-8.8-14.9-11.5 1.2 3.8 2.4 7.6 3.7 11.4-4.1-3.6-9.5-6-15.2-6.7 2.7.8 5.1 2.2 6.9 4.2-1.2-1.3-9.1-1.6-11.1-1.9 2.9 5.3-3.8 5-7.6 5.2 1.1-1.7 2.6-3.1 4.4-4.2-5.5.8-10.9 2.2-16 4.1 2.3-1.7 4.5-3.4 6.8-5.1-5.4 1.6-10.8 3.5-15.9 5.6 1.7-2.1 2.7-4.6 2.9-7.2-3 3.3-6.5 6.1-10.5 8.3 1-3.3.8-6.8-.8-9.9-.9 2.7-1.7 5.4-2.6 8.1-3.9-5-8.6-9.5-13.8-13.4 1.3 4.1 2.1 8.4 2.3 12.6-4.5-1.6-9.2-2.6-13.9-3.1 1.2 2.1 2.3 4.3 3.5 6.4-.6-1.1-17.8-2.1-19.5-1.9 1.6-1.7 3.5-3 5.7-3.9-5.4-.8-10.7 1.3-15.7 3.4.9-2.1 1.8-4.2 2.7-6.4-3.2 2.1-5.9 4.7-8 7.7-.6-3.2-1.3-6.4-1.9-9.7-2.1 3-3.3 6.6-3.3 10.1-1.1.3-1.7-1.1-1.9-2.2-.4-1.9-1.3-3.8-2.6-5.4-.7 3.3-.5 6.7-.3 10-.8 0-12.9-.9-12.9-1l.4 26" class="st24"/><path d="M1077.1 521.3c1.2 2.8 2.5 5.5 4.6 7.7 1.3 1.4 2.8 2.6 4.4 3.7 4.5 3.1 9.2 5.4 14.8 5.8 2.8.2 6.6-.5 9.3.6 2 .8 3.2 3.3 4 5.1.8 1.8-.6 5.4-1 7.2-.6 3.1-1.3 5.8-2.8 8.6-1 1.9.2 3.8 1.7 1.6 1.2-1.8 2-4.1 2.7-6.1 1.5-4.2 2.5-8.6 3-13 0-.4.1-.7 0-1.1-.1-.4-.4-.8-.6-1.2-1-2.1 0-5.7.1-8 .1-2.8.1-5.6-.1-8.4-1.1-11.2-8.5-21.8-19.2-25.4-8.8-3-18.8-1-27.6-4.1.8 9.4 3.1 18.5 6.7 27zM1149.6 528.5c-1.2 1.9-2.5 3.8-4.2 5.2-1.1.9-2.4 1.6-3.7 2.2-3.9 1.9-8.2 3.2-12.5 2.9-1.9-.1-3.9-.5-5.6-1.2-1.5-.6-2.5-1.3-3.9.1-.7.7-1.1 1.7-1.4 2.6-.6-.3-.5-1.1-.4-1.8.9-6.6 1.2-13.5 4.9-19.3 3.3-5.2 8.1-8.4 14-9.8 6.8-1.2 13.9 1.3 20.8 0-1.7 6.8-4.4 13.2-8 19.1zM1118.2 519.4c.5 1.5.9 3.4.4 4.2 3-4.9 6.4-10.1 8.1-15.6 1.3-4.6.4-10.2-1.4-14.5-1.2-2.9-3-5.4-4.5-8.1-1.3-2.4-2.3-4.7-4.1-6.8-.3-.4-1.1 2.5-1.2 2.7-.4 1.4-.8 2.8-1.2 4.3-2.5 8.3-3.8 17.5-.3 25.3 1.1 2.4 2.6 4.6 3.6 7 .1.3.4.9.6 1.5z" class="st25"/><path id="XMLID_284_" d="M955.1 199.4c-.3-8.7-7.4-15.6-16.1-15.7 0-.6 0-1.1 0-1.7-.3-9-7.8-16-16.8-15.7-4.5.1-8.5 2.1-11.3 5.1-3-2.8-7.2-4.5-11.6-4.4-9 .3-16 7.8-15.7 16.8 0 .6.1 1.1.1 1.7-.3 0-.6 0-.9 0-9 .3-16 7.8-15.7 16.8l88-2.9z" class="st26"/><path id="XMLID_283_" d="M796 213.2c-.2-4.5-3.9-8.1-8.4-8.1 0-.3 0-.6 0-.9-.2-4.6-4.1-8.3-8.8-8.1-2.3.1-4.4 1.1-5.8 2.7-1.6-1.5-3.7-2.3-6-2.2-4.7.2-8.3 4.1-8.1 8.8 0 .3 0 .6.1.9-.2 0-.3 0-.5 0-4.6.2-8.3 4.1-8.1 8.8l45.6-1.9z" class="st26"/><path id="XMLID_282_" d="M845.4 169.8c-.1-2.8-2.4-5-5.2-5 0-.2 0-.4 0-.5-.1-2.9-2.6-5.1-5.4-5-1.4.1-2.7.7-3.6 1.7-1-.9-2.3-1.4-3.7-1.4-2.9.1-5.1 2.6-5 5.4 0 .2 0 .4.1.5-.1 0-.2 0-.3 0-2.9.1-5.1 2.6-5 5.4l28.1-1.1z" class="st26"/><g id="XMLID_11_"><linearGradient id="XMLID_3_" x1="-65.033" x2="256.166" y1="820.816" y2="820.816" gradientUnits="userSpaceOnUse" gradientTransform="matrix(-.601 .8 .8 .601 -328.607 -140.523)"><stop offset="0" stop-color="#BCBEC0"/><stop offset=".489" stop-color="#808285"/><stop offset="1" stop-color="#58595B"/></linearGradient><path id="XMLID_136_" d="M385.9 447.6l-30.3-.1-8.3-146.8c1.8-.1 3.2-1.6 3.2-3.5v-7.3c0-1.9-1.6-3.5-3.5-3.5l-25-.1c-1.9 0-3.5 1.6-3.5 3.5v7.3c0 1.8 1.4 3.3 3.2 3.5l-9.4 146.7-25.7-.1-8.3-146.8c1.8-.1 3.2-1.6 3.2-3.5v-7.3c0-1.9-1.6-3.5-3.5-3.5l-25-.1c-1.9 0-3.5 1.6-3.5 3.5v7.3c0 1.8 1.4 3.3 3.2 3.5L243.3 447l-25.7-.1-8.3-146.8c1.8-.1 3.2-1.6 3.2-3.5v-7.3c0-1.9-1.6-3.5-3.5-3.5l-25-.1c-1.9 0-3.5 1.6-3.5 3.5v7.3c0 1.8 1.4 3.3 3.2 3.5l-9.4 146.7-30.3-.1-.3 87.8 242 .9.2-87.7z" class="st27"/><linearGradient id="XMLID_7_" x1="52.929" x2="223.146" y1="840.745" y2="840.745" gradientUnits="userSpaceOnUse" gradientTransform="matrix(-.601 .8 .8 .601 -328.607 -140.523)"><stop offset="0" stop-color="#BCBEC0"/><stop offset=".489" stop-color="#808285"/><stop offset="1" stop-color="#58595B"/></linearGradient><path id="XMLID_135_" d="M354.7 517l.2-77.9-37.4-17-.1 16-35.6-16.2V438l-35.6-16.2-.1 16-35.4-16.1v16l-35.6-16.1-.4 95 35.7-.2v.3l35.5-.1v.3l35.6-.2v.3l35.6-.2v.3z" class="st28"/><linearGradient id="XMLID_8_" x1="86.662" x2="311.876" y1="891.531" y2="891.531" gradientUnits="userSpaceOnUse" gradientTransform="matrix(-.601 .8 .8 .601 -328.607 -140.523)"><stop offset="0" stop-color="#BCBEC0"/><stop offset=".489" stop-color="#808285"/><stop offset="1" stop-color="#58595B"/></linearGradient><path id="XMLID_134_" d="M120.9 587.2l287.1 1 .2-66.9-287-1z" class="st29"/><g id="XMLID_62_"><path id="XMLID_133_" d="M316.63 468.86l-10.3-.03.02-5.2 10.3.03z" class="st30"/><path id="XMLID_132_" d="M301.1 468.85l-10.3-.04.02-5.2 10.3.05z" class="st30"/><path id="XMLID_131_" d="M285.58 468.74l-10.3-.04.02-5.2 10.3.04z" class="st30"/><path id="XMLID_130_" d="M270.05 468.73l-10.3-.04.02-5.2 10.3.03z" class="st30"/><path id="XMLID_129_" d="M254.53 468.62l-10.3-.04.02-5.2 10.3.04z" class="st30"/><path id="XMLID_128_" d="M239 468.6l-10.3-.03.02-5.2 10.3.04z" class="st30"/><path id="XMLID_127_" d="M223.48 468.5l-10.3-.05.02-5.2 10.3.04z" class="st30"/><path id="XMLID_126_" d="M316.6 460.87l-10.3-.04v-5.2l10.3.04z" class="st30"/><path id="XMLID_120_" d="M301.06 460.75l-10.3-.03.02-5.2 10.3.03z" class="st30"/><path id="XMLID_67_" d="M285.54 460.74l-10.3-.03.02-5.2 10.3.04z" class="st30"/><path id="XMLID_66_" d="M270.1 460.63l-10.3-.03.03-5.2 10.3.03z" class="st30"/><path id="XMLID_65_" d="M254.6 460.62l-10.3-.04v-5.2l10.3.04z" class="st30"/><path id="XMLID_64_" d="M239.06 460.5l-10.3-.03.02-5.2 10.3.04z" class="st30"/><path id="XMLID_63_" d="M223.54 460.5l-10.3-.04.02-5.2 10.3.04z" class="st30"/></g><g id="XMLID_12_"><path id="XMLID_40_" d="M375 505.57l-10.3-.04v-5.2l10.3.04z" class="st30"/><path id="XMLID_39_" d="M359.46 505.46l-10.3-.04.02-5.2 10.3.04z" class="st30"/><path id="XMLID_38_" d="M343.94 505.45l-10.3-.04.02-5.2 10.3.05z" class="st30"/><path id="XMLID_37_" d="M328.4 505.34l-10.3-.04.03-5.2 10.3.04z" class="st30"/><path id="XMLID_36_" d="M312.9 505.32l-10.3-.03v-5.2l10.3.02z" class="st30"/><path id="XMLID_35_" d="M297.36 505.2l-10.3-.02.02-5.2 10.3.03z" class="st30"/><path id="XMLID_32_" d="M281.84 505.2l-10.3-.04.02-5.2 10.3.04z" class="st30"/><path id="XMLID_29_" d="M374.94 497.47l-10.3-.03.02-5.2 10.3.03z" class="st30"/><path id="XMLID_26_" d="M359.52 497.46l-10.3-.04.02-5.2 10.3.04z" class="st30"/><path id="XMLID_23_" d="M344 497.35l-10.3-.04v-5.2l10.3.05z" class="st30"/><path id="XMLID_20_" d="M328.47 497.34l-10.3-.04.02-5.2 10.3.04z" class="st30"/><path id="XMLID_19_" d="M312.95 497.23l-10.3-.04V492l10.3.03z" class="st30"/><path id="XMLID_16_" d="M297.42 497.2l-10.3-.02.02-5.2 10.3.03z" class="st30"/><path id="XMLID_15_" d="M281.9 497.1l-10.3-.03v-5.2l10.3.03z" class="st30"/></g></g><linearGradient id="XMLID_9_" x1="137.215" x2="-26.91" y1="273.087" y2="335.182" gradientUnits="userSpaceOnUse"><stop offset="0" stop-color="#474747"/><stop offset=".064" stop-color="#4B4B4B"/><stop offset=".129" stop-color="#575757"/><stop offset=".195" stop-color="#6C6C6C"/><stop offset=".261" stop-color="#888"/><stop offset=".31" stop-color="#A3A3A3"/><stop offset=".397" stop-color="#AFAFAF"/><stop offset=".554" stop-color="#CFCFCF"/><stop offset=".659" stop-color="#E8E8E8"/></linearGradient><path id="XMLID_2_" d="M44.2 319.2c6-.1 10.8-5 10.9-10.9 2 1 4.3 1.6 6.8 1.5 4-.1 7.5-1.8 10-4.5 2.7 3 6.6 4.9 10.9 4.8 7.8-.2 14-6.7 13.8-14.5 0-.7-.1-1.3-.2-2 6.5 1.9 13.3-1.1 16.4-7 6.6 1.6 13.5-2.1 15.8-8.7.6-1.7.8-3.5.7-5.2.4-.1.8-.1 1.2-.2.5 4 2.7 7.7 6.3 10.1 6.5 4.3 15.3 2.5 19.6-4.1.4-.6.7-1.1 1-1.7 4.3 5.2 11.6 6.6 17.5 3.6 4.6 5.1 12.3 5.9 17.9 1.8 6-4.4 7.2-12.8 2.8-18.8-3.8-5.1-10.6-6.8-16.2-4.3-.7-.9-1.5-1.7-2.3-2.3-.2-2.3-1-4.6-2.4-6.6-3.7-5-10.3-6.5-15.7-3.9-.7-3.7-2.8-7-6.1-9.2-6.5-4.3-15.3-2.5-19.6 4.1-.7 1.1-1.3 2.2-1.6 3.4-1-1.8-2.4-3.4-4.2-4.7-5.8-3.8-13.7-2.2-17.5 3.6-.9 1.4-1.5 2.8-1.8 4.3-4.3-.8-8.8 1-11.4 4.9-1.8 2.8-2.2 6-1.5 9-5.8-1.8-11.9.7-14.8 5.8-2.6-2.6-6.3-4.2-10.3-4.1-7.8.2-14 6.7-13.8 14.5 0 1.3.2 2.6.6 3.7-1.8-1-3.9-1.5-6.1-1.4-7 .2-12.5 6-12.4 13 0 1.6.4 3.2 1 4.6-4 1.8-6.7 5.8-6.6 10.5 0 0-14.4-1.4-8.4 26.8 0 0-5 15.1 14.5 13.2l15.1-1.2S50.8 333.8 41 337c-.2 0 13.5-1.9 3.2-17.8z" class="st31"/><path id="XMLID_279_" d="M893.3 213.9c0 .1.3.2.3 0s.1 0 .2.1 1.1.3 1.2-.6c.2-.9-.1-3.8-.1-3.8s1.9 3.5 2.2 3.4c.3-.1 1.1.2 1-1.3 0 0 .9.8.9-1 0 0 .5-.8 0-2.5 0 0-.6-2-2.8-4.7 0 0 0-.6.3-.9.3-.3 1.4-2.5 1.4-2.5s.6.1.7-.5c0 0 .7.4 1.1-.2 0 0 .6.4 1-.6 0 0 .5 0 .8-.8 0 0 .6-.1.8-.6 0 0 1.1 0 1.2-.8 0 0 .3 0 .7-.3.4-.3.8-.5.5-.9 0 0 .3.4.9-.3 0 0 .6-.4.2-.8 0 0 1.4-.4 1.6-.7.2-.4-.2-1-.2-1s1.6-.1 1.6-.5c.1-.4 0-.9-.1-1 0 0 1.8-.5 1.8-1.1 0-.3-.1-.4-.1-.4.3-.1 1.6-.6 1.7-1 .2-.4-.1-.6-.1-.6s1.5-.7 1.4-1c0-.3-.3-.5-.3-.5s.9-.7 1-1c0 0 .7-.5.4-.7-.2-.2-1.3.5-1.3.5s-3.7 1.9-4.1 1.9c0 0 1.2-2.2 1.3-2.3.1-.1-.2-.1-.5.2-.3.4-3.5 2.5-5.3 3.4-1.8.9-4.7 2.6-4.7 2.6s0-.6 0-1.3c-.1-.6-.3-1.4-.5-1.9.3-.5.5-1.6.4-2.3 0-.1-.2-.2-.2-.1-.5.5-.9.8-1.4 1-.3-.2-.7-.3-1.1-.2-1.3-.1-2.1.6-2.6 1.3-.2.3-.6.7-1 3.2s-.5 2.7-.7 3c-.2.3-.9 1.7-.9 1.7s-2.2 4.1-2 7.6c0 0 0 1.6.1 1.7.1.1.2.1.2.1s.2.7.3.8c.1.1.5 1.1.5 1.1l.7 1.4s.6 1.6.7 1.6c0 .1.2.3.2.3s.2.8.2 1c0 .2-.1.7.2 1.4.3.9.3 1.4.3 1.4zm3.6-25.7c-.1-.2-.1-.4.1-.6.2-.1.4-.1.6.1.1.2.1.4-.1.6s-.5 0-.6-.1z" class="st32"/><path id="XMLID_276_" d="M825.2 220s.6 0 1.7-.4 1.9-1.5 1.9-1.5 0 0-.1.3-.5 1.1-.5 1.1.4.1.9-.1.7-.6.7-.6.3.1.7.1c.5 0 .5-.4.5-.4s.2 0 .7 0c.4 0 .6-.5.6-.5s.2 0 .7-.2c.6-.2.8-1.1.8-1.1s.4-.1.8-.5.5-1.1.5-1.1.9-.3 1.2-.7.3-.8.3-.8.6-.2 1.5-.6 1.7-1.5 1.7-1.5.2-.1.5-.2 2.2-.4 3.4-.4c1.2.1 3.5 0 3.5 0s-.8-1.4-.9-1.9c.5-.8.7-2 .7-2s-1.5.6-3.6 1.5c-2 .9-3.2 1.1-3.2 1.1-.4-.3-1.1-.2-1.5-.4-.8-.4.5-.9-.1-1.3.2 0 .4-.1.5-.3.1-.3-.1-.6-.4-.7.2-.1.5-.3.5-.6s-.1-.5-.4-.5c.6-.3.7-.8.1-1.2.2-.2.5-.3.4-.7-.1-.2-.2-.4-.4-.4.1-.3.3-.5.2-.8-.1-.2-.2-.4-.4-.5-.1-.1-.3-.1-.3-.2s.1-.1.1-.2c.1-.2.2-.3.2-.6 0-.5-.3-.4-.6-.6.1-.3.3-.7.1-.9-.2-.3-.4-.1-.7-.1.4-.9 0-1.6-.9-2 .2-.7-.2-.9-.8-.9.2-.6 0-1.7-.8-1.1.1-.6-.6-1.2-1.2-1.2 0 .2.2 1.1-.2 1.1-.2 0-.5-1.3-.6-1.6-.1-.3-.7-1.2-1-.6-.2.4.1.9-.4 1.3-.2-.5-.5-1-.9-1.3-.2-.2-.9-.8-1-.4-.1.2.1.5.1.7.1.3.1.7.1 1 0 .3.2 1.4-.1 1.5-.5-.8-.2-3-1.6-3.1.5 1.4.8 2.9.9 4.4.1.7.1 1.5.1 2.2 0 .5-.2 1-.2 1.5 0 .7.3 1.2.6 1.7.4.6.8 1.3 1.2 2 .6 1.1 1.2 2.4.4 3.4-.3.3-.8.6-1.3.9s-1.2.7-1.8 1.5c-.6.8-.1 1.7-.1 1.7l-.6 1.1 1-.2s.2.1.4.1 1.3.2 1.3.2-.3.9-1.4 2.7c-1.1 2.1-3.5 3.8-3.5 3.8zm4-7.9c0 .1 0 .3-.2.3-.1 0-.3 0-.3-.2 0-.1 0-.3.2-.3.1 0 .2.1.3.2z" class="st32"/><path id="XMLID_273_" d="M861.2 238.9s.7-.3 1.1-1c.4-.1 1.8-.9 2.4-1.4.9-.8 1.8-2.4 2.1-3.2.1-.2.2-.6.4-.9.4-.6.6-1.6.9-2.2.1-.2 1.7-5.6 1.7-5.6s-.9.7-1.4 1.3c-.2-.5-.8-1.6-.8-1.6s-.1 5.3-.6 5.4c-.3 0 .1-.9-.5-.9.1-.1.3-.3.2-.5-.1-.3-.4-.4-.6-.3.1-.2.2-.5.1-.7-.1-.2-.4-.3-.6-.2.3-.6.1-1-.6-.9 0-.3.2-.5-.1-.7-.1-.1-.4-.1-.5-.1-.1-.3 0-.5-.3-.7-.1-.1-.4-.2-.5-.2-.1 0-.2.1-.3 0-.1-.1 0-.2 0-.2 0-.2-.1-.3-.2-.5-.3-.3-.5-.1-.8-.1 0-.3-.2-.6-.4-.7-.3-.1-.3.1-.5.3-.2-.9-.9-1.2-1.7-1-.2-.6-.6-.5-1.1-.2-.2-.5-.9-1.2-1.2-.4-.3-.5-1.1-.6-1.5-.2.1.2.7.8.4.9-.2.1-1.1-.7-1.3-.8-.2-.1-1.1-.5-1 0 .1.4.6.6.4 1.1-.4-.2-.8-.5-1.3-.5-.2 0-1-.1-.9.3.1.2.4.3.5.4.2.2.4.5.6.7.1.2.9.9.7 1.1-.8-.3-1.8-2.1-2.8-1.4 1.1.8 2.1 1.7 3 2.8.4.5.9 1 1.3 1.6.3.4.4.9.7 1.2.4.5.8.7 1.4.9.6.2 1.3.5 1.9.8 1 .5 2.2 1.2 2.1 2.3 0 .4-.2.9-.5 1.4s-.5 1.2-.5 2c0 .9.9 1.3.9 1.3l-.3 1.3zm.5-2.1c.1.1.1.2 0 .3-.1.1-.2.1-.3 0s-.1-.2 0-.3.2 0 .3 0z" class="st32"/><path id="XMLID_272_" d="M816.5 252.8c-.6-.7-1.2-1.5-1.8-2.3-.7-.9-1-2-1.4-3.1-.4-.7-.7-1.8-.7-2.6 0-1-.2-2-.3-3-.1-.5-.4-1.3-.1-1.8 0 0 0 0 .1 0 0-.1.1-.1.1 0 0 0 .1 0 .1.1v.1c0 .1.1.1.1.2.6 1.5 1.4 2.9 2 4.3-.2-1.1-.6-2.1-.7-3.2.4 1 1.2 2.4 1.6 3.8.1.3.1.5.2.8-.1-.6-.2-1.2-.3-1.8 0 0 .1-.1.1 0 .6 1 .9 2.1 1.3 3.1 0-.2 0-.4 0-.7 0 0 .1-.1.1 0 .5 1 .9 2 1.3 3 .1.3.2.6.3.9-.1-.6-.3-1.5-.1-1.6 0 0-.1 0 0 0 0 0 0 0 0-.1 0 0 .1-.1.1 0 .6 1.3 1.4 2.8 2 4.3 0-.4 0-1-.1-1.3 0 0 0-.1 0 0 .6.4.9 1.8 1.1 2.4.1.3.2.6.3.9.1-.3.1-.5.3-.8 0-.1.1-.1.1 0 .2 1.1.5 2.2.7 3.3 0 .1.1.3.1.5.3 0 .6-.1.9 0 .3.1.6.1.9.2.2-.1.5-.3.7-.5.9-.7 1.7-1.5 2.6-2.3 1.5-1.3 3.5-2.3 5.3-3 2.3-.8 4.7-1.2 7.1-1.5 1.1-.1 2-.4 3-.7 1.4-.4 2.1-1.8 3.5-2.1-1.1.7-1.9 1.7-3 2.3-.7.5-1.7.8-2.6.9-.1 0-.2 0-.3 0 1.5-.1 2.8-.6 4.2-1.1 0 0 .1 0 0 .1-1 .9-2.2 1.5-3.5 1.7.1 0 .1.1.2.1 0 0 0 0 0 .1-1.2.5-1.9 1.1-3.3 1-.3 0-.6 0-1 0 .5.2.9.5 1.4.8.1.1-.1.3-.1.1.1.8-2.3.4-2.6.3-.1 0-.3-.1-.4-.1.3.1.5.3.6.6 0 0 0 .1-.1.1-.8.3-1.9.3-2.8.2-.3 0-.5 0-.7 0 .6.3 1.3.7 1.3 1.1 0 0 0 0-.1 0-.8-.3-2.1-.2-2.9.2.5.1 1 .4 1.1.8 0 .1 0 .1-.1.1-.8-.2-2.3.4-3.2 1 .2 0 .5 0 .7 0 .1 0 .1.1 0 .1-.3.2-.5.3-.8.4-.4.2-.7.5-.9.8-.1.1-.1.2-.2.2.6.5 1.2.9 2 1 1.3.2 2.6.1 3.8.1.2 0 .3.2.1.3-.6.4-1.3.3-2 .3.5.1 1 .2 1.5.4-1.1-.2-2.2-.2-3.3-.3.5.2 1 .4 1.5.6.1 0 .1.2 0 .2-.7.3-1.7 0-2.6-.3 0 .1-.1.1-.1.2.1 0 .1.1.2.1.3.1.8.2 1.1.4.1 0 0 .1-.1.1-.7 0-1.4 0-2.1-.1-.3.1-.5.1-.8.1-.2.1-.4.2-.6.2.2.1.4.3.6.4.2.1.5.4.7.5.3.1.2.4-.1.4-.2 0-.6-.1-.8-.2-.6-.3-1.2-.5-1.6-.9 0 0 0 0-.1 0-.9-.1-1.8-.2-2.6-.6-.8-.3-1.4-.6-2.1-1-.1-.1-.2-.1-.4-.2-.6 0-1.3-.2-1.5-.7-.2-.1-.4-.1-.6-.2-.1 0-.2 0-.2-.1-.1 0-.1 0-.2 0s-.1-.1-.1-.2c0-.3.6-.5.9-.6 0 0 .1 0 .1 0 .1-.6.4-1.1 1.1-1.3.1 0 .2-.1.3-.1.1 0 .3-.1.5-.1 0-.2-.1-.3-.1-.5-.4-1.3-.9-2.4-1.6-3.5-.7-.4-1.6-1-2.2-1.7z" class="st33"/><path id="XMLID_271_" d="M929.6 244.8c-.7-.5-1.5-.8-2.3-1.2-.8-.5-1.6-1.3-2.2-2-.7-.7-1.3-1.5-2-2.2-.5-.5-1.2-1.2-1.8-1.5-1.6-.8-3.5-1.1-5.2-1.1-.2 0-.5 0-.7 0-.5-.4-1.1-.8-1.4-.9-.6-.3-1.4-.5-2-.4-.2-.2-.5-.5-.7-.7-.5-.6-1.2-1-1.8-1.6-.6-.6-1.3-1.3-2.1-1.7-1.6-.8-2.7-1.2-4.6-1.3-1 0-2-.2-3-.4-1.2-.3-2.6-.3-3.6-1 .1.2.3.4.5.5.8.8 1.8 1.4 2.8 2.1 1.5 1 3 2.1 4.6 3 1.3.8 2.9 1.5 4.3 2 .3.1.6.2.9.2 0 .1 0 .1 0 .2 0 0-.1 0-.1.1-.3.2-.6.4-1 .6-.1.1-.2.3 0 .3.1 0 .2 0 .4 0 .1 0 .2 0 .3 0 .1 0 .1.1.2.1s.2 0 .3 0c.1 0 .1 0 .2.1.1 0 .1 0 .2 0 .4.4.9.6 1.4.7.3.8.9 1.8.2 2.5-.6.5-1.5.9-1.7 1.7-.1.1-.1.1-.1.2s.1.1.1.1.1 0 .1 0c.1-.1.2-.2.4-.3.5-.3.1.2.1.6 0 .1.1.2.3.2.1 0 .1-.1.2-.1-.1.2-.2.4-.2.7 0 .2.2.2.3.1.2-.1.3-.2.5-.4-.1.2-.2.5-.2.7 0 .1.2.2.3.1.1-.1.4-.3.5-.5.1-.2.2-.5.2-.2-.1.4-.2 1-.1 1.4 0 .1.2.2.3.1.4-.2.8-.9.8-1.3 0 .6-.3 1.2-.1 1.8.1.1.2.2.4.1.2-.2.3-.3.5-.5 0 .3.1.5.3.7.1.1.2.1.3 0 .2-.2.3-.4.4-.6.1.5.2.9.7.7.3-.1.4-.7.4-1 0 0 0 .5.1.7 0 .1.1.2.2.4 0 .1.1.1.2.1.3 0 .4-.3.5-.7.1.3.3.5.5.7.1.1.3.1.3 0 .1-.2.1-.3 0-.5-.7-1.3.1 0 .5.2.5.2.4-.2.4-.6.2.1.3.2.5.3.1.1.3-.1.2-.2 0 0 0-.1-.1-.1.1.1.1.1.2.2s.3 0 .3-.1c.1.1.2.2.3.3.1.1.1 0 .1-.1-.3-.9-.7-1.8-1.4-2.4-.5-.5-1-.9-1.6-1.3-.4-.3-.7-.7-.7-1.2 0 .1 0-.4 0-.7.4.3.9.6 1.4.9 1.2.6 2.5.6 3.8.7.3 0 .6-.1 1 0 .8.4 1.4 1.1 2.2 1.5.6.4 1.1.7 1.8.9.5.1 1.3.1 2 .2.1 0 .5.1.8.1 0 .1.1 0 0 0z" class="st33"/><path d="M286.24 509.9l278.77-4 .36 24.4-278.77 4z" class="st34"/><path d="M564.93 505.92l.18 12.5-278.76 4-.18-12.5z" class="st35"/><circle cx="530" cy="533.9" r="18.2" class="st36"/><circle cx="530" cy="533.9" r="10.9" class="st1"/><circle cx="530" cy="533.9" r="6.8" class="st36"/><circle cx="370.6" cy="536.2" r="18.2" class="st36"/><circle cx="370.6" cy="536.2" r="10.9" class="st1"/><circle cx="370.6" cy="536.2" r="6.8" class="st36"/><circle cx="325.6" cy="536.8" r="18.2" class="st36"/><circle cx="325.6" cy="536.8" r="10.9" class="st1"/><circle cx="325.6" cy="536.8" r="6.8" class="st36"/><path d="M584.2 479.5l.8 53.9-31.4.5-.2-10.5c-.1-9.5-8-17.1-17.5-17l-34.5.5-.9-59.8 71.2-1 12.5 33.4z" class="st37"/><path d="M529.47 446.62l1.5-.03.86 59.8h-1.5z" class="st38"/><path d="M505.63 480.36l-.4-27.6 20.3-.3.4 27.6zM538.3 452.3l.4 27.6 36.3-.5-8.1-27.5z" class="st39"/><path d="M571.7 446.1l-71.2 1-.1-7.6 62-.9c3.8-.1 7.3 2.3 8.6 5.9l.7 1.6z" class="st38"/><path d="M290.32 427.48L496 424.53l1.18 82.4-205.68 2.94z" class="st40"/><path d="M491.5 429.18l1.04 73.2-4.8.06-1.05-73.2zM480.8 429.3l1.04 73.18-4.8.07-1.04-73.2zM470.2 429.5l1.05 73.18-4.8.07-1.05-73.2zM459.5 429.6l1.05 73.18-4.8.07-1.05-73.2zM448.9 429.8l1.05 73.2-4.8.05-1.05-73.2zM438.2 429.9l1.05 73.2-4.8.06-1.05-73.2zM427.5 430.1l1.06 73.2-4.8.06-1.05-73.2zM416.9 430.2l1.06 73.2-4.8.06-1.05-73.2zM406.2 430.4l1.06 73.2-4.8.07-1.05-73.2zM395.6 430.5l1.06 73.2-4.8.07-1.05-73.2zM384.92 430.7l1.04 73.2-4.8.07-1.04-73.2zM374.32 430.8l1.05 73.2-4.8.07-1.05-73.2zM363.62 431.02l1.05 73.2-4.8.06-1.05-73.2zM353.02 431.12l1.05 73.2-4.8.06-1.05-73.2zM342.33 431.32l1.04 73.2-4.8.06-1.04-73.2zM331.73 431.42l1.05 73.2-4.8.06-1.05-73.2zM321.03 431.63l1.05 73.2-4.8.06-1.05-73.2zM310.43 431.73l1.05 73.2-4.8.06-1.05-73.2zM299.74 431.93l1.04 73.2-4.8.06-1.04-73.2z" class="st41"/><path d="M559.5 485.9l-11 .2c-.7 0-1.2.6-1.2 1.3v1.9c0 .7.6 1.2 1.3 1.2l11-.2c.7 0 1.2-.6 1.2-1.3v-1.9c-.1-.7-.7-1.2-1.3-1.2z" class="st39"/><path d="M585.5 516.3l-26.3.4.3 20.3 18.7-.3c5.3-.1 9.5-4.4 9.4-9.7l-.1-8.7c0-1.1-.9-2-2-2zM454.03 511.26l50.3-.72.34 23.7-50.3.72z" class="st34"/><path d="M454.35 527.76l50.3-.72.1 7.1-50.3.72z" class="st35"/><path d="M454.05 511.26l50.3-.72.1 7.1-50.3.72z" class="st42"/><path d="M459.9 511.1l.1 7.2.2 9.4.1 7.2 4-.1-.1-7.1-.1-9.5-.1-7.1zM490.5 510.7l.1 7.1.1 9.5.1 7.1h4.1l-.1-7.2-.1-9.4-.1-7.2z" class="st36"/><path d="M584.4 493.8l.2 17.1-6.8.1c-2.6 0-4.8-2.1-4.8-4.7l-.2-12.3 11.6-.2z" class="st41"/><path id="XMLID_270_" d="M452.3 219.7c-.1-8.7-7.1-15.8-15.8-16.1 0-.6.1-1.1.1-1.7-.1-9-7.5-16.2-16.5-16.1-4.5.1-8.5 1.9-11.4 4.9-3-2.9-7.1-4.6-11.5-4.6-9 .1-16.2 7.5-16.1 16.5 0 .6 0 1.1.1 1.7-.3 0-.6 0-.9 0-9 .1-16.2 7.5-16.1 16.5l88.1-1.1z" class="st43"/><path id="XMLID_269_" d="M517.7 193.1c-.1-4.5-3.7-8.1-8.2-8.3 0-.3 0-.6 0-.9-.1-4.7-3.9-8.3-8.6-8.3-2.3 0-4.4 1-5.9 2.6-1.6-1.5-3.7-2.4-6-2.3-4.7.1-8.3 3.9-8.3 8.6 0 .3 0 .6.1.9-.2 0-.3 0-.5 0-4.7.1-8.3 3.9-8.3 8.6l45.7-.9z" class="st43"/><path id="XMLID_268_" d="M347.4 188.3c-.1-2.8-2.3-5.1-5.1-5.1 0-.2 0-.4 0-.5-.1-2.9-2.4-5.2-5.3-5.1-1.4 0-2.7.6-3.7 1.6-1-.9-2.3-1.5-3.7-1.4-2.9.1-5.2 2.4-5.1 5.3 0 .2 0 .4 0 .5-.1 0-.2 0-.3 0-2.9.1-5.2 2.4-5.1 5.3l28.3-.6z" class="st43"/><path d="M103.28 553.72l506.5-3.4.05 6.9-506.5 3.4z"/><path d="M524.4 735.9c0-6.9 59.8-12.5 125.7-12.5s113.1 5.6 113.1 12.5-47.1 12.5-113.1 12.5c-65.9 0-125.7-5.6-125.7-12.5z" class="st44"/><linearGradient id="XMLID_17_" x1="76.975" x2="-87.15" y1="209.691" y2="271.786" gradientUnits="userSpaceOnUse" gradientTransform="matrix(.476 .879 -.879 .476 384.344 56.596)"><stop offset="0" stop-color="#474747"/><stop offset=".064" stop-color="#4B4B4B"/><stop offset=".129" stop-color="#575757"/><stop offset=".195" stop-color="#6C6C6C"/><stop offset=".261" stop-color="#888"/><stop offset=".31" stop-color="#A3A3A3"/><stop offset=".397" stop-color="#AFAFAF"/><stop offset=".554" stop-color="#CFCFCF"/><stop offset=".659" stop-color="#E8E8E8"/></linearGradient><path id="XMLID_6_" d="M151.8 164.3c3 5.2 9.5 7.1 14.8 4.4.1 2.3.7 4.6 1.9 6.7 2 3.4 5.2 5.7 8.7 6.7-1.4 3.8-1.1 8.1 1 11.9 3.9 6.8 12.5 9.1 19.3 5.3.6-.3 1.1-.7 1.6-1.1 1.5 6.6 7.4 11.2 14 11.1 1.8 6.6 8.3 10.9 15.2 9.7 1.8-.3 3.5-.9 4.9-1.8.2.3.5.7.8 1-3.3 2.3-5.5 6-5.9 10.3-.7 7.8 5.1 14.6 12.9 15.3.7.1 1.3.1 2 0-2.6 6.3-.3 13.4 5.2 17.1-2.3 6.4.6 13.7 6.9 16.6 6.7 3.2 14.7.3 17.9-6.4 2.7-5.8 1-12.5-3.9-16.3.4-1 .8-2.1 1-3.1 2-1.2 3.6-3 4.7-5.3 2.6-5.6.8-12.2-4.1-15.7 2.9-2.3 4.9-5.8 5.2-9.8.7-7.8-5.1-14.6-12.9-15.3-1.3-.1-2.6 0-3.8.2 1.1-1.7 1.9-3.7 2.1-6 .6-7-4.6-13.1-11.6-13.7-1.6-.1-3.2 0-4.7.5-1.4-4.1-5.1-7.3-9.7-7.7-3.3-.3-6.4.9-8.6 3-1.2-5.9-6.3-10.1-12.2-10.2 1.1-3.6.7-7.5-1.3-11-3.9-6.8-12.5-9.1-19.3-5.3-1.1.6-2.1 1.4-3 2.3 0-2.1-.6-4.2-1.7-6.1-3.5-6.1-11.2-8.2-17.3-4.7-1.4.8-2.6 1.8-3.6 3-3.5-2.6-8.3-3.1-12.3-.8 0 0-5.6-13.4-27.6 5.4 0 0-15.7 2.8-4.7 19l8.2 12.7s10.1-9.2 2.7-16.3c-.1-.1 8.1 11.1 17.2-5.6z" class="st45"/><linearGradient id="XMLID_18_" x1="125.308" x2="249.224" y1="534.434" y2="534.434" gradientUnits="userSpaceOnUse" gradientTransform="matrix(1 .008 -.008 1 4.066 -2.976)"><stop offset="0" stop-color="#58595B"/><stop offset=".517" stop-color="#414042"/><stop offset="1" stop-color="#231F20"/></linearGradient><path id="XMLID_217_" d="M124.9 552.2c.1 1 2.3 7.7 2.9 8.5l47.4-4.1 34.7 3.4 33.3 7.7c2.2-1.4 5-8.5 5.5-11.2.8-5-2.6-9.6-7.6-10.4-.1-.1-.1-.3-.2-.4.9-.8 1.5-1.8 1.7-3.1.4-2.9-1.5-5.6-4.4-6-1.4-.2-2.7.1-3.7.8-.1-.1-.3-.2-.4-.4.6-5.3-4.5-11.6-12.4-14.7-3.3-1.3-6.5-1.8-9.5-1.7-.4-5.5-4.5-10.3-10.2-11.2-4.1-.6-8 .9-10.7 3.7-3.4 0-6.5 1.4-8.6 3.7.3-1.2.5-2.4.4-3.7-.3-3.8-2.5-6.9-5.4-8.3l2.7-6.5-6.5 2.4-7.3.1 4.4 3.8c-2.2 1-4 2.9-4.9 5.3-.6 0-1.2.1-1.8.2-9.2 1.2-16 7.4-15.2 13.8 0 .4.1.7.2 1.1-1.6-.8-3.4-1.1-5.3-.9-5 .6-8.6 5-8 9.8.1.7.3 1.4.6 2.1-.5-.1-1-.1-1.6 0-3.5.6-10.5 13.1-10.1 16.2zm77.9-8.1l.2-.5c.1-.2.2-.3.3-.5.1-.2.2-.3.3-.5l.4-.4c.1-.1.3-.2.4-.4.2-.1.3-.2.5-.3.4-.1.7-.3 1.1-.4l.6-.1H207.5c.2 0 .2 0 .3.1l.5.1c.1 0 .2.1.4.1.1-.3.1-.5.2-.8.2-.5.5-.9.7-1.4.3-.4.6-.9 1-1.2.4-.3.8-.7 1.2-1 .5-.3.9-.6 1.4-.8.5-.2 1-.4 1.5-.5.5 0 1.1-.2 1.6-.1.6.1 1 0 1.6.2.5.2.9.2 1.4.5.5.3 1 .5 1.5.8.4.3.8.7 1.2 1 .3.4.7.8 1 1.2.2.5.5.9.7 1.4.1.5.3 1 .4 1.5 0 .5.1 1 .1 1.5-.1.5-.2 1-.2 1.5 0-.5-.1-1-.1-1.5-.1-.5-.2-.9-.3-1.4-.2-.4-.4-.9-.6-1.3-.2-.4-.5-.8-.8-1.1-.3-.3-.6-.6-.9-1-.3-.3-.7-.5-1.1-.8-.4-.2-.8-.4-1.1-.5-.4-.2-.9-.2-1.4-.4-.3-.1-.8 0-1.3-.1-.4 0-.9.1-1.3.1s-.8.3-1.2.4c-.4.1-.8.4-1.2.6-.4.2-.7.5-1 .8l-.9 1-.7 1.1c-.1.4-.3.8-.5 1.2l-.3.8-.7-.4-.4-.2c-.1-.1-.2-.2-.4-.2l-.5-.2c-.1 0-.2-.1-.2-.1h-.2l-.5-.1h-.5c-.3 0-.6.1-.9.2-.3.1-.6.2-.9.4l-.1.6c-.1.1-.2.2-.4.3-.1.1-.3.2-.3.4l-.3.4c-.2.3-.3.7-.4 1 .1-.3.1-.6.2-1zm-.2-21.5c-.5-2.9-2.2-5.6-4.8-7.3 1.4-1.1 3-1.7 4.6-1.5 3 .5 5.1 3.6 5.5 7.5-1.4.4-2.6.9-3.6 1.7-.5-.1-1.1-.2-1.7-.4zm-55.4 14.3c0-.2.1-.4.1-.7.1-.3.2-.6.4-.8.2-.3.4-.6.7-.9.3-.3.6-.5 1-.7.4-.2.8-.4 1.3-.4.6-.1.8 0 1.4 0 .5.1.9.2 1.3.5.1 0 .1.1.2.1v-.2c0-.4.3-.8.4-1.2.1-.4.4-.8.6-1.2.2-.4.5-.8.8-1.1.3-.3.6-.7 1-.9.4-.2.7-.5 1.2-.7l1.3-.5c.4-.1.9-.2 1.4-.3.5-.1.9 0 1.4 0 .3 0 .4 0 .7.1l.6.1c.4.1.9.3 1.3.4.4.2.8.4 1.2.7.4.3.8.5 1.1.9.3.3.7.7.9 1.1.3.4.5.8.7 1.2.1.2.2.4.3.6.3-.1.6-.2.9-.2.6 0 1.1 0 1.7 0 .4.1.5.1.8.2.2.1.5.1.7.3l.8.4c.2.1.4.3.6.5.4.3.7.8 1.1 1.2.1.2.3.5.4.7.1.2.2.5.3.7l.2.8v.8c.1.5-.1 1-.2 1.5-.1-.5 0-1-.2-1.5l-.2-.7-.3-.7c-.1-.2-.2-.4-.4-.6l-.4-.6c-.4-.3-.6-.7-1-.9-.4-.3-.8-.5-1.2-.6-.2-.1-.4-.1-.7-.2-.2 0-.6-.1-.7-.1-.4 0-.9 0-1.3 0-.4.1-.8.2-1.3.4l-.6.3-.4-.7c-.2-.3-.3-.7-.5-1-.2-.3-.4-.7-.6-1-.2-.3-.5-.6-.8-.8-.3-.3-.6-.5-.9-.7-.3-.2-.7-.4-1-.6-.4-.1-.6-.3-1.1-.4l-.6-.2c-.1 0-.4 0-.5-.1-.4 0-.8-.1-1.1-.1l-1.2.1-1.1.3c-.4.1-.7.4-1.1.5-.4.1-.6.4-1 .7-.3.2-.6.5-.9.8-.3.3-.6.6-.7.9-.2.4-.5.7-.6 1.1l-.1.2c.2.2.5.4.7.5.3.3.6.6.7 1 .2.3.3.7.4 1 .1.3.1.6.1.9 0 .3 0 .5-.1.7-.1.4-.1.6-.1.6s0-.2-.1-.6c0-.2-.1-.4-.1-.6-.1-.2-.2-.5-.3-.7-.1-.3-.3-.5-.5-.8-.2-.3-.5-.5-.7-.7-.3-.2-.6-.4-.9-.5-.3-.2-.7-.2-1-.3-.3 0-.9-.1-1.1 0-.3 0-.7.1-1 .2-.3.2-.6.3-.9.5-.3.2-.5.4-.7.6-.2.2-.4.4-.5.6-.2.2-.3.4-.3.6-.2.3-.3.5-.3.5s.6 0 .6-.3z" class="st46"/><linearGradient id="XMLID_30_" x1="362.557" x2="386.544" y1="1285.279" y2="1285.279" gradientUnits="userSpaceOnUse" gradientTransform="matrix(-.253 .968 .968 .253 -907.714 -171.656)"><stop offset="0" stop-color="#58595B"/><stop offset=".517" stop-color="#414042"/><stop offset="1" stop-color="#231F20"/></linearGradient><path id="XMLID_216_" d="M242.1 524.9c-.5.6-1 1-1.6 1.3-.3.1-.5.3-.8.4-.3.1-.5.2-.7.2-.4.1-.8.1-1 .2-.2 0-.4 0-.4 0s.1-.1.3-.2c.2-.1.5-.2.8-.5.2-.1.3-.2.5-.4.2-.1.3-.3.5-.5.4-.4.7-.8.9-1.3.2-.5.4-1.1.4-1.8.1-.6 0-1.4 0-2.1-.2-1.5-.5-3.1-.9-4.8-.3-1.7-.8-3.3-.9-5-.1-.8-.1-1.6 0-2.4.1-.8.3-1.5.6-2.2.4-.6.8-1.2 1.4-1.5.5-.3 1.1-.5 1.6-.6.5-.1.8-.1 1-.1.2 0 .4 0 .4 0s-.1 0-.3.1c-.2.1-.6.2-.9.4-.4.2-.7.4-1.1.8-.4.3-.5.8-.7 1.3-.1.5-.1 1.2-.1 1.8.1.7.2 1.4.4 2.2.2.8.4 1.5.6 2.4.2.8.4 1.7.6 2.5.2.8.3 1.7.5 2.5.1.9.2 1.7.2 2.5s-.1 1.6-.3 2.4c-.2 1.1-.6 1.8-1 2.4z" class="st47"/><linearGradient id="XMLID_33_" x1="368.9" x2="392.887" y1="1194.741" y2="1194.741" gradientUnits="userSpaceOnUse" gradientTransform="matrix(-.253 .968 .968 .253 -907.714 -171.656)"><stop offset="0" stop-color="#58595B"/><stop offset=".517" stop-color="#414042"/><stop offset="1" stop-color="#231F20"/></linearGradient><path id="XMLID_215_" d="M151.1 498.9c-.3-1.7-.8-3.3-.9-5-.1-.8-.1-1.6 0-2.4.1-.8.3-1.5.6-2.2.4-.6.8-1.2 1.4-1.5.5-.3 1.1-.5 1.6-.6.5-.1.8-.1 1-.1.2 0 .4 0 .4 0s-.1 0-.3.1c-.2.1-.6.2-.9.4-.4.2-.8.4-1.1.8-.4.3-.5.8-.7 1.3-.1.5-.1 1.2-.1 1.8.1.7.2 1.4.4 2.2.1.8.4 1.5.6 2.4.2.8.4 1.7.6 2.5.2.8.3 1.7.5 2.6.1.9.2 1.7.2 2.5s-.1 1.7-.3 2.4c-.2.8-.6 1.5-1 2-.5.6-1 1-1.6 1.3-.3.1-.5.3-.8.4-.3.1-.5.2-.7.2-.4.1-.8.1-1 .2-.2 0-.4 0-.4 0s.1-.1.3-.2c.2-.1.5-.2.8-.5.2-.1.3-.2.5-.4.2-.1.4-.3.5-.5.4-.4.7-.8.9-1.3.2-.5.4-1.1.4-1.8.1-.6 0-1.4 0-2.1-.1-1.3-.5-2.9-.9-4.5z" class="st48"/><linearGradient id="XMLID_34_" x1="346.539" x2="370.526" y1="1227.876" y2="1227.876" gradientUnits="userSpaceOnUse" gradientTransform="matrix(-.253 .968 .968 .253 -907.714 -171.656)"><stop offset="0" stop-color="#58595B"/><stop offset=".517" stop-color="#414042"/><stop offset="1" stop-color="#231F20"/></linearGradient><path id="XMLID_214_" d="M190.6 494.9c-.5.6-1 1-1.6 1.3-.3.1-.5.3-.8.4-.3.1-.5.2-.7.2-.4.1-.8.1-1 .2-.2 0-.4 0-.4 0s.1-.1.3-.2c.2-.1.5-.2.8-.5.2-.1.3-.2.5-.4.2-.1.3-.3.5-.5.4-.4.7-.8.9-1.3.2-.5.4-1.1.4-1.8.1-.6 0-1.4 0-2.1-.2-1.5-.5-3.1-.9-4.8-.3-1.7-.8-3.3-.9-5-.1-.8-.1-1.6 0-2.4.1-.8.3-1.5.6-2.2.4-.6.8-1.2 1.4-1.5.5-.3 1.1-.5 1.6-.6.5-.1.8-.1 1-.1.2 0 .4 0 .4 0s-.1 0-.3.1c-.2.1-.6.2-.9.4-.4.2-.7.4-1.1.8-.4.3-.5.8-.7 1.3-.1.5-.1 1.2-.1 1.8.1.7.2 1.4.4 2.2.2.8.4 1.5.6 2.4.2.8.4 1.7.6 2.5.2.8.3 1.7.5 2.6.1.9.2 1.7.2 2.5s-.1 1.6-.3 2.4c-.1 1-.6 1.7-1 2.3z" class="st49"/><linearGradient id="XMLID_41_" x1="350.018" x2="374.005" y1="1258.052" y2="1258.052" gradientUnits="userSpaceOnUse" gradientTransform="matrix(-.253 .968 .968 .253 -907.714 -171.656)"><stop offset="0" stop-color="#58595B"/><stop offset=".517" stop-color="#414042"/><stop offset="1" stop-color="#231F20"/></linearGradient><path id="XMLID_213_" d="M217.2 496.6c-.3-1.7-.8-3.3-.9-5-.1-.8-.1-1.6 0-2.4.1-.8.3-1.5.6-2.2.4-.6.8-1.2 1.4-1.5.5-.3 1.1-.5 1.6-.6.5-.1.8-.1 1-.1.2 0 .4 0 .4 0s-.1 0-.3.1c-.2.1-.6.2-.9.4-.4.2-.7.4-1.1.8-.4.3-.5.8-.7 1.3-.1.5-.1 1.2-.1 1.8.1.7.2 1.4.4 2.2.2.8.4 1.5.6 2.4.2.8.4 1.7.6 2.5.2.8.3 1.7.5 2.6.1.9.2 1.7.2 2.5s-.1 1.6-.3 2.4c-.2.8-.6 1.5-1 2-.5.6-1 1-1.6 1.3-.3.1-.5.3-.8.4-.3.1-.5.2-.7.2-.4.1-.8.1-1 .2-.2 0-.4 0-.4 0s.1-.1.3-.2c.2-.1.5-.2.8-.5.2-.1.3-.2.5-.4.2-.1.4-.3.5-.5.4-.4.7-.8.9-1.3.2-.5.4-1.1.4-1.8.1-.6 0-1.4 0-2.1-.2-1.2-.5-2.9-.9-4.5z" class="st50"/><path id="XMLID_209_" d="M186.7 546.2l2 1.5 2 1.5c.3.3.8.2 1.1-.1 1.3-1.6 4.8-6.2 6.3-8.2 1.9-2.5 5.5-11 5.5-11l.3.2c.2.1.4.1.5-.1l.3-.4c.1-.2.1-.4-.1-.5l-1-.8-1-.8c-.2-.1-.4-.1-.5.1l-.3.4c-.1.2-.1.4.1.5l.3.2s-7.4 5.6-9.3 8c-1.6 2-5.1 6.5-6.3 8.2-.4.6-.3 1.1.1 1.3zm15.8-17s-.1.1-.3.3c-.2.2-.5.5-.9.8-.4.3-.8.7-1.3 1.2-.5.4-1 .9-1.5 1.3s-1 .9-1.5 1.3c-.2.2-.5.4-.7.6-.2.2-.4.4-.6.5-.2.2-.4.3-.5.5-.2.1-.3.3-.4.4-.2.2-.3.3-.3.3s.1-.1.3-.4c.2-.2.4-.6.8-.9.4-.4.8-.8 1.2-1.2.5-.4 1-.9 1.5-1.3s1-.9 1.5-1.3 1-.8 1.4-1.1c.4-.3.7-.6 1-.7.1-.2.3-.3.3-.3zm-13.9 15.7l5.4-7 2.9 2.2-5.4 7-2.9-2.2z" class="st1"/><path id="XMLID_123_" d="M134.1 541.1c0 1.1.9 1.7.9 2.3 0 .6-.8 1.3-.7 3.8.1 2.1.2 5.9.2 6.9 0 .2.1.4.3.5.3.2 1 .5 2.3.5 1.3 0 2-.4 2.3-.6.2-.1.2-.3.2-.5 0-1-.2-4.8-.2-6.9-.1-2.4-.9-3.2-.9-3.7 0-.6.8-1.2.7-2.3 0-1-.4-3.7-2-4.3v-.3h.5l-.1-1.7-2.3.1.1 1.7h.5v.3c-1.6.5-1.8 3.2-1.8 4.2zm.5 5.4l4.4-.2.2 4.9-4.4.2-.2-4.9zm.1-7.6c.1-.2.1-.3.2-.5s.1-.3.2-.5.2-.3.3-.4c.1-.1.2-.2.3-.3.1-.1.1-.1.2-.1v.2s0 0-.1.1-.2.2-.2.3c-.1.1-.2.2-.2.4-.1.1-.1.3-.2.4-.1.2-.1.3-.2.5-.1.3-.2.7-.2 1-.1.3-.1.6-.1.9 0 .3-.1.5-.1.6 0 .2 0 .2 0 .2s-.1-.3-.1-.9c0-.1 0-.3 0-.4 0-.1 0-.3 0-.5 0-.3.1-.7.2-1z" class="st1"/><g id="XMLID_4_"><path id="XMLID_122_" d="M179.1 545.9s5.4.3 1.9 2.7c-4.2 2.9-10.4 1.3-11.9 1.5-1.7.3-7.8 6-15 5.9-5.6-.1-2.9-3.9 6.9-6.8 0 0-5.8.6-8.5-.8-1.9-1-3.9-3.3-.6-3.6 3-.1 27.2 1.1 27.2 1.1z" class="st51"/><g id="XMLID_52_"><path id="XMLID_99_" d="M164.2 541.1c-.1 1-3.9 4.9-8.7 3.3-3.7-1.2-4.8 1-4.6 1.2.1.2 1.9 2.1 4.2 2.5 2.2.4 6.7.9 10.5-3.5l-1.4-3.5z" class="st52"/></g><g id="XMLID_50_"><path id="XMLID_51_" d="M168.8 540.4c-.1 1 2.6 5.6 8.1 4.6 3.5-.7 4.6 1.7 4.4 1.9-.2.2-2.3 1.2-4.6 1.8-3.5.8-7.5.9-10.6-4.1l2.7-4.2z" class="st53"/></g><path id="XMLID_49_" d="M156.1 548.3c2.8-.5 6.5-1.8 7.3-5.3.1-.4.2-.7.3-1.1.3-.4.4-.7.5-.8l1.4 3.5c-3.4 3.8-7.1 4-9.5 3.7z" class="st51"/><g id="XMLID_31_"><path id="XMLID_113_" d="M152.1 553.9c-.2-.7 1.1-3.3 3.6-3.9 2.6-.6 7.8-2.4 8.1-6.8.3-4.5 2.8-5.8 2.8-5.8l1.4.1c.7.7 2.5 6.6-1.9 12.5-3.9 5-13.8 4.5-14 3.9z" class="st52"/></g><g id="XMLID_27_"><path id="XMLID_28_" d="M166.6 537.4l-.3-1.7 2-.2-.4 1.9z" class="st54"/></g><g id="XMLID_13_"><g id="XMLID_22_"><path id="XMLID_25_" d="M167.3 537.4c.8 10.9-9.4 15.5-15.2 15.8-.1.3-.1.5-.1.7.2.7 10.2 1.1 14-4 4.4-5.8 2.6-11.8 1.9-12.5h-.6z" class="st53"/></g></g></g><path d="M103.6 617.2c-13.7.1-24.9-11-25-24.7v-7.9c-.1-13.7 10.9-24.9 24.7-25.1l1077.7-7.9c13.7-.1 24.9 10.9 25 24.7v7.9c.1 13.7-10.9 24.9-24.7 25l-1077.7 8z" class="st55"/><path d="M702 723.5l-10.6-135c0-22.1-17.9-45.4-40-45.3h-12.7c-22.1 0-40.1 23.2-40 45.3l-10.6 135H702z" class="st56"/><path d="M664.2 589.7c-1.7 11-11.9 18.5-22.9 16.8-11-1.7-18.5-11.9-16.8-22.9 1.7-11 11.9-18.5 22.9-16.8 10.9 1.7 18.5 11.9 16.8 22.9z" class="st55"/><path d="M582.1 735.1c-4.3 0-7.8-3.5-7.8-7.8v-2.5c0-4.3 3.5-7.8 7.8-7.8h125.4c4.3 0 7.8 3.5 7.8 7.8v2.5c0 4.3-3.5 7.8-7.8 7.8H582.1z" class="st57"/><path d="M742.8 537.5c.7 1.6 1.5 3.3 2.7 4.6.8.8 1.7 1.5 2.6 2.2 2.7 1.8 5.5 3.2 8.7 3.4 1.7.1 3.9-.3 5.5.4 1.2.5 1.9 1.9 2.4 3 .5 1-.3 3.2-.6 4.3-.4 1.8-.8 3.4-1.6 5.1-.6 1.1.1 2.2 1 .9.7-1 1.2-2.4 1.6-3.6.9-2.5 1.5-5.1 1.7-7.7 0-.2 0-.4 0-.6-.1-.3-.2-.5-.4-.7-.6-1.2 0-3.4.1-4.7.1-1.6.1-3.3-.1-4.9-.6-6.6-5-12.9-11.3-15-5.2-1.7-11.1-.6-16.2-2.4.4 5.4 1.7 10.7 3.9 15.7zM785.5 541.8c-.7 1.1-1.5 2.2-2.5 3.1-.7.5-1.4.9-2.2 1.3-2.3 1.1-4.8 1.9-7.4 1.7-1.1-.1-2.3-.3-3.3-.7-.9-.4-1.5-.8-2.3.1-.4.4-.6 1-.8 1.5-.3-.2-.3-.7-.3-1 .5-3.9.7-8 2.9-11.4 1.9-3.1 4.8-4.9 8.2-5.8 4-.7 8.2.8 12.2 0-.8 3.9-2.4 7.7-4.5 11.2zM767 536.4c.3.9.5 2 .2 2.5 1.7-2.9 3.8-5.9 4.7-9.2.8-2.7.2-6-.8-8.6-.7-1.7-1.8-3.2-2.6-4.8-.8-1.4-1.3-2.8-2.4-4-.2-.2-.7 1.5-.7 1.6-.2.8-.5 1.7-.7 2.5-1.5 4.9-2.2 10.3-.2 14.9.6 1.4 1.5 2.7 2.1 4.1.1.3.3.6.4 1z" class="st25"/><path d="M809.1 558c-.7-.5-1.4-.9-2.2-1.3-.8-.4-1.6-.7-2.4-1.1-1.4-.7-2.5-1.9-3.5-3-2.3-2.5-3.2-5.8-4.3-8.9-1.1-3.3-1.4-6.7-1.3-10.1.1-1.7 0-3.4.1-5 .1-1.7.4-3.5.6-5.2.2-1.5.3-3 .5-4.4 2.2-9.3 4.5-17 4.5-17s-1.2 0-3.4.1c-3.5.1-9.4.3-16.7.5-4 .1-8.4.2-12.9.4-4.5.1-9.1.3-13.8.4-5.8.2-11.7.3-17.2.5-3.2.1-6.2.2-9.1.3-7.9.2-14.4.4-18 .5-2 .1-3.1.1-3.1.1 1 2.3 1.5 4.8 2 7.2.9 4 1.8 8 2.6 12 .9 4.3 1.7 8.6 2.5 12.8.4 1.8.7 3.7 1 5.5.5 2.4 1.8 5.6.3 7.9-.3.5-.8 1-1.3 1.4-2.9 2.2-6.1 2.4-9.7 2.5-1.3.1-2.4.2-3.5.5-2.3.6-4.1 1.8-6.1 3.6-.9.9-.9 1.8-1 3 0 .3.4.3.5.1.2-.6.6-1 1-1.5.2-.2.5-.5.8-.7 0 .2-.1.3.1.5 1-.8 1.9-1.2 3.2-1.5 2.1-.4 4.2-.5 6.3-.3 1.4.1 2.6.6 3.9 1 1.5.4 3.2.6 4.8.9 2.5.5 4.9.7 7.2-.3 2.1-.8 3.3-2.3 4.7-3.8 1.1-1.1 2.6-2.2 4.3-2.5 0 .3 0 .6 0 .8-.1 2.5-.2 4.8-.7 7.1-.4 1.5-1 3-1.9 4.5-.5.9-1.3 1.7-2.3 2-1.8.5-.3 1.3.6 1.8.1 0 .1.1.2.1 6 3.2 12.2-1.8 15.5-5.9.1-.2.3-.3.4-.5 1.3-1.5 3.1-2.6 5.1-3.2 2-.6 5-.9 6.9.2 2.2 1.4 2.5 3.7 2.3 6.1-.1.7-.1 1.3-.2 2-.1 1-.3 2-.4 2.8-.1.9.7 2 1.8 1.6.4-.1.7-.4 1-.6.9-.9 1.4-2.2 2-3.1 1-1.5 2.1-3 3-4.6 1.1-1.9 1.9-3.9 2.2-6.1 0-.3 0-.7.1-1.2.1-1 .3-2 1.3-2.1.4 0 .8.1 1.1.3 1.9.8 3.6 1.8 5.1 3 1.5 1.1 2.8 2.4 4.2 3.6.2.2.5.5.7.7 1.1 1.1 2.3 2.2 3.5 3.2.7.6 1.4 1.2 2.2 1.8.2.1 2.6 1.5 2.6 1.4 0-.4-.2-.7-.3-1.1-.9-2.3-1.9-4.6-2.7-7-.5-1.5-1.3-3.9-1-5.7.1-.4.2-.9.5-1.2.8-1.3 2.6-1 3.9-.6 3.5 1.1 6.7 2.8 10 4.1 2.3.9 4.6 1.6 7.1 1.9 1.1.1 2.5.2 3.6 0 .4-.1 1.1-.3 1.4-.7.2 0 .2-.3-.2-.5z" class="st58"/><path d="M725.6 511.3l-2.9-1.2s-.4 22.3-.4 24.7c0 2.4.6 8.7-.6 12.1 0 0-1.8 4.9-4.4 5.4-.1 0-.1 0-.2 0 .1-.1.1-.1.2-.2 3.8-4.2.5-9.7.6-14.8 0-2.1-1.3-4.2-1.5-6.2-.9-9.2-3.2-18.1-6.3-26.7-2 .1-3.1.1-3.1.1 1 2.3 1.5 4.8 2 7.2.9 4 1.8 8 2.6 12 .9 4.3 1.7 8.6 2.5 12.8.4 1.8.7 3.7 1 5.5.5 2.4 1.8 5.6.3 7.9-.3.5-.8 1-1.3 1.4-.5.4-1 .7-1.5 1-7.1 0-19.4.3-18.5 8 0 0 1.2-5.2 9.7-5.5 1.2.2 2.5.3 3.7.4.4 0 .9 0 1.3 0 1.4.2 3 .6 4.8 1.1 0 0 12.1 2.3 11.9-10.1 0-.1 0-.3 0-.4-.4-12.9.1-34.5.1-34.5zM739.1 523.9c-3.7-4.4-6.3-9.4-4.7-15.1.5-1.9 1.4-3.6 2.8-5.1-3.2.1-6.2.2-9.1.3-1.4 8.4.1 17 3 25.3 2.8 8.4 2.1 16.7.9 25.2-.4 2.2-.9 4.6-2 6.6-.4 1.5-1 3-1.9 4.5-.5.9-1.3 1.7-2.3 2-1.8.5-.3 1.3.6 1.8.1 0 .1.1.2.1 5.1-.1 10-2.8 11-7.3 1.6-7 3.8-13.2 5-20.2 1-6.3 1.3-12.8-3.5-18.1zM754.4 503.2c0 2.3-.2 4.5-.3 6.8-.5 8.4 1.4 16.6 1.7 25 .2 3.9 1.5 7.6 2.1 11.5.8 7.2 1.3 14.7-1.3 21.5-.1 1-.3 2-.4 2.8-.1.9.7 2 1.8 1.6.4-.1.7-.4 1-.6.9-5.2 2.5-10.5 2.3-15.6-1-11.5 3.3-22.4 4.3-34 0-1 .7-1.8.9-2.8 1.5-5.7 1.1-11.2 1.7-16.6-4.5.1-9.2.3-13.8.4z" class="st59"/><path d="M801.3 501.8c0-2.5-7.7-4.6-17.3-4.8-7.1-1.6-16.5-2.6-26.7-2.6-15 0-28 2.2-34.9 5.3-8.8.4-15.4 2.4-15.4 4.8 0 2.3 6 4.1 14 4.7 6.4 3.5 20.5 6 36.6 6 22.1 0 40.4-4.7 40.2-10.5 2.7-.8 3.5-1.8 3.5-2.9z" class="st60"/><path d="M752.7 503.9l-14.8 1.9 17.4-.7 7.6 3.3-4.1-3.3 11.4-.6-10.2-1.3 1.9-2.5-5.9 2.6-11-2z" class="st61"/><path d="M804.4 557.7c-2-.8-3.5-2.6-5.9-2.8.2-.7-.9-.2-.7-.8-.4 0-.7-.2-.7-.2-2.2-2.3-4.4-4.4-6.1-6.8-1.1-1.6-1.1-3.2-1.7-4.9-1.5-3.4-1-7.1-1.5-10.7-.4.2-.6-.8-.7-.3-3.6 7.5-5.7 15.8-4.1 23.9.1-.4.2-.9.5-1.2.8-1.3 2.6-1 3.9-.6 3.5 1.1 6.7 2.8 10 4.1 2.3.9 4.6 1.6 7.1 1.9 1.1.1 2.5.2 3.6 0 .4-.1 1.1-.3 1.4-.7-1.3-1.2-3.5-.2-5.1-.9z" class="st62"/><path d="M785.3 497.1l-3.8.5 1-.9 1.4.3zM797.5 512.5l-.1-7-2.8-1.2 4.4-.2-.3 1.5z" class="st61"/><path d="M781.1 510.4l6.3 1.2-.9 3.2 1.9-3.3s5.3-1.5 7.6-4.1c0 0-4.4 3.4-8.2 3.7l-6.7-.7z" class="st63"/><path d="M780.9 510.3l3.7 2.3 1.1 5.2 1.8-6.2z" class="st61"/><path d="M724.4 507.9l-7.7.6s-7.4-.7-9.5-3.2c0 0 1 3.3 9.2 3.8l2.1 6.8-.6-6.4 6.5-1.6z" class="st64"/><path d="M722.4 510l2.9-2.3-7.8 1.2 3.6 25z" class="st61"/><path d="M763.3 515.8c11.3-.5 16.9-2.5 16.9-2.5-6 1.1-11.8 1.6-17.3 1.8l-2-2 1 2.1c-22 .5-38.6-4.9-38.6-4.9 5.4 3.1 21.7 5.1 21.7 5.1 6.7.6 12.4.7 17.1.6l.8 3.8.4-4zM737.7 505.8l17.6-.7 7.6 3.3-7.8-3-17.2.4zM762.9 508.4l-3.3-3.1 10.6-.8-11.4.6zM770.2 504.5l-9.5-1.6 1.2-2.2-1.9 2.5zM761.9 500.7l-6 2-10.9-1.4 11 2zM745 501.3l6.1 2.4-13.2 2 14.8-1.8zM794.5 502.5c-.2-.7-1.1-1.4-1.8-1.8-1-.6-2.4-.8-3.7-.8-1.5 0-2.9-.2-4.3-.2-1.6 0-3.2 0-4.8-.2-1.6-.2-3.5-.4-5-.9-1.3-.5-2.6-.9-4-1.2-2.7-.5-5.6-.6-8.3-.4-3.1.3-6.3.8-9.5.9-1.5 0-3.1.2-4.6.2-1.7 0-3.4 0-5 0-1.4 0-2.9-.1-4.3 0-1.3.1-2.5.8-3.6 1.3-1.3.6-2.7.9-4.1 1.2-1.5.3-3 .8-4.5 1-1.7.3-3.6.1-5.3.1-1.8 0-3.6-.1-5.4 0-1 0-2.7.2-3.5.8-.1 0-.2-.1-.2-.1-2.1-.4-3.1 1.4-2 2.7 0 0 .1.1.1.1.1.2.2.4.4.6 1.1 1 3.2 1.2 4.7 1.3 2 0 3.9-.1 5.9-.4 2.2-.3 4.3-.6 6.5-.7.3 0 .5-.1.6-.3.6 0 1.2.2 1.7.4 1.2.5 2.1 1.3 3.1 2 .9.7 2.1 1.1 3.3 1.5 1.5.5 3 1 4.6 1.3 3 .6 5.8-.4 8.8-.5 2.9 0 5.9-.1 8.7.7 5.9 1.7 11.8.2 17.3-1.7 1.4-.5 2.7-1.2 4-1.8 1.5-.7 3.3-1.3 5-1.8 1.6-.5 3.2-.7 4.8-1.3.8-.3 1.5-.5 2.3-.8.7-.3 1.3-.6 2-.9 0 .2.1-.1.1-.3zm-4.4.9c-2.7.9-5.4 1.6-8.1 2.5-4 1.3-7.6 3.3-11.8 4.3-4.6 1-8.8.3-13.3-.3-5.9-.8-12.2 1.2-17.8-.4-3-.9-5-2.5-7.6-3.8-2.2-1.1-5.1-.9-7.5-.6-3.2.4-6.6 1-9.9.5-.3-.1-.7-.1-.9-.3-2.1-1.9 3.6-2.4 4.6-2.4 5.5 0 10.8.1 16-1.6 3.6-1.2 6.2-2 10.1-1.9 6.9.1 13.5-1.1 20.3-1.2 4.8-.1 8.7 1.5 13.2 2.2 3.7.6 7.6.5 11.4.7.9 0 2.6.1 3.2.7 1.2 1-.7 1.2-1.9 1.6zM714.5 505c.7 0 1.4 0 2.1.1.5.1 1.1.2 1.6 0 .2-.1.2-.3.1-.5-.3-.5-.7-.7-1.3-.8-.4-.1-.8-.1-1.2-.2-.3-.1-.5-.2-.8 0-.1.1-.2.2-.2.3 0 0 0 .1 0 .1 0 .1.1.2.2.2.5 0 1 .1 1.5.1.1 0 1.2.2 1.1.3.1-.1.2-.1.3-.2-.6 0-1.1-.2-1.7-.2-.6-.1-1.2 0-1.8 0-.4 0-.4.8.1.8zM792.2 499.1c.9.1 1.6.7 2.4 1.1.5.3.9.5 1.1 1.1.1.4-.1.8.2 1.2.1.1.3.1.4 0 .7-.8-.1-2-.9-2.5-.5-.3-1-.5-1.5-.7-.5-.3-1.1-.3-1.7-.2zM791.5 505.9c-.5.3-1.1.3-1.7.4-.8.1-1.5.3-2.3.6-.7.2-1.5.5-2.2.7-.5.1-1 .2-1.3.5-.1.1 0 .4.2.4.6-.2 1.3-.1 1.9-.2.9-.1 1.7-.4 2.5-.6 1-.3 2.6-.4 3.3-1.2.4-.3 0-.9-.4-.6zM779 510.9c-.4.1-.6.4-1 .6-.4.2-.8.2-1.2.3-1.1.4-2 .9-3.1 1.2-2.2.6-4.6.9-6.9 1.1-.2 0-.2.2 0 .3 1.2.1 2.5 0 3.7 0 1.1 0 2.2-.3 3.2-.6 2.1-.6 3.6-1.8 5.3-2.9.1.1.1 0 0 0zM729.6 508.7c.4.2.8.3 1.2.5.7.2 1.4.5 2.1.8 1.2.5 2.3 1 3.5 1.4 1.3.4 2.5.8 3.8 1 1.2.2 2.6.2 3.7.5.1 0 .1-.1 0-.1-1.1-.4-2.4-.4-3.5-.7-1.2-.2-2.5-.6-3.7-.9-1.3-.4-2.6-.9-3.8-1.4-.5-.2-1.1-.4-1.6-.6-.6-.2-1.2-.3-1.7-.6 0-.1-.1 0 0 .1zM724.4 499.9c.3.2.6.3.9.3.7 0 1.5.1 2.1 0 1.7-.3 3.2-1 4.9-1.5 1.6-.5 3.2-1.1 4.7-1.7.8-.3 1.7-.6 2.6-.8 1.1-.2 2.2-.2 3.2-.2.9 0 1.9 0 2.8.1 1 0 2-.1 3-.1 1.9-.1 3.8.2 5.6.5 1.6.2 3.1.5 4.7.3 1-.1 2-.2 3-.3.9-.1 1.8-.1 2.7-.1 1.1-.1 2.1-.1 3.2-.1s2.2 0 3.3 0c2.2.1 4.4.1 6.5.3.1 0 .1-.1 0-.1-1.7-.4-3.6-.3-5.4-.5-1.8-.1-3.6-.1-5.5-.1-.9 0-1.8.2-2.7.2-1 0-1.9.1-2.9.2-1.7.1-3.3.4-5 .3-1.8-.1-3.5-.5-5.3-.7-1.9-.2-3.6 0-5.5.1-1.7 0-3.6-.1-5.3.1-1.7.2-3.2 1-4.7 1.5-1 .3-2 .4-2.9.7-.9.2-1.7.6-2.5.9-.9.4-1.9.6-2.9.7-.4 0-.9 0-1.3 0-.3 0-.9.2-1.3 0 0-.1-.1-.1 0 0z" class="st64"/><path d="M745.5 507c.2.2.5.3.8.2-.3.1-.6 0-.8-.2z" class="st65"/><path d="M740.2 506c.6.3 1.2.7 1.8.9.7.2 1.6.3 2.3.5.8.2 1.6.4 2.3.4.9.1 1.7.1 2.5.2.7.1 1.4.2 2.1.2.9 0 1.8.2 2.6.2 1.6.1 3.2.2 4.9.2 1.8 0 3.5.5 5.3.5 1.7 0 3.3-.1 4.9-.3.6-.1 1.3-.2 1.9-.3.6-.1 1-.6 1.6-.8.6-.2 1.3-.6 2-.7.7-.1 1.2-.1 1.8-.5.6-.4.9-.9 1.6-1.2.3-.2.6-.3.9-.6.3-.2.5-.6.9-.7.8-.4 2.2-.2 2.5-1.2 0-.1 0-.3-.1-.4-.8-.7-2.3-.3-3.3-.3s-2-.1-3 0c-.5 0-1 .1-1.5 0s-.8-.3-1.3-.4c-.8-.2-1.8-.1-2.7-.2-1-.1-1.9-.3-2.8-.6-.9-.3-1.6-.6-2.5-.7-.9-.2-1.8-.3-2.7-.3-.2 0-.2.3 0 .3 1.8.1 3.4.7 5.1 1.3.8.3 1.7.5 2.5.6.8.1 1.6.1 2.5.2.8 0 1.4.5 2.2.5.9.1 1.7 0 2.6 0 .8 0 1.7 0 2.5-.1.5 0 1.5-.2 1.9.2 0-.1-.1-.3-.1-.4-.1.3-1.1.3-1.4.3-.5.1-.9.2-1.3.5-.9.6-2.1 1-2.8 1.7-.5.5-.9.5-1.7.7-.6.2-1.2.5-1.8.7-.5.2-1 .5-1.4.8-.4.3-.9.4-1.4.6-1.4.6-3.3 1-4.9 1-1.7 0-3.3-.3-4.9-.4-.7-.1-1.5 0-2.2 0-.8 0-1.6-.2-2.3-.3-1.5-.2-3.1-.3-4.6-.4-.8-.1-1.6-.3-2.5-.4-.9-.1-1.9-.1-2.8-.2-.8-.1-1.6-.3-2.5-.4-.9.1-1.7-.4-2.7-.7 0-.1 0 0 0 0zM760.3 500.3c-1.3 0-2.6 0-3.9.1-.7 0-1.3-.1-2-.1s-1.4.2-2.1.3c-.7.1-1.5.2-2.2.2-.7-.1-1.4-.2-2.1-.2-1.1-.1-2 .1-2.9.6-.5.3-1 .5-1.5.7-.6.2-1.3.2-2 .3-.7.1-1.4.2-2.1.2-.5 0-.9.2-1.3.5-.7.4-1.1 1.2-1.1 2s.5 1.1 1.2 1.4c1.2.5 2.3 1 3.6 1.3 1 .2 2.3 1 3.3.8.2 0 .1-.2 0-.3-.6-.1-1.2-.5-1.8-.7-.6-.2-1.2-.3-1.8-.5-1.1-.3-2.4-.7-3.4-1.3-.9-.6-.3-1.5.5-1.9.5-.3 1-.3 1.5-.4 1.3-.2 2.7-.5 3.9-.9 1.1-.4 2.1-1 3.3-1 1.3 0 2.6.4 4 .2 2.9-.4 5.8-.9 8.8-1 .3-.1.3-.3.1-.3z" class="st64"/><path d="M713.9 441.8l3.4 58.2 17.6 11.3 38.6-1.2 16.6-13.2-.6-56.9c-.1 0-66.6.9-75.6 1.8z" class="st66"/><ellipse cx="751.7" cy="438.5" transform="matrix(1 -.026 .026 1 -10.962 19.357)" class="st66" rx="39.1" ry="8.1"/><ellipse cx="751.7" cy="437.6" transform="matrix(1 -.026 .026 1 -10.938 19.356)" class="st67" rx="32.5" ry="7.2"/><path d="M746.2 436.4s3.8 3.4 10.4.1c0 0-3.1-4 0-7.4 0 0 3-4.1-5.2-4.1 0 0-7.2-.5-5.6 3.9 0 0 3.8 4.9.4 7.5z" class="st68"/><path d="M732.3 446.3l2.6 64.3M773.3 444.9l.1 65.3" class="st67"/><path d="M753.2 485.1l-11.3-6.3c-.7-.4-.7-1.4 0-1.8l10.3-6.5c.5-.3 1-.3 1.5-.1l12.1 6.4c.4.2.4.8 0 1.1l-12.6 7.2"/><path d="M759.7 502.6l-10.9.3c-.7 0-1.2-.5-1.2-1.2l-.1-2.8c0-.7.5-1.2 1.2-1.2l10.9-.3c.7 0 1.2.5 1.2 1.2l.1 2.8c0 .6-.5 1.2-1.2 1.2z"/><path d="M714 445.2l-2.7.2s-10 24.4 28.1 35.3c0 0 .8 2.4 3.4 2.4l19.8-.1s1-.2 2.7-2.1c0 0 26.6-6.6 28.9-29.2l-1.7-7.7-2.9.1" class="st69"/><path d="M742.9 482.3v2.8l18 .1-.1-3.3-18 .1z" class="st70"/><path d="M777.6 487.2l1.3-1.1s2.1 4.3 4.6-.4c0 0 1.1-2.2 1-3.6l.8-.4.2 6.4-4.8 5.2s-2.3 3.7-2 5l-1 .6-.1-11.7zM720.6 484.1l.9.1s4.1 9.7 6.8 3.8l1.3-.1.5 10.3s-4.1-5.1-7-3.6l-2.1.2-.4-10.7zM728.1 504.4l-4.6-2.8c-.4-.2-.6-.6-.6-1l-.1-.8c0-.4.4-.7.7-.5l4.8 2.8c.4.2.6.6.6 1.1l-.1.9c0 .3-.4.5-.7.3zM782.9 497.4l-3.5 2.8c-.2.2-.3.4-.3.7l.1 1.3c0 .2.3.4.5.2l4.5-3.1-1.3-1.9z"/><path d="M815.3 514c-3.3-3.2-7.5-5.3-11.9-7-2.5-1-5.1-1.8-7.7-2.9-2-.8-3.8-1.9-5.4-3.3-2.3-1.5-4.1-3.5-6.1-5.6-2.2-2.4-4.5-4.8-6.7-7.2 0 .9 0 1.9 0 2.8.1.1.1.2.2.2.4.5.8 1 1.2 1.6-.4.1-.9.2-1.3.3.1.7.1 1.4 0 2.1.1 0 .3 0 .4 0 .8 0 1.7-.1 2.5-.2 0 0 0 0 .1 0 3 4 5.9 8.1 9.8 11.4.1.1.1.2 0 .3-1.9 1.8-4.5 2.8-7 3.7-2 .7-4.4.5-6.3 1.4.1.6.3 1.1.7 1.4.4 0 .7-.1 1.1-.1 1.4-.3 2.7-.6 4.1-1-.2.7-.6 1.4-.9 2.1-.4.9-.7 2-1.3 2.8-.4.5-.2.9.4 1 .6.1 1.4-1.5 1.7-1.9.2-.3.4-.6.6-1 .8-1.2 1.3-2.6 1.9-3.7 2.1-.7 4.1-1.7 6.3-2 2-.3 3.9-.3 5.8.3 2.4.7 4.4 2.7 6.3 4.2 1.7 1.3 3.4 2.5 5.2 3.5.9.5 1.8 1 2.8 1.4.5.2.9.1 1.3-.1.7-.6 1.3-1.2 1.5-1.3.3-.3.5-.6.7-.9.1-.1.1-.2.1-.3.3-.8.2-1.4-.1-2z" class="st71"/><path d="M784.1 511.4c-.4.2-.7.4-1 .6-.2.7-.6 1.4-.8 2-.4.9-.7 2-1.3 2.8-.3.4-.2.8.2.9.8-2 2.2-4 2.9-6.3zM780 511.9c1.5-.3 2.9-.7 4.4-1.2 1.3-.5 2.6-1.2 3.9-1.9 1.1-.6 2.3-1.2 3.1-2.2-.3 0-.5-.1-.8-.2 0 0 0 .1-.1.1-1.9 1.8-4.5 2.8-7 3.7-2 .7-4.4.5-6.3 1.4 0 .2.1.4.1.6.9-.2 1.8-.2 2.7-.3zM779 492.5s0 .1 0 0c-.4.1-.9.2-1.3.3 0 .4.1.8.1 1.2.6-.1 1.1-.1 1.6-.4.7-.3.2-.7-.4-1.1zM815.3 514c-3.3-3.2-7.5-5.3-11.9-7-2.5-1-5.1-1.8-7.7-2.9-2-.8-3.8-1.9-5.4-3.3-2.3-1.5-4.1-3.5-6.1-5.6-2.2-2.4-4.5-4.8-6.7-7.2 0 .4 0 .8 0 1.2 1.5 1.6 2.9 3.4 4.2 5.1.8 1 1.6 2.1 2.6 3 .5.5 1.1 1 1.5 1.5 4.5 5.1 10.7 7.8 16.9 10.1 4.4 1.6 9.8 3.5 12.1 7.9.1-.1.2-.2.3-.4 0-.1.1-.2.1-.3.5-.9.4-1.5.1-2.1z" class="st72"/><path d="M783.4 514.6c-.6 1-1.1 2-1.8 2.9.7-.7 1.1-1.6 1.6-2.4.7-1.1 1.3-2.3 1.7-3.5 0 0 0 0-.1 0-.3 1-.8 2.1-1.4 3zM777.9 512.8c1.8-.2 3.7-.4 5.3-1.1-1.7.5-3.5.7-5.3 1.1zM793 508.8c1.1-.1 2-.4 3.1-.1 1.1.3 2.3.7 3.2 1.3 1.6 1 3.1 2 4.6 3.1 1.5 1.1 3 2.2 4.5 3.2 1.2.8 2.7 1.8 4.1 1.9h.1s.1 0 0 0c-3.5-1.7-6.6-4-9.7-6.3-1.5-1.1-3.1-2.1-4.7-2.8-.7-.3-1.6-.7-2.4-.7-.9 0-1.8.2-2.8.4zM781.4 494.9c1.1 2.1 2.7 4 4.2 5.8.8.9 1.6 1.9 2.4 2.8 1 1 2.1 1.7 3.1 2.5-.8-.8-1.8-1.6-2.7-2.4-.9-.9-1.8-2-2.7-3-1.4-1.8-2.9-3.7-4.3-5.7zM780.3 494.5c-.8.1-1.7.1-2.5.1 0 .1 0 .1 0 .2.8 0 1.7 0 2.5-.3 0 .1 0 0 0 0zM777.6 490.1s0 .1 0 .1c.3.4.6.8.9 1.2-.3-.5-.6-.9-.9-1.3z" class="st73"/><path d="M824.8 495.4c-.9-.5-1.9-.9-2.8-1.3-1.9-.8-3.9-1.4-5.9-2-2.4-.6-5.1-1-7.2-2.4-1.6-1.2-2.8-2.6-3.8-4.4-1-2-1.5-4.2-2.3-6.3.6-1.1 1.3-2.4 1.8-3.8.2-.4.3-.7.4-1.1.2-.5.9-2 .5-2.5-.4-.4-.8-.3-1 .3-.3 1-.9 1.9-1.4 2.8-.4.7-.7 1.4-1.2 2-.5-1.3-1.1-2.6-1.7-3.8-.2-.3-.4-.6-.6-1-.6-.1-1.1 0-1.6.3.4 2.1 2.1 3.8 2.7 5.9.8 2.5 1.6 5.2 1.4 7.8 0 .1-.1.2-.2.2-5-1.1-10-.9-15-.8 0 0 0 0-.1 0-.5-.7-.8-1.4-1.4-2.1-.1-.1-.2-.2-.2-.4-.3.3-.7.6-1 .8 0 .1-.1.3-.1.4 0 0 0 .1 0 .1 0 .2-.1.4-.2.6.1.2.2.3.2.5-.2 0-.4 0-.5 0-.3.6-.6 1.2-1.1 1.7-.1.1-.2.2-.3.3 2.4.2 4.8.4 7.2.7 2.9.3 5.5.5 8.2 1.4 2.1.4 4.1 1.1 5.9 2.2 2.3 1.4 4.6 2.9 6.9 4.3 4 2.4 8.2 4.4 12.8 5.1.7-.1 1.3-.4 1.8-1.2.1-.1.1-.2.2-.3.1-.3.2-.7.2-1.1 0-.2.1-1.1.1-2-.1-.3-.3-.6-.7-.9z" class="st71"/><path d="M802.1 477.9c-.1-.4-.1-.8-.1-1.2.4-.6.8-1.3 1.1-1.9.5-.9 1.1-1.8 1.4-2.8.1-.5.5-.7.8-.4-1.1 2.1-1.8 4.4-3.2 6.3zM800 474.4c.7 1.4 1.3 2.7 1.7 4.2.4 1.4.6 2.8.8 4.2.2 1.2.4 2.5.2 3.8-.2-.2-.4-.3-.6-.5 0 0 .1-.1.1-.1.2-2.6-.6-5.3-1.4-7.8-.7-2-2.3-3.8-2.7-5.9.2-.1.4-.2.6-.3.3.9.9 1.6 1.3 2.4zM785.2 485c-.1-.5-.4-1-.7-1.5-.1.1-.2.2-.3.2 0 .1-.1.3-.1.4 0 0 0 .1 0 .1 0 .2-.1.4-.2.6.1.2.2.3.2.5.6.4 1.3.5 1.1-.3zM811.6 494.3c-5.6-3.5-11.6-6.8-18.3-7.2-.7 0-1.4-.2-2.1-.3-1.3-.2-2.7-.2-4-.2-1.4 0-2.8-.1-4.2-.1-.1.2-.3.4-.5.6-.1.1-.2.2-.3.3 2.4.2 4.8.4 7.2.7 2.9.3 5.5.5 8.2 1.4 2.1.4 4.1 1.1 5.9 2.2 2.3 1.4 4.6 2.9 6.9 4.3 4 2.4 8.2 4.4 12.8 5.1.7-.1 1.3-.4 1.8-1.2.1-.1.1-.2.2-.3 0-.1.1-.3.1-.4-5 .7-9.8-2.4-13.7-4.9z" class="st72"/><path d="M804.3 475.4c.4-1.1.9-2.1 1.2-3.2-.2 1-.6 1.9-.9 2.8-.5 1.2-1 2.4-1.7 3.5 0 0-.1 0 0 0 .5-1 1-2 1.4-3.1zM799.5 472.2c.9 1.6 1.9 3.2 2.4 4.9-.7-1.7-1.6-3.3-2.4-4.9zM805.5 486.6c.6.9.9 1.8 1.8 2.5s1.9 1.4 3 1.7c1.8.6 3.5 1.3 5.3 1.8 1.8.5 3.6 1 5.3 1.6 1.3.5 3.1 1 4.1 2.1 0 0 0-.1 0 0h.1s0 .1 0 0c-3.5-1.8-7.2-2.7-10.9-3.8-1.8-.5-3.5-1.1-5.1-2-.7-.4-1.5-.9-2-1.5-.8-.7-1.1-1.6-1.6-2.4 0 0 0-.1 0 0zM787.4 485.8c2.3-.4 4.8-.3 7.2-.2 1.2.1 2.5.1 3.7.2 1.4.2 2.6.6 3.9.9-1.2-.1-2.3-.5-3.5-.6-1.3-.2-2.7-.3-4-.3-2.5-.1-4.8-.1-7.3 0 0 .1 0 0 0 0zM786.4 485.2c-.5-.7-.9-1.4-1.4-2 .1 0 .1-.1.1-.1.5.6 1 1.3 1.3 2.1.1 0 0 0 0 0z" class="st73"/><path d="M725.6 489.8c-.1 0-.2-.1-.3-.1-.1 0-.1-.1-.2-.1s-.1-.1-.1-.1c-.1 0-.2-.1-.3-.2-.1 0-.2-.1-.2-.2-.1 0-.1-.1-.1-.1-2.3 1.4-6 3.6-6.9 4.1-.2.1-.4.3-.6.4-.1.1-.3-.1-.2-.2 1.5-1.8 2-4.2 3.3-6.2.5-.8 1.1-1.6 1.8-2.3-.1-.1-.1-.2-.2-.3 0-.1-.1-.2-.1-.2s-.1 0-.1-.1c-.1 0-.2 0-.2 0s0 0-.1 0-.2 0-.3-.1c0 0 0 0-.1 0 0 0-.1 0-.1 0-1.2 1.5-2.4 3.1-3.3 4.9-.7 1.4-1.4 3-2.4 4.2-.8 1-1.7 1.7-2.8 2.3-1.4.8-2.9 1.2-4.4 1.7-1.1.5-2.1 1.1-3.2 1.6-1.4.5-2.9 1-4.4 1.4-2.5.6-5.2.7-7.8 1.1-1.1.2-4 .7-5.2.8-.5 1-1 2-1.4 3 .2-.1.5-.1.7-.1 2.1-.2 4.8-.7 6.9-.9 4.5-.5 8.8-1.5 13-3.2 2-.8 4-1.7 5.9-2.8 1.5-.8 2.8-2 4.3-2.9 1.4-1 3-1.7 4.6-2.3 1.6-1.1 3.2-2 4.9-3-.2-.1-.3-.1-.4-.1zM729.4 488c-.1-.1-.1-.1-.2-.1s-.1 0-.2 0-.1 0-.2 0c0 0-.1 0-.1 0s-.1 0-.2 0c0 0-.1 0-.1 0-.1 0-.2.1-.3.1 0 .1-.1.2-.2.3 0 .1-.1.1-.1.2 0 0-.1.1-.1.1.6-.1 1.1-.3 1.7-.6z" class="st71"/><path d="M725.3 489.6c-.1 0-.1-.1-.2-.1s-.1-.1-.1-.1c-.1.1-.2.1-.3.2-1.8 1-3.6 2-5.3 3.2-.8.5-2 1.5-3.1 1.2-.1 0-.1-.1-.1-.2.2-.5.6-1 1-1.4 1.1-1.7 1.6-3.7 2.7-5.3.5-.8 1.1-1.6 1.8-2.3-.1-.1-.1-.2-.2-.3 0-.1-.1-.2-.1-.2s-.1 0-.1-.1c0 0 0 0-.1 0-1.2 1.6-2.3 3.2-3.3 5-1 1.8-1.8 3.8-3.3 5.3-1.4 1.5-3.3 2.5-5 3.4-3.7 2-7.6 3.2-11.8 3.8-2.1.3-4.2.6-6.2 1.1-1.7.4-3.5.7-5.2.6-.3.6-.5 1.1-.7 1.7.2-.1.5-.1.7-.1 2.1-.2 4.8-.7 6.9-.9 4.5-.5 8.8-1.5 13-3.2 2-.8 4-1.7 5.9-2.8 1.5-.8 2.8-2 4.3-2.9 1.4-1 3-1.7 4.6-2.3 1.6-1.1 3.2-2 4.9-3-.1 0-.1 0-.2-.1-.3 0-.4-.1-.5-.2zM729.4 488c-.1-.1-.1-.1-.2-.1s-.1 0-.2 0-.1 0-.2 0c0 0-.1 0-.1 0s-.1 0-.2 0c0 0-.1 0-.1 0-.1 0-.2.1-.3.1 0 .1-.1.2-.2.3 0 .1-.1.1-.1.2 0 0-.1.1-.1.1.6-.1 1.1-.3 1.7-.6z" class="st72"/><path d="M708.5 497.1c-2.8 1.2-5.4 2.7-8.3 3.5-2.7.7-5.6.7-8.3 1.5 0 0 0 .1 0 .1 2.7-.7 5.6-.6 8.3-1.2 1.4-.3 2.8-.9 4.1-1.5 1.4-.7 2.9-1.3 4.3-2.1 0-.2 0-.3-.1-.3zM718.9 486.6c-.2.2-.4.4-.5.6-.2.3-.3.7-.6 1 0 0 0 .1 0 .1.2-.2.4-.5.5-.7.3-.3.5-.6.6-1 .1.1.1 0 0 0z" class="st73"/><path d="M728.8 488.2c-.2.4-.3 1.1-.4 1.5-.4 2.1-1 4.3-1.8 6.3-1.4 3.4-3.9 6.5-6.7 8.9-.4-2-.4-4-.4-6 0-1.4.2-2.9.5-4.2.1-.7.2-1.4.4-2 0 0 0-.1 0-.1-.3 0-.7.1-1 .2-.1.1-.2.2-.2.4-.7 1.2-.9 2.6-1.2 4-.2 1.2-.3 2.4-.2 3.6 0 1.2.1 2.6-.1 3.9-.2 1.5-.6 3-1.7 4.1-1.7 1.8-4.1 2.8-6.6 3.1-1.2.1-2.3 0-3.5.1-.4.1-.8.2-1.2.3.8 1.2 1.6 2.4 2.4 3.5.2.3.4.6.6.9.9 0 1.8.1 2.8 0 .8-.2 1.6-.5 2.4-.8 1.9-.7 3.5-1.9 5.1-3.2 1.8-1.5 3.4-3.3 4.8-5.2 0 0 0 0 .1 0 .6-.7 1-1.5 1.5-2.3 2.8-5.2 4.9-10.8 5.1-16.6-.2-.5-.4-.5-.7-.4z" class="st71"/><path d="M720.1 492.4c0 .2-.1.4-.2.6-.2.5-.4 1.1-.5 1.6-.3 1.6-.4 3.2-.5 4.8-.1 1.4 0 2.8.1 4.2.1 1.1.1 2.2-.2 3.3.5-.5.9-1.1 1.1-1.8 0-.1 0-.2 0-.3-.4-2-.4-4-.4-6 0-1.4.2-2.9.5-4.2.1-.7.2-1.4.4-2 0 0 0-.1 0-.1-.1-.1-.2-.1-.3-.1zM727 497.3c-.9 2.4-2 4.6-3.4 6.7-1.4 2.2-2.9 4.3-4.7 6.1-1.7 1.7-3.8 3.2-6.2 3.8-1.2.3-2.4.5-3.6.5-.9 0-1.8 0-2.7-.1.2.4.5.7.7 1.1.2.3.4.6.6.9.9 0 1.8.1 2.8 0 .8-.2 1.6-.5 2.4-.8 1.9-.7 3.5-1.9 5.1-3.2 1.8-1.5 3.4-3.3 4.8-5.2 0 0 0 0 .1 0 .6-.7 1-1.5 1.5-2.3 2.8-5.2 4.9-10.8 5.1-16.6-.1 0-.2 0-.3 0-.2 3.1-1.1 6.1-2.2 9.1z" class="st72"/><path d="M719.4 493.1c-.9 2.2-1.3 4.4-1.5 6.7-.2 2.5.5 5.1-.6 7.5 0 0 0 .1 0 0 1.1-1.9.9-4.2.8-6.3 0-2.6.5-5.5 1.3-7.9.1-.1.1-.1 0 0zM716.8 508.1c-1.6 1.8-3.5 2.8-5.8 3.5-.9.2-1.8.3-2.7.2-1-.1-1.9 0-2.8.2 2 .2 4 .2 6-.3 2.1-.4 4.1-1.8 5.3-3.6.1.1 0 0 0 0zM728.2 491.6c-.3 1.1-.5 2.2-.9 3.3-.5 1.2-1.1 2.4-1.7 3.5-.6 1.2-1.5 2.4-2.4 3.4-.4.4-.8.9-1.2 1.3-.5.5-.9 1.2-1.5 1.5 1-.5 1.9-1.7 2.7-2.5 1-1 1.9-2.2 2.5-3.4.6-1.1 1.2-2.2 1.6-3.3.5-1.1.8-2.4.9-3.8.1 0 .1 0 0 0z" class="st73"/><path d="M309.4 218.9c-2.4 2.1-1.7 1.9-7.1.1-4.7-1.5-2.4-2.1-6.7.3-3.9 2-10.2 4.2-13.1 5.9 1 2.4 10.1 10.6 12.2 13.9-.8.4-1.5.6-2.4 1-1.4.7-1.1.7-2.7-.3-3.6-2.2-15.1-9.2-17.4-10.2-3.1 1.2-11.3 5.2-14.2 4.9-1.3-.1-3.5-.6-3-2.2 1.2-4 8.5-6.1 13.3-8 1.9-.8 1.4-.6 1.9-2.7.6-2.3 4.2-18.4 4.9-19.2.3-.2 2.9-1.3 3.4-1.5.2 1.5.3 3.1.4 4.7l.6 9.3c0 1.4.2 3.2.4 4.6 2.2-.9 4.4-1.9 6.6-2.8 11.3-5 9.1-1.5 11.9-7.4 1.6-3.3 1.6-5.3 4.9-4.7-.8 6.5.9 10.7 6.1 14.3z" class="st74"/><linearGradient id="XMLID_43_" x1="1296.673" x2="1414.415" y1="981.712" y2="981.712" gradientUnits="userSpaceOnUse" gradientTransform="matrix(.974 -.229 .229 .974 -570.709 -269.674)"><stop offset="0" stop-color="#1A0061"/><stop offset=".441" stop-color="#001A98"/><stop offset=".556" stop-color="#0117A0"/><stop offset=".737" stop-color="#040FB6"/><stop offset=".959" stop-color="#0803DB"/><stop offset="1" stop-color="#0900E2"/></linearGradient><path id="XMLID_57_" d="M950.8 396.3l-42.6-40.6h90.6l39.9 40.7z" class="st75"/><path d="M1038.7 396.4l-87.2.3-43.3-41 91-.5z" class="st76"/><path d="M906.4 355.1l45.1 41.6h88l-40.3-41.5z" class="st77"/><path id="XMLID_21_" d="M1010.8 396.7l-40.2-41.5" class="st77"/><path id="XMLID_45_" d="M929.1 375.1h89.2v.4h-89.2z" class="st78"/><path id="XMLID_5_" d="M977.5 396.7l-40.1-41.5" class="st77"/></g></svg>