<svg xmlns="http://www.w3.org/2000/svg" viewBox="0 0 1317.9 768.1" enable-background="new 0 0 1317.9 768.1"><style type="text/css">.st0{fill-rule:evenodd;clip-rule:evenodd;} .st1{fill:#563017;} .st2{fill:#865833;} .st3{fill:#9B6E4A;} .st4{fill:#773D20;} .st5{fill:#92FFF9;} .st6{fill:#4F4F4F;} .st7{fill:#C1C1C1;} .st8{fill:#424242;} .st9{fill:#5076AD;} .st10{fill:#7F7F7F;} .st11{fill:#EDEDED;} .st12{fill:#5B5B5B;} .st13{fill:#8AB1BA;} .st14{fill:#475759;} .st15{fill:#2D3138;} .st16{fill:#F3F3F3;} .st17{fill:#C0E0FF;} .st18{fill:#589842;} .st19{fill:#156B36;} .st20{fill-rule:evenodd;clip-rule:evenodd;fill:#8B8C8B;} .st21{fill:#1E120D;} .st22{fill:#1A1A1A;} .st23{fill-rule:evenodd;clip-rule:evenodd;fill:url(#XMLID_2_);} .st24{fill-rule:evenodd;clip-rule:evenodd;fill:url(#XMLID_4_);} .st25{fill-rule:evenodd;clip-rule:evenodd;fill:url(#XMLID_6_);} .st26{fill-rule:evenodd;clip-rule:evenodd;fill:url(#XMLID_7_);} .st27{fill-rule:evenodd;clip-rule:evenodd;fill:url(#XMLID_8_);} .st28{fill-rule:evenodd;clip-rule:evenodd;fill:#FFFFFF;} .st29{fill:#5B606B;} .st30{fill:#4D525B;} .st31{fill:#323948;} .st32{fill:#FFFFFF;} .st33{fill:#F04925;} .st34{fill:#CE2C11;} .st35{fill:#231F20;} .st36{fill:#F7B029;} .st37{fill:#F08E30;} .st38{fill:#6E757F;} .st39{fill-rule:evenodd;clip-rule:evenodd;fill:#666866;} .st40{opacity:0.14;fill:#221F1F;} .st41{fill:url(#XMLID_10_);} .st42{fill:url(#XMLID_11_);} .st43{fill:url(#XMLID_12_);} .st44{fill:url(#XMLID_13_);} .st45{fill:url(#XMLID_14_);} .st46{fill:#F6F7F7;} .st47{fill:#FFD900;} .st48{fill:#F1F2F2;} .st49{fill:#704C06;} .st50{fill:#744C29;} .st51{fill:#2CE288;} .st52{fill:#31C77F;} .st53{fill:#696F5D;} .st54{fill:#828679;} .st55{fill:#999C9A;} .st56{fill:#F9A22D;} .st57{fill:#F47F25;} .st58{fill:#DE5526;} .st59{fill-rule:evenodd;clip-rule:evenodd;fill:url(#XMLID_15_);} .st60{fill-rule:evenodd;clip-rule:evenodd;fill:url(#XMLID_16_);}</style><g id="Capa_1"><path d="M1279.7 469.7c-1.2.4-.8 2.3.6 2l1.9-.6c1.2-.3.8-2.3-.6-2l-1.9.6z" class="st0"/><g id="XMLID_691_"><g id="XMLID_73_"><path id="XMLID_111_" d="M861.8 319.7l112.4-17-56.4-36.2-7.2-4.6z" class="st1"/><path id="XMLID_786_" d="M875.9 312.5l.3 1.8 97.6-14.7-56.1-33.5-36.2 40.3z" class="st2"/><g id="XMLID_783_"><path id="XMLID_785_" d="M1136.53 393.72L978.9 417.47l-18.5-122.9L1118 270.8z" class="st3"/><path id="XMLID_784_" d="M875.9 312.5l17.8 117.7 87.4-13.1-18.5-122.9-81.1 12.2z" class="st2"/></g><path id="XMLID_782_" d="M1139.5 274.7l.5 3.1-169.9 25.6-61.5-39.3 2-2.2z" class="st1"/><path id="XMLID_110_" d="M1076.3 236.9l63.2 37.8-168 25.3-60.9-38.1z" class="st1"/><g id="XMLID_107_"><path id="XMLID_109_" d="M900.2 443.8l166.7-5.4v-6.2l-166.7 5.5z" class="st1"/><path id="XMLID_108_" d="M1065 419l-161 43.9-1.8-5.9 160.9-43.9z" class="st1"/></g><path id="XMLID_106_" d="M1073.47 441.22l-11.97 1.8-5.2-34.6 11.95-1.8z" class="st1"/><path id="XMLID_105_" d="M909.66 465.92l-11.97 1.8-4.86-32.24 11.96-1.8z" class="st1"/><path id="XMLID_104_" d="M888.4 441.2l256.5-38.6c.3-.1.6-.4.5-.7l-1.3-8.8c-.1-.3-.4-.6-.7-.5l-256.5 38.6c-.3.1-.6.4-.5.7l1.3 8.8c0 .3.3.6.7.5z" class="st4"/><path id="XMLID_103_" d="M1136.42 431.7l-11.97 1.8-4.5-29.86 11.97-1.8z" class="st4"/><path id="XMLID_102_" d="M992.76 453.37l-11.97 1.8-4.5-29.86 11.96-1.8z" class="st4"/><path id="XMLID_101_" d="M960.64 420.18l-46.38 7-11.46-76.05 46.38-7z" class="st1"/><path id="XMLID_93_" d="M957.18 345.73l-61.6 9.28-.8-5.33 61.6-9.28z" class="st1"/><g id="XMLID_84_"><path id="XMLID_91_" d="M1012.27 340.32l69.6-10.48 6.2 41.03-69.62 10.5z" class="st5"/><path id="XMLID_90_" d="M1007.9 341.1l78.4-11.8c.2 0 .3-.2.3-.4l-.7-5c0-.2-.2-.3-.4-.3l-78.4 11.8c-.2 0-.3.2-.3.4l.7 5c0 .2.2.3.4.3z" class="st4"/><path id="XMLID_89_" d="M1014.7 386.3l78.4-11.8c.2 0 .3-.2.3-.4l-.7-5c0-.2-.2-.3-.4-.3l-78.4 11.8c-.2 0-.3.2-.3.4l.7 5c.1.2.2.3.4.3z" class="st4"/><path id="XMLID_88_" d="M1054.64 377.45l-2.17.33-6.6-43.7 2.2-.33z" class="st4"/><path id="XMLID_87_" d="M1086 349.16l.33 2.18-71.8 10.82-.3-2.18z" class="st4"/><path id="XMLID_86_" d="M1090.53 372.04l-2.18.33-6.6-43.7 2.2-.33z" class="st4"/><path id="XMLID_85_" d="M1018.76 382.86l-2.18.33-6.58-43.7 2.17-.34z" class="st4"/></g><path id="XMLID_83_" d="M911.2 265.7l-49.4 54-.5-3.1 49.3-54.7z" class="st1"/><g id="XMLID_79_"><path id="XMLID_82_" d="M1128.2 430.55l-145.28 2.22-.1-6.1 145.3-2.22z" class="st4"/><path id="XMLID_81_" d="M985.04 445.94l139.5-40.7 1.7 5.87-139.5 40.7z" class="st4"/></g><g id="XMLID_74_"><path id="XMLID_78_" d="M912.5 437.6l52.8-7.9c.3-.1.6-.4.5-.7l-1.3-8.8c-.1-.3-.4-.6-.7-.5l-52.8 7.9c-.3.1-.6.4-.5.7l1.3 8.8c.1.3.4.5.7.5z" class="st3"/><path id="XMLID_700_" d="M907.7 448.5l52.8-7.9c.3-.1.6-.4.5-.7l-1.3-8.8c-.1-.3-.4-.6-.7-.5l-52.8 7.9c-.3.1-.6.4-.5.7l1.3 8.8c0 .3.3.5.7.5z" class="st2"/><path id="XMLID_77_" d="M902.8 459.3l52.8-7.9c.3-.1.6-.4.5-.7l-1.3-8.8c-.1-.3-.4-.6-.7-.5l-52.8 7.9c-.3.1-.6.4-.5.7l1.3 8.8c.1.4.4.6.7.5z" class="st3"/><path id="XMLID_76_" d="M898 470.2l52.8-7.9c.3-.1.6-.4.5-.7l-1.3-8.8c-.1-.3-.4-.6-.7-.5l-52.8 7.9c-.3.1-.6.4-.5.7l1.3 8.8c0 .3.3.6.7.5z" class="st2"/><path id="XMLID_75_" d="M893.1 481.1l52.8-7.9c.3-.1.6-.4.5-.7l-1.3-8.8c-.1-.3-.4-.6-.7-.5l-52.8 7.9c-.3.1-.6.4-.5.7l1.3 8.8c.1.3.4.5.7.5z" class="st3"/></g></g><g id="XMLID_69_"><path id="XMLID_71_" d="M1088.02 260.97l-34.32 5.17-5.73-38.07 34.3-5.17z" class="st3"/><path id="XMLID_70_" d="M1089.42 221.76l-48.55 7.32-1.6-10.68 48.54-7.32z" class="st1"/></g></g><g id="XMLID_391_"><path id="XMLID_396_" d="M912.5 437.6l52.8-7.9c.3-.1.6-.4.5-.7l-1.3-8.8c-.1-.3-.4-.6-.7-.5l-52.8 7.9c-.3.1-.6.4-.5.7l1.3 8.8c.1.3.4.5.7.5z" class="st3"/><path id="XMLID_395_" d="M907.7 448.5l52.8-7.9c.3-.1.6-.4.5-.7l-1.3-8.8c-.1-.3-.4-.6-.7-.5l-52.8 7.9c-.3.1-.6.4-.5.7l1.3 8.8c0 .3.3.5.7.5z" class="st2"/><path id="XMLID_394_" d="M902.8 459.3l52.8-7.9c.3-.1.6-.4.5-.7l-1.3-8.8c-.1-.3-.4-.6-.7-.5l-52.8 7.9c-.3.1-.6.4-.5.7l1.3 8.8c.1.4.4.6.7.5z" class="st3"/><path id="XMLID_393_" d="M898 470.2l52.8-7.9c.3-.1.6-.4.5-.7l-1.3-8.8c-.1-.3-.4-.6-.7-.5l-52.8 7.9c-.3.1-.6.4-.5.7l1.3 8.8c0 .3.3.6.7.5z" class="st2"/><path id="XMLID_392_" d="M893.1 481.1l52.8-7.9c.3-.1.6-.4.5-.7l-1.3-8.8c-.1-.3-.4-.6-.7-.5l-52.8 7.9c-.3.1-.6.4-.5.7l1.3 8.8c.1.3.4.5.7.5z" class="st3"/></g><g id="XMLID_760_"><path id="XMLID_965_" d="M1016.2 394.2c6.5-.3 6.2-.3 6.2-.3l-.3-2c.5 0 1.1-.1 1.7-.2 1.2-.2 1.8-.3 2.3-.3l-.2-1.6-1.9.3s-2.2.5-3.7-.4c-1.4-.9-2.8-1.9-2.5-3.2.3-1.3.5-2 2.1-3.4 1.6-1.5 3.3-3.5 4.1-3.8.9-.3 3.2-.7 3.2-.7s1.3 0 1.1 1.4c-.1 1.4-.2 1.7-.2 1.7l1.8.3s.1-1.7.5-2.6c.5-.8 1.1-2.1-.6-2.8-1.7-.7-2.7-.6-5-.1s-7.6 1.5-10.1 3.2c-2.5 1.7-7.7 3.5-7.5 7.4.2 3.7 2.5 7.4 9 7.1zm-4.5-9.8c3.6-2.2 6-3.9 6.8-3.8.8.1.8.1.8.1s-2.9 1.9-3.2 3c-.3 1.1-.9 4.2 1 6 1.2 1.1 2.1 1.8 3.4 2l-3.4.3s-3.7.8-5.3-.7c-1.5-1.4-3.7-4.7-.1-6.9z" class="st6"/><g id="XMLID_896_"><g id="XMLID_940_"><g id="XMLID_962_"><path id="XMLID_964_" d="M1022.5 405.14l.4.05-2.9 21.4-.4-.06z" class="st7"/><path id="XMLID_963_" d="M1019.1 426.44l-.38-.13 6.77-20.5.37.13z" class="st7"/></g><g id="XMLID_959_"><path id="XMLID_961_" d="M1041.73 431.36l-.05.4-21.4-2.94.05-.4z" class="st7"/><path id="XMLID_960_" d="M1020.5 428.03l.13-.38 20.5 6.78-.12.38z" class="st7"/></g><g id="XMLID_956_"><path id="XMLID_958_" d="M1015.5 450.6l-.4-.06 2.9-21.4.4.05z" class="st7"/><path id="XMLID_957_" d="M1018.92 429.37l.38.13-6.8 20.5-.38-.12z" class="st7"/></g><g id="XMLID_953_"><path id="XMLID_955_" d="M996.27 424.35l.05-.4 21.4 2.92-.05.4z" class="st7"/><path id="XMLID_954_" d="M1017.57 427.8l-.13.4-20.5-6.8.1-.37z" class="st7"/></g><g id="XMLID_950_"><path id="XMLID_952_" d="M1005.45 409.37l.3-.25 13.1 17.2-.32.24z" class="st7"/><path id="XMLID_951_" d="M1018.08 426.8l-.36.17-9.7-19.3.37-.18z" class="st7"/></g><g id="XMLID_947_"><path id="XMLID_949_" d="M1037.6 414.23l.23.32-17.2 13.07-.23-.32z" class="st7"/><path id="XMLID_948_" d="M1020.16 426.93l-.18-.36 19.3-9.72.17.36z" class="st7"/></g><g id="XMLID_944_"><path id="XMLID_946_" d="M1032.76 446.5l-.32.24-13.1-17.18.32-.24z" class="st7"/><path id="XMLID_945_" d="M1019.95 429l.36-.17 9.73 19.3-.35.17z" class="st7"/></g><g id="XMLID_941_"><path id="XMLID_943_" d="M1000.58 441.5l-.24-.33 17.2-13.07.23.32z" class="st7"/><path id="XMLID_942_" d="M1017.92 428.8l.18.35-19.3 9.7-.17-.35z" class="st7"/></g></g><g id="XMLID_915_"><g id="XMLID_937_"><path id="XMLID_939_" d="M1013.97 405.4l.4-.08 5.12 20.98-.4.1z" class="st7"/><path id="XMLID_938_" d="M1018.64 426.5h-.4l-1.2-21.55.4-.03z" class="st7"/></g><g id="XMLID_934_"><path id="XMLID_936_" d="M1041.5 422.8l.1.38-21 5.13-.1-.38z" class="st7"/><path id="XMLID_935_" d="M1020.42 427.48l-.02-.4 21.56-1.2.03.4z" class="st7"/></g><g id="XMLID_931_"><path id="XMLID_933_" d="M1024.2 450.24l-.4.1-5.12-21 .4-.08z" class="st7"/><path id="XMLID_932_" d="M1019.45 429.3h.4l1.2 21.55-.4.02z" class="st7"/></g><g id="XMLID_928_"><path id="XMLID_930_" d="M996.64 432.94l-.1-.4 21-5.12.08.4z" class="st7"/><path id="XMLID_929_" d="M1017.6 428.3l.02.4-21.57 1.2-.02-.4z" class="st7"/></g><g id="XMLID_925_"><path id="XMLID_927_" d="M999.56 415.63l.2-.34 18.48 11.18-.2.34z" class="st7"/><path id="XMLID_926_" d="M1017.64 427.2l-.26.28-16.12-14.38.27-.3z" class="st7"/></g><g id="XMLID_922_"><path id="XMLID_924_" d="M1031.3 408.5l.35.2-11.2 18.46-.35-.2z" class="st7"/><path id="XMLID_923_" d="M1019.76 426.63l-.3-.27 14.38-16.1.3.26z" class="st7"/></g><g id="XMLID_919_"><path id="XMLID_921_" d="M1038.5 440.15l-.2.34-18.47-11.2.2-.34z" class="st7"/><path id="XMLID_920_" d="M1020.27 428.62l.27-.3 16.1 14.4-.26.3z" class="st7"/></g><g id="XMLID_916_"><path id="XMLID_918_" d="M1006.77 447.36l-.34-.2 11.2-18.47.35.2z" class="st7"/><path id="XMLID_917_" d="M1018.35 429.23l.3.27-14.4 16.1-.3-.26z" class="st7"/></g></g><path id="XMLID_909_" d="M1014.9 400.2c-15.3 2.3-25.9 16.5-23.6 31.9 2.3 15.3 16.5 25.9 31.9 23.6 15.3-2.3 25.9-16.5 23.6-31.9-2.3-15.3-16.6-25.9-31.9-23.6zm7.5 50.5c-12.6 1.9-24.3-6.8-26.2-19.4-1.9-12.6 6.8-24.3 19.4-26.2 12.6-1.9 24.3 6.8 26.2 19.4 1.9 12.6-6.8 24.3-19.4 26.2z" class="st8"/><path id="XMLID_903_" d="M1015.2 402.3c-14.1 2.1-23.9 15.3-21.8 29.4 2.1 14.1 15.3 23.9 29.4 21.8 14.1-2.1 23.9-15.3 21.8-29.4-2.1-14.2-15.2-23.9-29.4-21.8zm7.2 48.1c-12.4 1.9-24-6.7-25.9-19.1-1.9-12.4 6.7-24 19.1-25.9 12.4-1.9 24 6.7 25.9 19.2 1.9 12.4-6.7 23.9-19.1 25.8z" class="st6"/><path id="XMLID_897_" d="M1015.5 404.2c-13.1 2-22.1 14.1-20.2 27.2 1.9 13.1 14.1 22.1 27.2 20.2 13.1-2 22.1-14.1 20.2-27.2-1.9-13.1-14.1-22.1-27.2-20.2zm6.9 46.1c-12.3 1.8-23.9-6.7-25.7-19-1.8-12.3 6.7-23.9 19-25.7 12.3-1.8 23.9 6.7 25.7 19 1.8 12.3-6.7 23.8-19 25.7z" class="st6"/></g><g id="XMLID_827_"><g id="XMLID_871_"><g id="XMLID_893_"><path id="XMLID_895_" d="M1098.23 392.9l.4-.1 5.12 21-.4.08z" class="st7"/><path id="XMLID_894_" d="M1102.95 413.84l-.4.02-1.2-21.56.4-.02z" class="st7"/></g><g id="XMLID_890_"><path id="XMLID_892_" d="M1125.83 410.2l.1.38-21 5.13-.08-.38z" class="st7"/><path id="XMLID_891_" d="M1104.85 414.85l-.02-.4 21.56-1.2.02.4z" class="st7"/></g><g id="XMLID_887_"><path id="XMLID_889_" d="M1108.52 437.7l-.4.1-5.13-20.98.38-.1z" class="st7"/><path id="XMLID_888_" d="M1103.75 416.7h.4l1.2 21.56-.4.02z" class="st7"/></g><g id="XMLID_884_"><path id="XMLID_886_" d="M1080.97 420.43l-.1-.4 21-5.13.08.38z" class="st7"/><path id="XMLID_885_" d="M1102 415.74v.4l-21.55 1.2-.03-.4z" class="st7"/></g><g id="XMLID_881_"><path id="XMLID_883_" d="M1083.9 403.1l.2-.34 18.48 11.2-.2.34z" class="st7"/><path id="XMLID_882_" d="M1102.13 414.55l-.27.3-16.1-14.38.26-.3z" class="st7"/></g><g id="XMLID_878_"><path id="XMLID_880_" d="M1115.64 395.8l.34.2-11.2 18.48-.35-.2z" class="st7"/><path id="XMLID_879_" d="M1104.05 413.97l-.3-.27 14.4-16.1.3.26z" class="st7"/></g><g id="XMLID_875_"><path id="XMLID_877_" d="M1122.94 427.54l-.2.34-18.48-11.18.2-.35z" class="st7"/><path id="XMLID_876_" d="M1104.8 416.04l.27-.3 16.1 14.4-.26.3z" class="st7"/></g><g id="XMLID_872_"><path id="XMLID_874_" d="M1091.1 434.84l-.35-.2 11.2-18.47.35.2z" class="st7"/><path id="XMLID_873_" d="M1102.68 416.64l.3.26-14.4 16.1-.3-.25z" class="st7"/></g></g><g id="XMLID_846_"><g id="XMLID_868_"><path id="XMLID_870_" d="M1106.9 392.58l.4.05-2.9 21.4-.4-.05z" class="st7"/><path id="XMLID_869_" d="M1103.4 413.82l-.4-.12 6.8-20.5.37.1z" class="st7"/></g><g id="XMLID_865_"><path id="XMLID_867_" d="M1126.14 418.84l-.05.4-21.4-2.93.04-.4z" class="st7"/><path id="XMLID_866_" d="M1104.92 415.42l.12-.38 20.5 6.78-.12.38z" class="st7"/></g><g id="XMLID_862_"><path id="XMLID_864_" d="M1099.9 438.08l-.4-.05 2.92-21.4.4.05z" class="st7"/><path id="XMLID_863_" d="M1103.23 416.9l.38.13-6.8 20.5-.37-.12z" class="st7"/></g><g id="XMLID_859_"><path id="XMLID_861_" d="M1080.65 411.9l.06-.4 21.4 2.92-.04.4z" class="st7"/><path id="XMLID_860_" d="M1101.86 415.27l-.13.38-20.5-6.78.12-.38z" class="st7"/></g><g id="XMLID_856_"><path id="XMLID_858_" d="M1089.7 396.8l.3-.24 13.1 17.18-.32.24z" class="st7"/><path id="XMLID_857_" d="M1102.4 414.1l-.36.18-9.7-19.3.37-.2z" class="st7"/></g><g id="XMLID_853_"><path id="XMLID_855_" d="M1121.93 401.74l.25.32-17.2 13.07-.24-.32z" class="st7"/><path id="XMLID_854_" d="M1104.52 414.36l-.18-.36 19.3-9.7.17.35z" class="st7"/></g><g id="XMLID_850_"><path id="XMLID_852_" d="M1117.06 433.92l-.32.24-13.1-17.18.33-.24z" class="st7"/><path id="XMLID_851_" d="M1104.33 416.4l.36-.18 9.7 19.3-.34.17z" class="st7"/></g><g id="XMLID_847_"><path id="XMLID_849_" d="M1084.87 428.97l-.25-.32 17.2-13.07.24.32z" class="st7"/><path id="XMLID_848_" d="M1102.2 416.34l.17.36-19.3 9.72-.17-.36z" class="st7"/></g></g><path id="XMLID_840_" d="M1099.3 387.6c-15.3 2.3-25.9 16.5-23.6 31.9 2.3 15.3 16.5 25.9 31.9 23.6 15.3-2.3 25.9-16.5 23.6-31.9-2.4-15.3-16.6-25.9-31.9-23.6zm7.5 50.5c-12.6 1.9-24.3-6.8-26.2-19.4-1.9-12.6 6.8-24.3 19.4-26.2 12.6-1.9 24.3 6.8 26.2 19.4 1.8 12.6-6.8 24.3-19.4 26.2z" class="st8"/><path id="XMLID_834_" d="M1099.6 389.7c-14.1 2.1-23.9 15.3-21.8 29.4 2.1 14.1 15.3 23.9 29.4 21.8 14.1-2.1 23.9-15.3 21.8-29.4-2.1-14.1-15.3-23.9-29.4-21.8zm7.1 48.1c-12.4 1.9-24-6.7-25.9-19.1-1.9-12.4 6.7-24 19.1-25.9 12.4-1.9 24 6.7 25.9 19.2 1.9 12.4-6.6 24-19.1 25.8z" class="st6"/><path id="XMLID_828_" d="M1099.9 391.6c-13.1 2-22.1 14.1-20.2 27.2 1.9 13.1 14.1 22.1 27.2 20.2 13.1-2 22.1-14.1 20.2-27.2-2-13.1-14.2-22.1-27.2-20.2zm6.8 46.1c-12.3 1.8-23.9-6.7-25.7-19-1.8-12.3 6.7-23.9 19-25.7 12.3-1.8 23.9 6.7 25.7 19 1.9 12.3-6.6 23.8-19 25.7z" class="st6"/></g><g id="XMLID_801_"><path id="XMLID_263_" d="M1076.37 379.58l-48.07 7.16-.46-3.07 48.07-7.16z" class="st9"/><path id="XMLID_262_" d="M1070.68 423.28l-2.22 2.82-41.32-32.55 2.23-2.83z" class="st9"/><path id="XMLID_261_" d="M1020 426.7s3.2-3.6 5.2-10.4c2-6.8 3.8-15 3.7-16.9-.1-1.9-.7-2.4-.7-2.4l-1.8-.2s-1.3 2.5-1.7 6.9c-.4 4.4-1.6 12.7-1.9 13.7-.3 1-2.9 8.5-3.6 8.8l-.5.8 1.3-.3z" class="st9"/><path id="XMLID_260_" d="M1028.72 396.7l-2.48-.3 1.96-16 2.48.32z" class="st9"/><path id="XMLID_259_" d="M1025.5 396.5c0 .2.2.4.4.5l2.5.3c.2 0 .5-.1.5-.3 0-.2-.2-.4-.4-.5l-2.5-.3c-.2-.1-.4.1-.5.3z" class="st9"/><path id="XMLID_258_" d="M1070.08 426.68l-1.98-.26 7.17-54.93 1.98.25z" class="st9"/><path id="XMLID_257_" d="M1104.52 415.35l-1.54 1.1-28.15-39.12 1.54-1.1z" class="st9"/><path id="XMLID_256_" d="M1103.7 415.9l-34.4 10.53-.36-1.14 34.42-10.54z" class="st9"/></g><g id="XMLID_798_"><circle id="XMLID_800_" cx="1019" cy="427.9" r="3.2" class="st10"/><circle id="XMLID_799_" cx="1019" cy="427.9" r="2.4" class="st11"/></g><g id="XMLID_765_"><g id="XMLID_795_"><path id="XMLID_797_" d="M1074.47 439.2l-1.5.53-4.3-12.6 1.5-.5z" class="st12"/><path id="XMLID_796_" d="M1077.3 439.2c0 .1 0 .1-.1.1l-4.7.7c-.1 0-.2 0-.2-.1l-.1-.8c0-.1 0-.1.1-.1l4.7-.7c.1 0 .2 0 .2.1l.1.8z" class="st13"/></g><path id="XMLID_794_" d="M1068.27 416.86l34.58-4.7.08.6-34.58 4.7z" class="st14"/><path id="XMLID_793_" d="M1104.18 418.47l-31.12 16.02-.23-.45 31.12-16.02z" class="st14"/><g id="XMLID_775_"><path id="XMLID_779_" d="M1060.2 427.4c.8 5.1 5.5 8.5 10.5 7.8 5.1-.8 8.5-5.5 7.8-10.5-.8-5.1-5.5-8.5-10.5-7.8-5.1.7-8.6 5.4-7.8 10.5zm8.8-2c0 .1 0 .2-.1.3-.1.1-.2.1-.3.1l-7.1-2c-.1 0-.1-.1-.2-.1 0-.1 0-.1 0-.2.4-1.3 1.2-2.4 2.1-3.3 1-.9 2.1-1.6 3.4-2 .1 0 .1 0 .2 0s.1.1.1.2l1.9 7zm7.1-4c0 .1-.1.1-.1.2l-6.2 4c-.1.1-.2.1-.3 0-.1 0-.1-.1-.1-.2l-.4-7.3c0-.1 0-.1.1-.2s.1-.1.2-.1c1.3 0 2.6.3 3.8.9 1.2.6 2.2 1.4 3 2.5 0 .1 0 .1 0 .2zm-.2 9.1l-6-4.3c-.1-.1-.1-.1-.1-.2s.1-.2.2-.2l6.7-3.1c.1 0 .1 0 .2 0s.1.1.2.2c.5 1.2.7 2.5.5 3.9-.1 1.3-.5 2.6-1.2 3.7 0 .1-.1.1-.2.1-.2 0-.3 0-.3-.1zm-9.4 3l2.7-6.8c0-.1.1-.2.2-.2s.2 0 .3.1l4.6 5.7c0 .1.1.1.1.2s-.1.1-.1.2c-1.1.8-2.3 1.2-3.6 1.4-1.3.2-2.6.1-3.9-.3-.1 0-.1-.1-.2-.1-.2-.1-.2-.2-.1-.2zm-4.8-4.4c-.5-1.2-.7-2.5-.6-3.8 0-.1 0-.1.1-.2.1 0 .1-.1.2-.1l7.3 1c.1 0 .2.1.2.2s0 .2 0 .3l-4.5 5.8c0 .1-.1.1-.2.1s-.1 0-.2-.1c-1.1-.9-1.8-1.9-2.3-3.2z" class="st6"/><path id="XMLID_776_" d="M1060.2 427.4c.8 5.1 5.5 8.5 10.5 7.8 5.1-.8 8.5-5.5 7.8-10.5-.8-5.1-5.5-8.5-10.5-7.8-5.1.7-8.6 5.4-7.8 10.5zm.5-.1c-.7-4.7 2.6-9.2 7.3-9.9 4.7-.7 9.2 2.6 9.9 7.3.7 4.7-2.6 9.2-7.3 9.9s-9.2-2.5-9.9-7.3z" class="st15"/></g><g id="XMLID_772_"><circle id="XMLID_774_" cx="1103.4" cy="415.3" r="3.2" class="st10"/><circle id="XMLID_773_" cx="1103.4" cy="415.3" r="2.4" class="st11"/></g><g id="XMLID_769_"><path id="XMLID_771_" d="M1064.06 413.33l1.52-.5 4.3 12.57-1.52.52z" class="st12"/><path id="XMLID_770_" d="M1066.5 412.9c0 .1 0 .1-.1.1l-4.7.7c-.1 0-.2 0-.2-.1l-.1-.8c0-.1 0-.1.1-.1l4.7-.7c.1 0 .2 0 .2.1l.1.8z" class="st13"/></g><g id="XMLID_766_"><circle id="XMLID_768_" cx="1069.3" cy="426" r="1.7" class="st13"/><circle id="XMLID_767_" cx="1069.3" cy="426" r="1.2" class="st16"/></g></g><path id="XMLID_763_" d="M1075.1 371.9c0 .1.1.2.2.3l1.7.2c.1 0 .2-.1.2-.2l.7-5c0-.1-.1-.2-.2-.3l-1.7-.2c-.1 0-.2.1-.2.2l-.7 5z" class="st17"/><path id="XMLID_761_" d="M1080.4 367.7s3.6-3.2 4.7-4.4c1.1-1.2 1.4-3.3-2.3-1.6-3.7 1.7-6 2.7-8.3 3.5-2.3.8-7.6 2.1-9.4 3.8-1.8 1.8-2.4 3.7 1.1 2.3 3.5-1.4 3.2-2 7.2-2.8 4.1-.8 4.4-.3 5.4-.4 1.1-.2.3.3 1.6-.4z" class="st6"/></g><path d="M1234.9 436.9l-4.9-27.4c-3.9.5-8.1 2.6-12 3.6 3.3-3.4 7-6.4 11-9l-.1-.7c-6.4 1.9-12.4 5-17.5 9.1 3.5-4.6 7.4-8.9 11.7-12.9-9.6 2.8-16.4 10.6-22.5 18.1 3.1-6.7 6.2-13.3 9.3-20-7.5 4.3-13.9 10.3-18.3 17.3 1-8 1.4-16.1 1.3-24.1-2.3 7.8-5.4 15.4-9.1 22.7.1-7.9-2.2-15.7-6.7-22.3-.6 8.3-1.2 16.7-1.7 25-3.7-6.4-8.7-12.2-14.7-16.8 1.1 6.1 2.2 12.1 3.3 18.2-2.5-3.4-6.8-5.8-11.3-6.2 2.3 2.2 3.9 5.1 4.2 8.2-2.1-2.1-4.8-3.5-7.8-4.2.8 2.4 1.5 4.8 2.3 7.3-1 .4-2.2.1-2.7-.7 2.2 3.5-10 2.7-12 3-5 .9-9.7 3.2-14.8 3.6 4.1-1.9 8-4.1 11.7-6.6-7-.4-14.3 1.2-20.4 4.7 2.9-3 6.1-5.8 9.5-8.3-8 2.1-15.4 6.2-21.3 11.7 3.2-4 3.8-9.2 4.3-14.1-3.8 5.4-7.9 10.5-12.5 15.3.8-4.7-.4-9.7-3.2-13.6-1.6 5-3.3 10-4.9 15-3.6-3.4-8.3-5.6-13.5-6.3 1.3 3.3 2.6 6.6 3.9 9.9-3-1.7-6.7-2.5-10.4-2.1.7 1.5 1.5 2.9 2.2 4.4.4.8-11 2.3-12.6 1.8 1.2-1.7 2.8-3.2 4.3-4.7-4.9 1-9.7 2.8-14.1 5.2 2.5-2.6 5.6-4.8 8.9-6.4-6.6-.5-12 4.9-18.3 7.2 1.1-3.1 1.6-6.4 1.5-9.7-2.9 3.2-5.3 6.6-7.2 10.3-1.4-3-3.3-5.8-5.7-8.3-.6 3-.5 6.1.3 9-3.9-2.1-8.6-3.1-13.2-2.9 2.7.8 5.1 2.3 6.9 4.2-3.1.6-6.3 1.1-9.4 1.7 1.7.3 3.3 1.1 4.5 2.3-.7-.7-10.1 1.6-11.8 1.6-3.7-.1-7.1-.1-10.8.1 1.6-2.2 4-3.9 6.4-5.3-6.5 1.9-12.8 4.2-18.9 7 2.4-2.2 4.5-4.6 6.6-7.1-5.6 2.1-10.9 5-15.6 8.5 1.3-1.9 1.9-4.1 1.5-6.3-2.7 2.9-5.4 5.8-8.1 8.8-.9-2.8-2.6-5.3-4.8-7.4-.5 2.5-1.1 5-1.6 7.5-4.1-.6-8.1-1.7-11.8-3.4 2.8 1.3-.2 9.3-3.5 4.7-1-1.3-.7-3.1-.5-4.8-2 1.4-3.5 3.5-4.1 5.7-.1.3-.2.7-.5.8-.5.2-.9-.4-1.1-.9-1.4-5.1 1.3-10.5 3.9-15.3-5.1 5.4-9 11.6-11.5 18.3-.7-1.9-.6-4-.6-6.1.1-3.6.2-7.3.3-10.9 0-1.7.1-3.4.9-4.9-1.3 2.2-2.6 4.4-3.8 6.6-3.6 6.2-7.3 12.7-8.1 19.6-2-4.2-1.5-9.9-4.1-13.7-.7 1.4-4.7 12.8-3.7 13.8-1.3-1.3-2.1-3.1-2-4.9-2 3-4.4 5.7-7.1 8.1-1.7-3-1.8-6.8-.2-9.9-5.4 2.4-17.3 7.7-19.5 13.2 1.2-2.9 1.5-6.1.9-9.1-2.7 3.1-4.9 6.5-6.6 10.1-3-3.5-6.1-7-9.2-10.4l.6 11.6c-4.6-4.1-10.3-7.2-16.5-8.9 1.8 3.5 3.6 7.1 5.4 10.6-4.6-2.9-10.4-4.4-16.1-4.2 2.7.3 5.3 1.4 7.4 3-1.4-1.1-9.2-.1-11.2-.1 3.7 4.8-3 5.5-6.6 6.3.8-1.8 2-3.5 3.6-4.9-5.3 1.6-10.3 3.9-15.1 6.6 2-2 3.9-4.1 5.9-6.1-5.1 2.4-10 5.1-14.8 8.1 1.3-2.3 2-5 1.8-7.5-2.4 3.7-5.5 7-9 9.9.5-3.4-.3-6.8-2.3-9.6-.4 2.8-.8 5.6-1.2 8.4-4.7-4.3-10-8-15.7-11 1.9 3.8 3.4 7.9 4.3 12.1-4.7-.8-9.4-1.1-14.2-.8 1.5 1.9 3 3.9 4.5 5.8-.8-1-17.9.8-19.5 1.2 1.3-1.9 3-3.5 5-4.8-5.4.1-10.4 3-14.9 5.8.6-2.2 1.1-4.5 1.7-6.7-2.8 2.6-5.1 5.6-6.7 8.8-1.1-3.1-2.3-6.1-3.4-9.2-1.6 3.3-2.2 7-1.7 10.5-1.1.4-1.8-.9-2.2-1.8-.7-1.9-1.9-3.5-3.4-4.9-.1 3.3.6 6.6 1.3 9.9-.8.1-12.8 1.2-12.8 1.1l4.6 25.5" class="st18"/><path d="M1115.4 401.7c1.6 2.5 3.4 5 5.7 6.9 1.5 1.2 3.2 2.1 5 2.9 4.9 2.3 10 3.8 15.5 3.3 2.8-.3 6.5-1.5 9.3-.9 2.1.5 3.7 2.7 4.8 4.4 1.1 1.6.3 5.5.2 7.3-.1 3.1-.4 5.9-1.4 8.9-.7 2.1.8 3.7 1.9 1.3.9-1.9 1.3-4.3 1.7-6.4.8-4.4 1.1-8.8.8-13.3 0-.4 0-.7-.2-1-.2-.4-.5-.7-.8-1.1-1.3-1.9-.9-5.6-1.1-7.9-.3-2.8-.8-5.5-1.5-8.2-2.8-10.8-11.9-20.1-22.9-21.9-9.2-1.5-18.6 2-27.8.4 2.2 8.9 5.8 17.5 10.8 25.3zM1187.9 397.2c-.9 2.1-1.8 4.1-3.3 5.8-1 1.1-2.1 2-3.3 2.8-3.5 2.5-7.5 4.5-11.8 4.9-1.9.2-3.9.1-5.7-.3-1.6-.4-2.7-.9-3.8.7-.6.8-.8 1.8-1 2.8-.6-.2-.7-1-.7-1.7-.1-6.7-1-13.5 1.7-19.8 2.4-5.6 6.6-9.5 12.2-11.9 6.5-2.3 13.9-1 20.4-3.3-.5 6.8-2.1 13.6-4.7 20zM1155.5 393.3c.7 1.4 1.4 3.2 1.1 4.1 2.1-5.3 4.7-11 5.4-16.7.6-4.7-1.3-10.1-3.7-14.1-1.6-2.7-3.8-4.8-5.7-7.3-1.6-2.2-3-4.3-5.2-6.1-.4-.3-.7 2.6-.7 2.8-.1 1.5-.3 2.9-.5 4.4-1.1 8.5-.9 17.8 3.8 25 1.4 2.2 3.3 4.1 4.7 6.3.2.4.5.9.8 1.6z" class="st19"/><path id="XMLID_759_" d="M943.9 104.2c-1.7-8.6-9.8-14.2-18.3-12.9-.1-.6-.1-1.1-.2-1.7-1.7-8.8-10.3-14.5-19.1-12.8-4.4.9-8 3.4-10.3 6.8-3.4-2.3-7.8-3.3-12.2-2.4-8.8 1.7-14.5 10.3-12.8 19.1.1.6.2 1.1.4 1.6-.3 0-.6.1-.9.2-8.8 1.7-14.5 10.3-12.8 19.1l86.2-17z" class="st20"/><path id="XMLID_758_" d="M789.4 143.2c-.9-4.4-5.1-7.3-9.5-6.6 0-.3-.1-.6-.1-.9-.9-4.5-5.4-7.5-9.9-6.6-2.3.5-4.1 1.8-5.3 3.6-1.8-1.2-4-1.7-6.3-1.2-4.5.9-7.5 5.4-6.6 9.9.1.3.1.6.2.8-.2 0-.3 0-.5.1-4.5.9-7.5 5.4-6.6 9.9l44.6-9z" class="st20"/><path id="XMLID_757_" d="M831.1 92.6c-.6-2.7-3.2-4.5-5.9-4.1 0-.2 0-.4-.1-.5-.6-2.8-3.3-4.6-6.2-4.1-1.4.3-2.6 1.1-3.3 2.2-1.1-.7-2.5-1-3.9-.8-2.8.6-4.6 3.3-4.1 6.2 0 .2.1.4.1.5-.1 0-.2 0-.3.1-2.8.6-4.6 3.3-4.1 6.2l27.8-5.7z" class="st20"/><path id="XMLID_754_" d="M885.4 128.4c0 .1.3.1.3-.1s.1 0 .2.1 1.1.2 1.1-.8-.7-3.7-.7-3.7 2.5 3.1 2.7 3c.2-.1 1.1 0 .7-1.4 0 0 1.1.6.7-1.1 0 0 .4-.9-.4-2.5 0 0-.9-1.8-3.6-4.2 0 0 0-.6.2-.9.2-.3 1-2.7 1-2.7s.6 0 .6-.6c0 0 .7.3 1.1-.4 0 0 .6.3.9-.7 0 0 .5-.1.7-.9 0 0 .5-.2.7-.7 0 0 1.1-.2 1.1-1 0 0 .3 0 .6-.4s.7-.7.3-1c0 0 .4.3.9-.5 0 0 .5-.5.1-.9 0 0 1.3-.6 1.4-1 .1-.4-.4-1-.4-1s1.5-.3 1.5-.7c0-.4-.2-.9-.3-.9 0 0 1.7-.7 1.6-1.3-.1-.3-.1-.4-.2-.4.3-.2 1.4-.9 1.5-1.2.1-.4-.2-.6-.2-.6s1.3-1 1.2-1.2c-.1-.3-.4-.5-.4-.5s.8-.8.8-1.2c0 0 .6-.6.3-.7-.3-.1-1.2.7-1.2.7s-3.4 2.5-3.7 2.5c0 0 .8-2.4.9-2.5.1-.2-.2-.1-.5.3s-3 3-4.6 4.2c-1.6 1.2-4.3 3.3-4.3 3.3s-.1-.6-.2-1.3c-.2-.6-.5-1.3-.8-1.8.2-.6.3-1.6 0-2.4 0-.1-.2-.1-.3 0-.4.5-.8.9-1.2 1.2-.4-.1-.7-.1-1.1 0-1.3.1-2 1-2.3 1.7-.2.4-.5.7-.5 3.3 0 2.5 0 2.8-.2 3-.2.3-.6 1.9-.6 1.9s-1.5 4.4-.8 7.8c0 0 .3 1.6.4 1.7.1.1.3 0 .3 0s.4.6.5.7c.1.1.7 1 .7 1l.9 1.3s.9 1.4.9 1.5c0 .1.2.2.2.2s.3.8.4 1c.1.2.1.7.4 1.3.5 1 .6 1.5.7 1.5zm-.7-25.9c-.2-.2-.1-.4 0-.6.2-.2.4-.1.6 0 .2.2.1.4 0 .6s-.4.1-.6 0z" class="st21"/><path id="XMLID_751_" d="M819.2 145.3s.6-.1 1.7-.7 1.6-1.7 1.6-1.7 0 0 0 .3-.3 1.2-.3 1.2.4 0 .9-.2c.4-.2.6-.7.6-.7s.3.1.7-.1.4-.5.4-.5.2 0 .6-.1c.4-.1.5-.6.5-.6s.2 0 .7-.3c.5-.3.6-1.2.6-1.2s.4-.1.7-.6c.3-.5.3-1.2.3-1.2s.8-.5 1.1-.9.2-.8.2-.8.6-.3 1.4-.8 1.4-1.8 1.4-1.8.2-.1.4-.3 2.1-.8 3.3-.9c1.2-.1 3.5-.5 3.5-.5s-1-1.2-1.2-1.7c.4-.9.4-2.1.4-2.1s-1.4.8-3.3 2-3 1.6-3 1.6c-.4-.2-1.1 0-1.6-.1-.8-.2.4-1-.3-1.3.2-.1.4-.2.4-.3.1-.3-.2-.6-.5-.6.2-.2.4-.4.4-.7 0-.3-.2-.5-.5-.5.5-.4.6-.9-.1-1.2.2-.3.4-.4.2-.7-.1-.2-.3-.3-.4-.3 0-.3.3-.5.1-.8-.1-.2-.3-.3-.4-.4-.1 0-.3 0-.3-.1s.1-.2.1-.2c.1-.2.1-.4.1-.6-.1-.5-.4-.4-.7-.5.1-.3.2-.7-.1-.9-.2-.2-.4 0-.7 0 .2-.9-.3-1.6-1.2-1.8.1-.7-.4-.8-.9-.8.1-.6-.3-1.7-1-1 0-.6-.8-1.1-1.4-1 0 .2.3 1.1 0 1.1-.2 0-.7-1.2-.8-1.4-.2-.2-.9-1.1-1.1-.5-.1.4.3.9-.2 1.3-.3-.4-.6-.9-1.1-1.1-.2-.1-1-.6-1.1-.2 0 .2.2.5.3.7.1.3.2.7.3 1 .1.2.5 1.3.1 1.4-.6-.7-.7-3-2-2.8.7 1.4 1.2 2.7 1.6 4.2.2.7.3 1.5.5 2.2.1.5-.1 1 0 1.5.1.7.4 1.1.9 1.6.5.6 1 1.1 1.5 1.7.7 1 1.6 2.2.9 3.3-.2.3-.6.8-1.1 1.1-.5.4-1.1.9-1.5 1.7-.4.8.2 1.7.2 1.7l-.4 1.2.9-.4s.2 0 .4.1c.2 0 1.3 0 1.3 0s-.1.9-1 2.9c-.9 2.1-3 4.1-3 4.1zm2.7-8.4c.1.1 0 .3-.1.3-.1.1-.3 0-.3-.1-.1-.1 0-.3.1-.3s.2-.1.3.1z" class="st21"/><path id="XMLID_748_" d="M857.7 158.1s.6-.4.9-1.2c.4-.2 1.7-1.2 2.1-1.8.8-1 1.4-2.7 1.5-3.5 0-.3.1-.6.2-.9.3-.6.3-1.6.5-2.3.1-.2.8-5.7.8-5.7s-.8.8-1.2 1.5c-.3-.5-1.1-1.4-1.1-1.4s.7 5.3.3 5.4c-.3.1 0-1-.7-.8.1-.1.2-.3.1-.5-.1-.3-.5-.3-.7-.2.1-.2.1-.5-.1-.7-.2-.2-.4-.2-.6-.1.2-.6 0-1-.7-.8 0-.3.1-.5-.2-.6-.1-.1-.4-.1-.5 0-.1-.2-.1-.5-.4-.7-.1-.1-.4-.1-.5-.1-.1 0-.2.1-.3.1-.1 0 0-.2 0-.2-.1-.2-.1-.3-.3-.5-.3-.3-.5-.1-.8 0-.1-.2-.3-.6-.5-.7-.3 0-.3.2-.5.3-.3-.8-1.1-1-1.8-.7-.3-.6-.7-.4-1.1-.1-.2-.5-1.1-1.1-1.3-.2-.4-.4-1.1-.4-1.5 0 .1.1.8.6.6.8-.1.1-1.2-.5-1.4-.6-.2-.1-1.2-.3-1 .2.1.4.7.5.6 1-.5-.2-.9-.3-1.4-.3-.2 0-1 .1-.9.4.1.2.4.3.5.4.3.2.5.4.7.6.2.2 1 .7.9 1-.8-.2-2.1-1.8-2.9-.9 1.2.6 2.4 1.3 3.4 2.2.5.4 1 .9 1.5 1.4.4.3.5.8.8 1.1.4.4.9.6 1.5.7.7.1 1.3.3 2 .5 1 .3 2.3.8 2.4 1.9 0 .4-.1.9-.2 1.4-.2.5-.3 1.2-.2 2.1.1.8 1.1 1.1 1.1 1.1l.4 1.4zm.2-2.1c.1.1.1.2.1.3-.1.1-.2.1-.3.1-.1-.1-.1-.2-.1-.3s.2-.1.3-.1z" class="st21"/><path id="XMLID_747_" d="M815.9 179c-.7-.6-1.4-1.3-2.1-2-.8-.8-1.3-1.9-1.9-2.8-.5-.7-1-1.6-1.1-2.4-.2-1-.5-2-.8-2.9-.2-.5-.6-1.2-.4-1.7 0 0 0 0 .1 0 0-.1.1-.1.1 0 0 0 .1 0 .1 0v.1c0 .1.1.1.1.2.9 1.4 1.9 2.6 2.6 4-.4-1-.9-2-1.2-3 .6 1 1.6 2.2 2.2 3.5.1.2.2.5.4.7-.2-.6-.4-1.1-.6-1.7 0 0 0-.1.1 0 .7.9 1.2 1.9 1.7 2.9 0-.2-.1-.4-.1-.6 0 0 .1-.1.1 0 .7.9 1.2 1.8 1.8 2.8.2.3.3.5.5.8-.2-.5-.5-1.4-.4-1.6 0 0-.1 0-.1 0s0 0 0-.1c0 0 .1-.1.1 0 .8 1.2 1.8 2.5 2.6 3.9-.1-.4-.1-1-.3-1.2 0 0 0-.1 0-.1.7.3 1.2 1.7 1.4 2.2.1.3.2.5.4.8 0-.3.1-.6.1-.8 0-.1.1-.1.1 0 .4 1 .8 2.1 1.2 3.1.1.1.1.3.2.4.3-.1.6-.2.9-.2.3 0 .6 0 .9.1.2-.2.4-.4.6-.6.7-.9 1.4-1.8 2.2-2.6 1.3-1.5 3.1-2.8 4.8-3.8 2.1-1.2 4.5-2 6.8-2.6 1-.3 1.9-.7 2.8-1.2 1.3-.6 1.8-2.1 3.1-2.7-.9.8-1.6 1.9-2.5 2.8-.7.6-1.6 1-2.4 1.3-.1 0-.2.1-.3.1 1.5-.4 2.6-1.1 4-1.8 0 0 .1 0 .1.1-.9 1-1.9 1.8-3.2 2.2.1 0 .1 0 .2.1 0 0 0 0 0 .1-1.1.7-1.7 1.4-3.1 1.5-.3 0-.6.1-1 .1.5.2 1 .3 1.5.5.2.1 0 .3-.1.2.2.8-2.2.7-2.5.7-.2 0-.3 0-.4 0 .3.1.5.2.6.5 0 0 0 .1 0 .1-.8.4-1.9.6-2.7.7-.3 0-.5.1-.7.1.7.1 1.3.5 1.5.9 0 0 0 0-.1 0-.8-.2-2.1.2-2.8.6.5 0 1 .2 1.2.7 0 .1 0 .1-.1.1-.8-.1-2.2.8-3 1.4.2-.1.5-.1.7-.1.1 0 .1.1.1.1-.2.2-.5.4-.7.5-.3.2-.6.6-.8.9-.1.1-.1.2-.2.3.6.4 1.3.7 2.1.7 1.3 0 2.5-.3 3.8-.5.2 0 .3.2.2.3-.5.5-1.2.5-1.9.6.5 0 1.1 0 1.5.2-1.1 0-2.2.2-3.3.2.5.1 1 .2 1.6.3.1 0 .2.2 0 .2-.7.4-1.7.3-2.6.2 0 .1-.1.1-.1.2.1 0 .2 0 .2 0 .4 0 .8 0 1.1.2.1 0 0 .1 0 .2-.7.1-1.4.2-2.1.2-.2.1-.5.1-.8.2-.2.1-.4.2-.6.3.2.1.4.2.6.3.2.1.5.3.8.3.3 0 .2.4 0 .4-.2.1-.6 0-.8-.1-.6-.2-1.2-.3-1.8-.7 0 0 0 0-.1 0-.9 0-1.8 0-2.7-.1-.9-.2-1.5-.4-2.3-.7-.1 0-.3-.1-.4-.2-.6.1-1.3 0-1.6-.5-.2 0-.4-.1-.7-.1-.1 0-.2 0-.2-.1-.1 0-.1 0-.2 0s-.1-.1-.1-.1c0-.3.5-.5.8-.7 0 0 .1 0 .1-.1 0-.6.2-1.1.8-1.4.1 0 .2-.1.3-.1.1-.1.3-.1.4-.2-.1-.1-.1-.3-.2-.4-.6-1.2-1.3-2.2-2.2-3.2-.2-.5-1.1-.9-1.9-1.4z" class="st22"/><path id="XMLID_746_" d="M926 153c-.7-.4-1.6-.5-2.4-.8-.9-.3-1.8-1.1-2.5-1.6-.8-.6-1.5-1.3-2.3-1.8-.6-.4-1.3-1-2-1.2-1.7-.5-3.6-.6-5.3-.2-.2 0-.5.1-.7.1-.6-.3-1.2-.6-1.6-.7-.6-.2-1.4-.3-2.1-.1-.3-.2-.5-.4-.8-.6-.6-.5-1.4-.8-2-1.3-.7-.5-1.5-1-2.4-1.3-1.7-.6-2.9-.8-4.7-.5-1 .1-2 .1-3 .1-1.2-.1-2.6.1-3.7-.4.2.2.4.3.6.4 1 .7 2 1.1 3.1 1.6 1.7.8 3.3 1.6 5 2.3 1.4.6 3.1 1 4.6 1.2.3.1.6.1.9.1 0 .1 0 .1 0 .2 0 0-.1 0-.1.1-.3.3-.6.5-.9.7-.1.1-.1.3 0 .3s.2 0 .4 0c.1 0 .2-.1.3 0 .1 0 .1 0 .2 0s.2 0 .3-.1c.1 0 .1 0 .2 0s.1 0 .2 0c.4.3.9.5 1.5.5.4.7 1.2 1.6.6 2.4-.5.6-1.3 1.1-1.4 1.9 0 .1-.1.2-.1.2 0 .1.1.1.1.1s.1 0 .1 0c.1-.1.2-.2.3-.3.4-.3.1.2.2.6 0 .1.2.2.3.1.1-.1.1-.1.1-.2-.1.2-.1.4-.1.7.1.2.2.2.4.1s.3-.3.4-.5c-.1.2-.1.5-.1.7 0 .1.2.2.3.1.1-.1.3-.4.4-.6.1-.2.1-.5.1-.2 0 .4-.1 1 .2 1.4 0 .1.2.1.3.1.4-.3.7-1 .6-1.5.1.6-.1 1.3.2 1.8.1.1.3.2.4 0 .2-.2.3-.4.4-.6.1.3.2.5.4.6.1 0 .2 0 .3 0 .2-.2.3-.4.3-.7.1.4.3.9.8.6.3-.2.3-.8.3-1 0 0 .1.4.2.7.1.1.1.2.2.3 0 0 .1.1.2 0 .3-.1.4-.4.3-.7.2.3.3.5.6.6.1.1.3 0 .3-.1.1-.2.1-.3 0-.5-.9-1.2.1 0 .5.1.5.1.4-.3.3-.6.2.1.4.1.5.2.1 0 .3-.1.2-.2 0 0-.1-.1-.1-.1.1.1.2.1.2.2.1 0 .3 0 .3-.2.1.1.2.2.3.3.1 0 .1 0 .1-.1-.4-.8-1-1.7-1.7-2.2-.6-.4-1.2-.7-1.8-1-.4-.2-.7-.5-.9-1 0 .1 0-.4-.1-.6.5.3 1 .5 1.5.7 1.3.4 2.5.2 3.9 0 .3 0 .6-.2.9-.1.9.2 1.6.8 2.4 1.2.7.3 1.2.5 2 .6.5 0 1.3-.1 2-.1.3.1.6.1 1 .1.2-.2.2-.3.1-.3z" class="st22"/><linearGradient id="XMLID_2_" x1="127.215" x2="-36.91" y1="267.087" y2="329.182" gradientUnits="userSpaceOnUse"><stop offset="0" stop-color="#474747"/><stop offset=".064" stop-color="#4B4B4B"/><stop offset=".129" stop-color="#575757"/><stop offset=".195" stop-color="#6C6C6C"/><stop offset=".261" stop-color="#888"/><stop offset=".31" stop-color="#A3A3A3"/><stop offset=".397" stop-color="#AFAFAF"/><stop offset=".554" stop-color="#CFCFCF"/><stop offset=".659" stop-color="#E8E8E8"/></linearGradient><path id="XMLID_21_" d="M34.2 313.2c6-.1 10.8-5 10.9-10.9 2 1 4.3 1.6 6.8 1.5 4-.1 7.5-1.8 10-4.5 2.7 3 6.6 4.9 10.9 4.8 7.8-.2 14-6.7 13.8-14.5 0-.7-.1-1.3-.2-2 6.5 1.9 13.3-1.1 16.4-7 6.6 1.6 13.5-2.1 15.8-8.7.6-1.7.8-3.5.7-5.2.4-.1.8-.1 1.2-.2.5 4 2.7 7.7 6.3 10.1 6.5 4.3 15.3 2.5 19.6-4.1.4-.6.7-1.1 1-1.7 4.3 5.2 11.6 6.6 17.5 3.6 4.6 5.1 12.3 5.9 17.9 1.8 6-4.4 7.2-12.8 2.8-18.8-3.8-5.1-10.6-6.8-16.2-4.3-.7-.9-1.5-1.7-2.3-2.3-.2-2.3-1-4.6-2.4-6.6-3.7-5-10.3-6.5-15.7-3.9-.7-3.7-2.8-7-6.1-9.2-6.5-4.3-15.3-2.5-19.6 4.1-.7 1.1-1.3 2.2-1.6 3.4-1-1.8-2.4-3.4-4.2-4.7-5.8-3.8-13.7-2.2-17.5 3.6-.9 1.4-1.5 2.8-1.8 4.3-4.3-.8-8.8 1-11.4 4.9-1.8 2.8-2.2 6-1.5 9-5.8-1.8-11.9.7-14.8 5.8-2.6-2.6-6.3-4.2-10.3-4.1-7.8.2-14 6.7-13.8 14.5 0 1.3.2 2.6.6 3.7-1.8-1-3.9-1.5-6.1-1.4-7 .2-12.5 6-12.4 13 0 1.6.4 3.2 1 4.6-4 1.8-6.7 5.8-6.6 10.5 0 0-14.4-1.4-8.4 26.8 0 0-5 15.1 14.5 13.2l15.1-1.2S40.8 327.8 31 331c-.2 0 13.5-1.9 3.2-17.8z" class="st23"/><linearGradient id="XMLID_4_" x1="66.935" x2="-97.189" y1="215.625" y2="277.72" gradientUnits="userSpaceOnUse" gradientTransform="matrix(.476 .879 -.879 .476 384.344 56.596)"><stop offset="0" stop-color="#474747"/><stop offset=".064" stop-color="#4B4B4B"/><stop offset=".129" stop-color="#575757"/><stop offset=".195" stop-color="#6C6C6C"/><stop offset=".261" stop-color="#888"/><stop offset=".31" stop-color="#A3A3A3"/><stop offset=".397" stop-color="#AFAFAF"/><stop offset=".554" stop-color="#CFCFCF"/><stop offset=".659" stop-color="#E8E8E8"/></linearGradient><path id="XMLID_5_" d="M141.8 158.3c3 5.2 9.5 7.1 14.8 4.4.1 2.3.7 4.6 1.9 6.7 2 3.4 5.2 5.7 8.7 6.7-1.4 3.8-1.1 8.1 1 11.9 3.9 6.8 12.5 9.1 19.3 5.3.6-.3 1.1-.7 1.6-1.1 1.5 6.6 7.4 11.2 14 11.1 1.8 6.6 8.3 10.9 15.2 9.7 1.8-.3 3.5-.9 4.9-1.8.2.3.5.7.8 1-3.3 2.3-5.5 6-5.9 10.3-.7 7.8 5.1 14.6 12.9 15.3.7.1 1.3.1 2 0-2.6 6.3-.3 13.4 5.2 17.1-2.3 6.4.6 13.7 6.9 16.6 6.7 3.2 14.7.3 17.9-6.4 2.7-5.8 1-12.5-3.9-16.3.4-1 .8-2.1 1-3.1 2-1.2 3.6-3 4.7-5.3 2.6-5.6.8-12.2-4.1-15.7 2.9-2.3 4.9-5.8 5.2-9.8.7-7.8-5.1-14.6-12.9-15.3-1.3-.1-2.6 0-3.8.2 1.1-1.7 1.9-3.7 2.1-6 .6-7-4.6-13.1-11.6-13.7-1.6-.1-3.2 0-4.7.5-1.4-4.1-5.1-7.3-9.7-7.7-3.3-.3-6.4.9-8.6 3-1.2-5.9-6.3-10.1-12.2-10.2 1.1-3.6.7-7.5-1.3-11-3.9-6.8-12.5-9.1-19.3-5.3-1.1.6-2.1 1.4-3 2.3 0-2.1-.6-4.2-1.7-6.1-3.5-6.1-11.2-8.2-17.3-4.7-1.4.8-2.6 1.8-3.6 3-3.5-2.6-8.3-3.1-12.3-.8 0 0-5.6-13.4-27.6 5.4 0 0-15.7 2.8-4.7 19l8.2 12.7s10.1-9.2 2.7-16.3c-.1-.1 8.1 11.1 17.2-5.6z" class="st24"/><g id="XMLID_712_"><linearGradient id="XMLID_6_" x1="-123.978" x2="196.361" y1="817.263" y2="817.263" gradientUnits="userSpaceOnUse" gradientTransform="matrix(-.453 .892 .892 .453 -423.25 18.637)"><stop offset="0" stop-color="#BCBEC0"/><stop offset=".489" stop-color="#808285"/><stop offset="1" stop-color="#58595B"/></linearGradient><path id="XMLID_745_" d="M405.9 419.4l-29.8 5.1-33.6-142.7c1.7-.4 2.9-2.2 2.5-4l-1.2-7.2c-.3-1.9-2.1-3.2-4-2.8l-24.5 4.2c-1.9.3-3.2 2.1-2.8 4l1.2 7.2c.3 1.8 1.9 3 3.7 2.9l16.1 145.7-25.2 4.4-33.6-142.7c1.7-.4 2.9-2.2 2.5-4l-1.2-7.2c-.3-1.9-2.1-3.2-4-2.8l-24.5 4.2c-1.9.3-3.2 2.1-2.8 4l1.2 7.2c.3 1.8 1.9 3 3.7 2.9l16.1 145.7-25.2 4.4-33.6-142.7c1.7-.4 2.9-2.2 2.5-4l-1.2-7.2c-.3-1.9-2.1-3.2-4-2.8l-24.5 4.2c-1.9.3-3.2 2.1-2.8 4l1.2 7.2c.3 1.8 1.9 3 3.7 2.9l16.1 145.7-29.8 5.1 14.9 86.3 237.8-41-14.9-86.2z" class="st25"/><linearGradient id="XMLID_7_" x1="-6.332" x2="163.43" y1="837.139" y2="837.139" gradientUnits="userSpaceOnUse" gradientTransform="matrix(-.453 .892 .892 .453 -423.25 18.637)"><stop offset="0" stop-color="#BCBEC0"/><stop offset=".489" stop-color="#808285"/><stop offset="1" stop-color="#58595B"/></linearGradient><path id="XMLID_744_" d="M387.2 492.9L374 416.4l-39.8-10.3 2.8 15.8-37.8-9.7 2.7 15.7-37.7-9.7 2.7 15.7-37.6-9.7L232 440l-37.7-9.7 16.1 93.4 35-6.4v.3l34.8-6.3.1.3 35-6.3v.3l35-6.3v.2z" class="st26"/><linearGradient id="XMLID_8_" x1="27.311" x2="251.922" y1="887.789" y2="887.789" gradientUnits="userSpaceOnUse" gradientTransform="matrix(-.453 .892 .892 .453 -423.25 18.637)"><stop offset="0" stop-color="#BCBEC0"/><stop offset=".489" stop-color="#808285"/><stop offset="1" stop-color="#58595B"/></linearGradient><path id="XMLID_743_" d="M169.7 602.3l282.1-48.7-11.3-65.7-282.1 48.6z" class="st27"/><g id="XMLID_728_"><path id="XMLID_742_" d="M341.4 452.3l-10.15 1.74-.9-5.12 10.16-1.75z" class="st28"/><path id="XMLID_741_" d="M326.22 454.88l-10.15 1.75-.9-5.13 10.17-1.75z" class="st28"/><path id="XMLID_740_" d="M310.92 457.45l-10.15 1.75-.9-5.13 10.16-1.75z" class="st28"/><path id="XMLID_739_" d="M295.72 460.15l-10.15 1.76-.9-5.12 10.16-1.75z" class="st28"/><path id="XMLID_738_" d="M280.42 462.78l-10.15 1.75-.9-5.12 10.17-1.74z" class="st28"/><path id="XMLID_737_" d="M265.2 465.34l-10.14 1.75-.88-5.14 10.15-1.75z" class="st28"/><path id="XMLID_736_" d="M249.96 467.98l-10.15 1.75-.88-5.12 10.16-1.74z" class="st28"/><path id="XMLID_735_" d="M340.08 444.3l-10.15 1.75-.88-5.12 10.15-1.75z" class="st28"/><path id="XMLID_734_" d="M324.8 446.97l-10.16 1.75-.88-5.13 10.15-1.76z" class="st28"/><path id="XMLID_733_" d="M309.6 449.56l-10.14 1.75-.9-5.1 10.16-1.76z" class="st28"/><path id="XMLID_732_" d="M294.3 452.25L284.15 454l-.88-5.13 10.15-1.75z" class="st28"/><path id="XMLID_731_" d="M279.1 454.87l-10.16 1.75-.88-5.13 10.15-1.76z" class="st28"/><path id="XMLID_730_" d="M263.83 457.55l-10.15 1.75-.88-5.12 10.15-1.75z" class="st28"/><path id="XMLID_729_" d="M248.63 460.06l-10.15 1.75-.88-5.12 10.15-1.75z" class="st28"/></g><g id="XMLID_713_"><path id="XMLID_727_" d="M405.15 478.14L395 479.9l-.88-5.14 10.15-1.75z" class="st28"/><path id="XMLID_726_" d="M389.88 480.8l-10.15 1.74-.88-5.12 10.15-1.75z" class="st28"/><path id="XMLID_725_" d="M374.6 483.38l-10.13 1.76-.9-5.13 10.16-1.74z" class="st28"/><path id="XMLID_724_" d="M359.37 486.02l-10.15 1.75-.88-5.13 10.15-1.75z" class="st28"/><path id="XMLID_723_" d="M344.07 488.7l-10.15 1.74-.88-5.13 10.15-1.74z" class="st28"/><path id="XMLID_722_" d="M328.93 491.25L318.78 493l-.88-5.12 10.15-1.75z" class="st28"/><path id="XMLID_721_" d="M313.62 493.88l-10.15 1.75-.9-5.13 10.16-1.75z" class="st28"/><path id="XMLID_720_" d="M403.7 470.24L393.57 472l-.88-5.13 10.15-1.75z" class="st28"/><path id="XMLID_719_" d="M388.56 472.86l-10.15 1.75-.88-5.1 10.15-1.76z" class="st28"/><path id="XMLID_718_" d="M373.24 475.45l-10.15 1.75-.9-5.13 10.16-1.75z" class="st28"/><path id="XMLID_717_" d="M358.07 478.07l-10.16 1.75-.87-5.13 10.15-1.76z" class="st28"/><path id="XMLID_716_" d="M342.8 480.78l-10.15 1.75-.9-5.12 10.16-1.74z" class="st28"/><path id="XMLID_715_" d="M327.5 483.4l-10.16 1.75-.9-5.12 10.16-1.75z" class="st28"/><path id="XMLID_714_" d="M312.3 485.95l-10.16 1.75-.88-5.12 10.15-1.75z" class="st28"/></g></g><path d="M335.03 516.8l273.75-48.47 4.24 23.93-273.75 48.45z" class="st29"/><path d="M608.7 468.35l2.17 12.2-273.75 48.46-2.16-12.2z" class="st30"/><circle cx="578.8" cy="501.4" r="18.2" class="st31"/><circle cx="578.8" cy="501.4" r="10.9" class="st32"/><circle cx="578.8" cy="501.4" r="6.8" class="st31"/><circle cx="422.2" cy="529.1" r="18.2" class="st31"/><circle cx="422.2" cy="529.1" r="10.9" class="st32"/><circle cx="422.2" cy="529.1" r="6.8" class="st31"/><circle cx="378.1" cy="536.9" r="18.2" class="st31"/><circle cx="378.1" cy="536.9" r="10.9" class="st32"/><circle cx="378.1" cy="536.9" r="6.8" class="st31"/><path d="M623.5 439.2l9.4 53-30.9 5.5-1.8-10.3c-1.7-9.3-10.6-15.6-19.9-13.9l-33.9 6-10.4-58.7 69.9-12.4 17.6 30.8z" class="st33"/><path d="M564.33 415.58l1.47-.27 10.4 58.8-1.47.26z" class="st34"/><path d="M546.22 452.68l-4.8-27.08 19.9-3.52 4.8 27.08zM573.9 419.8l4.8 27.1 35.6-6.3-12.2-25.8z" class="st35"/><path d="M605.8 408.3l-69.9 12.4-1.3-7.5 60.9-10.8c3.8-.7 7.5 1.1 9.4 4.4l.9 1.5z" class="st34"/><path d="M325.92 434.88l201.96-35.75 14.33 80.94-201.95 35.75z" class="st36"/><path d="M524.12 404.48l12.72 71.9-4.62.8-12.73-71.88zM513.72 406.38l12.72 71.9-4.62.8-12.73-71.88zM503.2 408.2l12.73 71.9-4.63.8-12.72-71.88zM492.8 410l12.7 71.9-4.62.8-12.72-71.87zM482.3 411.93L495 483.8l-4.6.83-12.74-71.88zM471.87 413.73l12.73 71.88-4.63.83-12.73-71.88zM461.37 415.65l12.73 71.88-4.63.82-12.72-71.88zM450.96 417.45l12.72 71.88-4.63.82-12.72-71.88zM440.44 419.27l12.73 71.88-4.63.82-12.73-71.88zM430.04 421.17l12.73 71.9-4.63.8L425.4 422zM419.53 423l12.72 71.88-4.63.82-12.72-71.9zM409.13 424.9l12.72 71.88-4.63.82-12.72-71.9zM398.6 426.72l12.73 71.88-4.62.82-12.72-71.9zM388.1 428.54l12.72 71.88-4.63.82-12.73-71.9zM377.7 430.44l12.72 71.88-4.63.82-12.73-71.88zM367.18 432.26l12.72 71.88-4.63.82-12.72-71.88zM356.78 434.16l12.72 71.88-4.62.82-12.73-71.88zM346.26 435.98L359 507.86l-4.64.82-12.72-71.88zM335.85 437.78l12.72 71.9-4.63.8-12.72-71.88z" class="st37"/><path d="M600.1 449.4l-10.8 1.9c-.7.1-1.1.8-1 1.4l.3 1.8c.1.7.8 1.1 1.4 1l10.8-1.9c.7-.1 1.1-.8 1-1.4l-.3-1.8c-.1-.6-.7-1.1-1.4-1z" class="st35"/><path d="M630.6 475.3l-25.9 4.6 3.5 19.9 18.4-3.3c5.2-.9 8.7-5.9 7.8-11.1l-1.5-8.5c-.1-1.1-1.2-1.8-2.3-1.6zM500.45 491.23l49.33-8.74 4.13 23.33-49.32 8.73z" class="st29"/><path d="M503.3 507.5l49.32-8.72 1.24 7-49.34 8.72z" class="st30"/><path d="M500.48 491.2l49.33-8.74 1.25 7-49.33 8.73z" class="st38"/><path d="M506.2 490.2l1.2 7 1.7 9.3 1.2 7 4-.7-1.3-7-1.6-9.3-1.2-7zM536.2 484.9l1.2 7 1.7 9.3 1.2 7 4-.7-1.2-7-1.7-9.3-1.2-7z" class="st31"/><path d="M625.9 453.2l3 16.8-6.7 1.2c-2.6.5-5-1.3-5.5-3.8l-2.1-12.1 11.3-2.1z" class="st37"/><path id="XMLID_80_" d="M452.1 204.5c-1.5-8.6-9.5-14.4-18.1-13.3 0-.6-.1-1.1-.2-1.7-1.6-8.8-10-14.7-18.8-13.2-4.4.8-8.1 3.3-10.5 6.6-3.4-2.4-7.7-3.4-12.1-2.7-8.8 1.6-14.7 10-13.2 18.8.1.6.2 1.1.4 1.7-.3 0-.6.1-.9.1-8.8 1.6-14.7 10-13.2 18.8l86.6-15.1z" class="st39"/><path id="XMLID_72_" d="M512.3 167.9c-.8-4.4-5-7.4-9.4-6.8 0-.3-.1-.6-.1-.9-.8-4.6-5.2-7.6-9.8-6.8-2.3.4-4.2 1.7-5.4 3.5-1.8-1.2-4-1.8-6.3-1.3-4.6.8-7.6 5.2-6.8 9.8.1.3.1.6.2.9-.2 0-.3 0-.5.1-4.6.8-7.6 5.2-6.8 9.8l44.9-8.3z" class="st39"/><path id="XMLID_68_" d="M343.9 190.4c-.5-2.8-3.1-4.6-5.8-4.2 0-.2 0-.4-.1-.5-.5-2.8-3.2-4.7-6.1-4.2-1.4.3-2.6 1.1-3.3 2.2-1.1-.8-2.5-1.1-3.9-.8-2.8.5-4.7 3.2-4.2 6.1 0 .2.1.4.1.5-.1 0-.2 0-.3 0-2.8.5-4.7 3.2-4.2 6.1l27.8-5.2z" class="st39"/><path d="M161.98 589.07L660.1 504.8l1.15 6.8-498.12 84.27z"/><path d="M574.7 676.5c0-6.9 59.6-12.5 125.4-12.5 65.8 0 112.8 5.6 112.8 12.5s-47 12.5-112.8 12.5c-65.7-.1-125.4-5.7-125.4-12.5z" class="st40"/><linearGradient id="XMLID_10_" x1="283.096" x2="356.363" y1="1179.377" y2="1179.377" gradientUnits="userSpaceOnUse" gradientTransform="matrix(-.094 .996 .996 .094 -898.281 131.093)"><stop offset="0" stop-color="#58595B"/><stop offset=".517" stop-color="#414042"/><stop offset="1" stop-color="#231F20"/></linearGradient><path id="XMLID_705_" d="M182.9 584.2c.3 1 3.5 7.2 4.2 7.9l46-11.6 34.7-2.2 34 2.3c1.9-1.7 3.6-9.1 3.6-11.9 0-5-4.1-9-9.1-9.1-.1-.1-.2-.2-.3-.4.7-.9 1.2-2 1.2-3.3 0-2.9-2.4-5.3-5.3-5.2-1.4 0-2.6.6-3.5 1.4-.2-.1-.3-.2-.5-.3-.3-5.3-6.3-10.7-14.6-12.4-3.4-.7-6.7-.8-9.6-.2-1.3-5.4-6.1-9.4-11.8-9.3-4.1 0-7.8 2.1-9.9 5.3-3.4.5-6.2 2.4-7.9 5.1.1-1.2.1-2.5-.2-3.7-.9-3.7-3.5-6.4-6.7-7.4l1.6-6.8-6 3.4-7.2 1.2 5 3c-2 1.3-3.5 3.5-3.9 6-.6.1-1.2.3-1.8.4-8.9 2.6-14.6 9.8-12.8 16.1.1.4.2.7.4 1-1.7-.5-3.6-.5-5.4 0-4.8 1.4-7.7 6.3-6.3 10.9.2.7.5 1.4.9 2-.5 0-1 .1-1.6.2-3.2 1.2-8 14.5-7.2 17.6zm75.4-20.4l.1-.5c0-.2.1-.3.2-.5s.1-.4.2-.5l.3-.5c.1-.2.2-.3.4-.4.1-.1.3-.3.4-.4.3-.2.6-.5 1-.6l.6-.2.6-.1h.3c.2 0 .2 0 .3 0h.5c.1 0 .3 0 .4.1 0-.3.1-.5.1-.8.2-.5.3-1 .5-1.5.3-.5.5-.9.8-1.4.4-.4.7-.8 1.1-1.2.4-.3.8-.7 1.3-1 .5-.2.9-.5 1.5-.7.5-.1 1-.4 1.6-.4.6 0 1-.2 1.6-.1.5.1.9.1 1.5.2.5.2 1.1.3 1.6.5.5.3.9.5 1.3.8.4.4.8.7 1.1 1.1.3.4.6.8.9 1.3.2.5.4.9.6 1.4.1.5.2 1 .3 1.5 0 .5 0 1 0 1.5-.1-.5-.2-1-.3-1.4-.2-.5-.4-.9-.5-1.3-.2-.4-.5-.8-.8-1.2-.3-.4-.6-.7-.9-1-.3-.3-.7-.5-1.1-.8-.4-.2-.8-.4-1.2-.6-.4-.2-.8-.2-1.2-.4-.4-.1-1-.1-1.4-.1-.3 0-.8.1-1.3.1-.4 0-.8.2-1.3.3-.4.1-.8.4-1.2.6-.4.2-.7.5-1 .8-.3.3-.6.6-.9 1l-.7 1.1-.5 1.2c-.1.4-.2.9-.3 1.3l-.2.8-.7-.3-.4-.1c-.1 0-.2-.1-.4-.1l-.5-.1c-.1 0-.2 0-.2 0h-.7l-.5.1c-.3 0-.6.2-.9.3-.3.2-.6.3-.8.6l-.3.4c-.1.1-.2.3-.3.4-.1.1-.2.3-.3.4l-.2.5c-.1.3-.2.7-.3 1 .2-.4.2-.8.2-1.1zm-3.6-21.2c-.9-2.8-3.1-5.1-5.9-6.4 1.2-1.4 2.7-2.2 4.3-2.2 3 0 5.6 2.7 6.6 6.5-1.3.6-2.4 1.3-3.3 2.2-.5 0-1.1 0-1.7-.1zm-52.3 22.9c0-.2 0-.4 0-.7 0-.3.1-.6.2-.9.1-.3.3-.7.5-1 .2-.3.6-.6.9-.9.4-.2.7-.5 1.2-.6.5-.2.8-.2 1.4-.2.5.1 1 .1 1.4.2.1 0 .1.1.2.1v-.2c0-.4.1-.8.2-1.3s.2-.9.4-1.3.4-.8.6-1.2c.3-.4.5-.8.8-1.1.3-.3.6-.6 1-.9l1.2-.7c.4-.2.9-.3 1.3-.5s.9-.2 1.4-.2c.3 0 .4-.1.7-.1h.6c.4 0 .9.1 1.4.2.5.1.9.3 1.3.5s.9.4 1.2.7c.4.3.8.6 1.1.9.4.3.6.7.9 1.1.1.2.3.4.4.6.3-.1.5-.3.8-.3.5-.1 1.1-.2 1.7-.2.4 0 .5.1.8.1.2 0 .5 0 .8.2l.8.3c.3.1.5.3.7.4.5.3.9.7 1.3 1 .2.2.3.4.5.6.2.2.3.4.4.7l.3.7.2.8c.2.5 0 1 .1 1.5-.1-.5-.2-1-.4-1.4l-.3-.7-.4-.6c-.1-.2-.3-.4-.5-.5l-.5-.5c-.4-.2-.7-.6-1.2-.7-.4-.2-.8-.3-1.2-.4-.2-.1-.5-.1-.7-.1-.2 0-.6 0-.7 0-.4 0-.9.1-1.3.2-.4.2-.8.3-1.2.6l-.6.4-.5-.7c-.2-.3-.4-.7-.6-.9-.2-.3-.5-.6-.8-.8-.3-.3-.6-.5-.9-.7-.3-.2-.7-.4-1-.6-.3-.1-.7-.3-1.1-.4-.4-.1-.6-.2-1.1-.2l-.6-.1c-.1 0-.4 0-.5 0-.4.1-.8 0-1.1.1l-1.1.3-1 .5c-.3.2-.6.5-1 .7-.3.2-.6.5-.9.8-.3.3-.5.6-.7 1-.2.3-.5.7-.6 1.1-.1.4-.4.7-.4 1.2l-.1.3c.3.1.5.3.8.4.3.3.7.5.9.9.2.3.4.6.6 1 .2.3.2.6.2.9.1.3.1.5 0 .7 0 .4-.1.6-.1.6s-.1-.2-.2-.6c0-.2-.1-.4-.2-.6-.1-.2-.2-.4-.4-.7-.2-.2-.4-.5-.6-.7-.2-.2-.5-.4-.8-.6-.3-.1-.6-.3-1-.4-.3-.1-.7-.1-1.1-.1-.3 0-.9 0-1.1.2-.3.1-.6.2-.9.4-.3.2-.6.4-.8.6-.2.2-.5.4-.6.7-.2.2-.3.5-.4.7-.1.2-.2.4-.2.6-.1.3-.2.6-.2.6s.5-.4.4-.8z" class="st41"/><linearGradient id="XMLID_11_" x1="272.205" x2="296.128" y1="1222.147" y2="1222.147" gradientUnits="userSpaceOnUse" gradientTransform="matrix(-.094 .996 .996 .094 -898.281 131.093)"><stop offset="0" stop-color="#58595B"/><stop offset=".517" stop-color="#414042"/><stop offset="1" stop-color="#231F20"/></linearGradient><path id="XMLID_704_" d="M293.9 538.5c-.4.6-.8 1.2-1.3 1.5-.3.2-.5.4-.7.5-.2.1-.5.2-.7.3-.4.2-.8.3-1 .3-.2.1-.3.1-.3.1s.1-.1.3-.2c.2-.1.5-.3.7-.6.1-.1.3-.3.5-.4.2-.2.3-.4.5-.6.3-.4.5-.9.7-1.4.1-.6.2-1.2.2-1.8 0-.7-.2-1.3-.4-2.1-.4-1.4-1-3-1.7-4.6-.6-1.6-1.3-3.2-1.7-4.8-.2-.8-.4-1.6-.4-2.4-.1-.8 0-1.5.2-2.2.2-.7.6-1.3 1.1-1.7.5-.4 1-.7 1.5-.8.4-.2.8-.2 1-.2.2 0 .4-.1.4-.1s-.1.1-.3.2c-.2.1-.5.3-.8.5-.3.2-.7.5-.9.9-.3.4-.4.9-.5 1.4 0 .6.1 1.2.2 1.8.2.7.4 1.3.7 2.1.3.7.6 1.5.9 2.2.3.8.7 1.6 1 2.3.3.8.6 1.6.9 2.4.3.8.4 1.7.6 2.5.1.8.2 1.6.1 2.4-.1 1.1-.4 1.9-.8 2.5z" class="st42"/><linearGradient id="XMLID_12_" x1="278.531" x2="302.454" y1="1131.852" y2="1131.852" gradientUnits="userSpaceOnUse" gradientTransform="matrix(-.094 .996 .996 .094 -898.281 131.093)"><stop offset="0" stop-color="#58595B"/><stop offset=".517" stop-color="#414042"/><stop offset="1" stop-color="#231F20"/></linearGradient><path id="XMLID_703_" d="M200.2 527.5c-.6-1.6-1.3-3.2-1.7-4.8-.2-.8-.4-1.6-.4-2.4-.1-.8 0-1.5.2-2.2.2-.7.6-1.3 1.1-1.7.5-.4 1-.7 1.5-.8.4-.2.8-.2 1-.2.2 0 .4-.1.4-.1s-.1.1-.3.2c-.2.1-.5.3-.8.5-.3.2-.7.5-.9.9-.3.4-.4.9-.5 1.4 0 .6.1 1.2.2 1.8.2.7.4 1.3.7 2.1.3.7.6 1.5.9 2.2.3.8.7 1.6 1 2.3.3.8.6 1.6.9 2.4.3.8.4 1.7.6 2.5.1.8.2 1.6 0 2.4-.1.8-.3 1.5-.7 2.2-.4.6-.8 1.2-1.3 1.5-.3.2-.5.4-.7.5-.2.1-.5.2-.7.3-.4.2-.8.3-1 .3-.2.1-.3.1-.3.1s.1-.1.3-.2c.2-.1.5-.3.7-.6.1-.1.3-.3.5-.4.2-.2.3-.4.5-.6.3-.4.5-.9.7-1.4.1-.6.2-1.2.2-1.8 0-.6-.2-1.3-.4-2.1-.4-1.2-1-2.8-1.7-4.3z" class="st43"/><linearGradient id="XMLID_13_" x1="256.23" x2="280.153" y1="1164.898" y2="1164.898" gradientUnits="userSpaceOnUse" gradientTransform="matrix(-.094 .996 .996 .094 -898.281 131.093)"><stop offset="0" stop-color="#58595B"/><stop offset=".517" stop-color="#414042"/><stop offset="1" stop-color="#231F20"/></linearGradient><path id="XMLID_702_" d="M238.5 517.2c-.4.6-.8 1.2-1.3 1.5-.3.2-.5.4-.7.5-.2.1-.5.2-.7.3-.4.2-.8.3-1 .3-.2.1-.3.1-.3.1s.1-.1.3-.2c.2-.1.5-.3.7-.6.1-.1.3-.3.5-.4.2-.2.3-.4.5-.6.3-.4.5-.9.7-1.4.1-.6.2-1.2.2-1.8 0-.7-.2-1.3-.4-2.1-.4-1.4-1-3-1.7-4.5-.6-1.6-1.3-3.2-1.7-4.8-.2-.8-.4-1.6-.4-2.3-.1-.8 0-1.5.2-2.2.2-.7.6-1.3 1.1-1.7.5-.4 1-.7 1.5-.8.4-.2.8-.2 1-.2.2 0 .4-.1.4-.1s-.1.1-.3.2c-.2.1-.5.3-.8.5-.3.2-.7.5-.9.9-.3.4-.4.9-.5 1.4 0 .6.1 1.2.2 1.8.2.7.4 1.3.7 2.1.3.7.6 1.5.9 2.2.3.8.7 1.6 1 2.3.3.8.6 1.6.9 2.4.3.8.4 1.7.6 2.5.1.8.2 1.6.1 2.4-.2.9-.5 1.7-.8 2.3z" class="st44"/><linearGradient id="XMLID_14_" x1="259.699" x2="283.622" y1="1194.993" y2="1194.993" gradientUnits="userSpaceOnUse" gradientTransform="matrix(-.094 .996 .996 .094 -898.281 131.093)"><stop offset="0" stop-color="#58595B"/><stop offset=".517" stop-color="#414042"/><stop offset="1" stop-color="#231F20"/></linearGradient><path id="XMLID_701_" d="M264.8 514.7c-.6-1.6-1.3-3.2-1.7-4.8-.2-.8-.4-1.6-.4-2.4-.1-.8 0-1.5.2-2.2.2-.7.6-1.3 1.1-1.7.5-.4 1-.7 1.5-.8.4-.2.8-.2 1-.2.2 0 .4-.1.4-.1s-.1.1-.3.2c-.2.1-.5.3-.8.5-.3.2-.7.5-.9.9-.3.4-.4.9-.5 1.4 0 .6.1 1.2.2 1.8.2.7.4 1.3.7 2.1.3.7.6 1.5.9 2.2.3.8.7 1.6 1 2.3.3.8.6 1.6.9 2.4.3.8.4 1.7.6 2.5.1.8.2 1.6.1 2.4-.1.8-.4 1.5-.7 2.2-.4.6-.8 1.2-1.3 1.5-.3.2-.5.4-.7.5-.2.1-.5.2-.7.3-.4.2-.8.3-1 .3-.2.1-.3.1-.3.1s.1-.1.3-.2c.2-.1.5-.3.7-.6.1-.1.3-.3.5-.4.2-.2.3-.4.5-.6.3-.4.5-.9.7-1.4.1-.6.2-1.2.2-1.8 0-.6-.2-1.3-.4-2.1-.5-1.2-1.1-2.8-1.8-4.3z" class="st45"/><path id="XMLID_696_" d="M242.7 568.4l2.2 1.2 2.2 1.2c.4.2.9.1 1.1-.3 1-1.8 3.7-6.8 4.9-9.1 1.5-2.7 3.7-11.7 3.7-11.7l.3.2c.2.1.4 0 .5-.2l.2-.5c.1-.2 0-.4-.2-.5l-1.1-.6-1.1-.6c-.2-.1-.4 0-.5.2l-.2.5c-.1.2 0 .4.2.5l.3.2s-6.4 6.7-7.8 9.4c-1.2 2.2-3.9 7.2-4.9 9.1-.3.3-.1.8.2 1zm12.9-19.2s-.1.1-.3.4c-.2.2-.4.6-.7 1-.3.4-.7.9-1.1 1.4-.4.5-.8 1-1.3 1.5-.4.5-.9 1-1.3 1.5-.2.2-.4.5-.6.7-.2.2-.4.4-.5.6-.2.2-.3.4-.4.5-.1.2-.2.3-.3.4-.2.2-.3.4-.3.4s.1-.1.2-.4c.2-.2.3-.6.7-1 .3-.4.6-.9 1-1.4.4-.5.8-1 1.3-1.5.4-.5.9-1 1.3-1.5s.8-.9 1.2-1.3c.3-.4.6-.7.8-.9.2-.3.3-.4.3-.4zm-11.1 17.6l4.2-7.7 3.2 1.7-4.2 7.7-3.2-1.7z" class="st32"/><path id="XMLID_692_" d="M190.2 571.8c.2 1.1 1.1 1.6 1.2 2.1.1.5-.5 1.4-.1 3.8.4 2.1 1.1 5.8 1.3 6.8 0 .2.2.4.4.5.4.2 1.1.3 2.4.1 1.3-.3 1.9-.7 2.1-1 .1-.1.2-.4.2-.6-.2-1-.9-4.7-1.3-6.8-.5-2.4-1.4-3-1.5-3.5-.1-.5.5-1.3.3-2.4-.2-1-1-3.6-2.7-3.9l-.1-.3.5-.1-.3-1.6-2.3.5.3 1.6.5-.1.1.3c-1.4.8-1.2 3.6-1 4.6zm1.4 5.2l4.3-.9 1 4.8-4.3.9-1-4.8zm-1.2-7.5c0-.2.1-.3.1-.5s.1-.3.1-.5.1-.3.2-.4c.1-.1.2-.3.3-.4 0-.1.1-.1.1-.1v.2s0 0 0 .1c-.1.1-.1.2-.2.3 0 .1-.1.3-.1.4 0 .1-.1.3-.1.5s-.1.3-.1.5c0 .3-.1.7-.1 1 0 .3 0 .6 0 .9 0 .3 0 .5 0 .6 0 .1 0 .2 0 .2s-.1-.3-.2-.8c0-.1-.1-.3-.1-.4 0-.1 0-.3 0-.5.1-.4.1-.8.1-1.1z" class="st32"/><g id="XMLID_666_"><path id="XMLID_683_" d="M235.2 569.3s5.4-.6 2.4 2.4c-3.6 3.5-10.1 2.9-11.5 3.4-1.6.5-6.7 7.2-13.9 8.2-5.5.8-3.4-3.4 5.7-7.8 0 0-5.7 1.5-8.5.6-2-.6-4.3-2.7-1.1-3.4 2.9-.7 26.9-3.4 26.9-3.4z" class="st46"/><g id="XMLID_679_"><path id="XMLID_60_" d="M219.8 566.9c.1 1-3.1 5.4-8.1 4.7-3.9-.6-4.5 1.7-4.4 1.9.2.2 2.2 1.7 4.5 1.8 2.2.1 6.7-.2 9.8-5.1l-1.8-3.3z" class="st47"/></g><g id="XMLID_677_"><path id="XMLID_678_" d="M224.2 565.5c.1 1 3.5 5.1 8.7 3.2 3.3-1.2 4.8 1 4.6 1.2-.1.2-2 1.6-4.2 2.5-3.3 1.4-7.2 2.1-11.1-2.3l2-4.6z" class="st48"/></g><path id="XMLID_676_" d="M213 575.3c2.7-.9 6.1-2.8 6.3-6.3 0-.4.1-.8.1-1.1.2-.4.3-.7.3-.9l1.9 3.3c-2.6 4.1-6.2 4.9-8.6 5z" class="st46"/><g id="XMLID_672_"><path id="XMLID_98_" d="M209.9 581.5c-.3-.6.5-3.4 2.9-4.4 2.4-1 7.3-3.6 6.9-8-.4-4.5 1.8-6.2 1.8-6.2l1.4-.2c.8.6 3.5 6.1.1 12.6-2.9 5.6-12.7 6.8-13.1 6.2z" class="st47"/></g><g id="XMLID_670_"><path id="XMLID_671_" d="M221.6 562.9l-.6-1.6 2-.5-.1 1.9z" class="st49"/></g><g id="XMLID_667_"><g id="XMLID_668_"><path id="XMLID_669_" d="M222.3 562.8c2.5 10.6-6.8 16.8-12.4 18 0 .3 0 .5 0 .7.3.6 10.2-.5 13.1-6.2 3.4-6.4.7-12-.1-12.6l-.6.1z" class="st48"/></g></g></g><path d="M172.4 651.5c-13.5 2.3-26.3-6.8-28.6-20.3l-1.3-7.7c-2.3-13.5 6.8-26.3 20.3-28.6L1222.4 415c13.5-2.3 26.3 6.8 28.6 20.3l1.3 7.7c2.3 13.5-6.8 26.3-20.3 28.6L172.4 651.5z" class="st50"/><path d="M755.4 664.1l-10.5-134.6c0-22.1-17.9-45.2-39.9-45.2h-12.6c-22.1 0-39.9 23.2-39.9 45.2l-10.6 134.6h113.5z" class="st51"/><path d="M717.6 535.3c0 11.1-9 20-20 20-11.1 0-20-9-20-20 0-11.1 9-20 20-20 11.1-.1 20 8.9 20 20z" class="st50"/><path d="M635.8 675.6c-4.3 0-7.8-3.5-7.8-7.8v-2.5c0-4.3 3.5-7.8 7.8-7.8h125.1c4.3 0 7.8 3.5 7.8 7.8v2.5c0 4.3-3.5 7.8-7.8 7.8H635.8z" class="st52"/><path d="M837.2 489.2c-4.8 4.7-13.3 3.6-19.2 2.4-7.5-1.5-9.6-7.4-5.8-14.1 1.3-2.2 3.8-5.6 6.2-7.3.4-.3.8-.5 1.2-.7 5.1-2.3 8.6 1.9 12.5 4.3.3.2.5.3.8.5 2.1 1.4 4.2 3 5.6 4.8 2.1 3 2.5 6.3-1.3 10.1z" class="st53"/><path d="M838.5 479.2c.2.6.2 1.2.1 1.9-.4 3.1-1.9 2.7-4.7 3.3-5.3 1.1-11.1 4.1-15.8-.3-3.7-3.5-3-10.3.3-14 .4-.3.8-.5 1.2-.7 5.1-2.3 8.6 1.9 12.5 4.3.3.2.5.3.8.5 2.1 1.6 4.2 3.2 5.6 5z" class="st54"/><path d="M822.5 472.6c-.1 0-.1 0 0 0 0 0 .1.1.2.1.1.3.1.3.1.2 0-.1 0-.1 0-.2-.2 0-.2-.1-.3-.1-.1-.4-.6-.7-1-.5-.8.3-1.1 1.2-1.3 2-.2.8.5 1.4 1.2 1.2.1 0 .1 0 0 0 .1 0 .2 0 .2 0 .2 0 .3 0 .5 0 .4 0 .8 0 1.3-.2 1-.5 1.1-1.9.7-2.8-.3-.7-1-1.1-1.8-1-.6.1-1 .6-1.3 1.1-.5.8-.9 1.9-.8 2.8.2 1 1.4 1.3 2.1.8.7-.4 1.2-1.2 1.4-1.9.1-.5-.1-1.1-.6-1.4-.5-.3-1-.1-1.5.2.2-.1.1-.1-.2.1-.1.1-.2.2-.3.3-.1.1-.1.2-.2.3-.2.3.1-.1 0 0 0 .1-.1.1-.1.2-.1.1-.3.2.1-.1-.2.1.3-.1.2-.1.7-.2 1.2.2 1.4.8-.1-.2 0 .4 0 .2 0-.3-.1.3 0 0 0-.1.1-.2.1-.4 0-.1.1-.3.1-.4-.2.4 0-.1.1-.2s.1-.2.2-.3c-.3.5.3-.2-.2.2.1-.1.3-.1-.2.1-.1 0-.3 0-.5 0-.1 0-.3-.1-.4-.2.2.2-.2-.3 0 0 0 .1 0 .1 0-.1 0 .1.1.2.1.2 0 .1 0 .1 0 0 0 .1 0 .1 0 .2.1-.3.1-.4.1-.3 0-.1.1-.2.2-.2-.1.1-.1 0 .1 0-.1 0-.1 0-.2.1-.1 0-.4 0-.1 0-.1 0-.2 0-.3 0-.3 0-.6.1-.9.1.4.4.8.8 1.2 1.2.1-.3.1-.7.2-1 0 0 0-.1 0-.1 0 .1-.1.1 0 .1 0 0-.3.3-.1.2.1-.1.2-.1.3-.2.1 0 .1-.1.1-.2 0 0 0-.1.1-.1 0 .1-.3.2-.1.2.5-.3.5-.9.1-.9zM825.9 475s0 .1 0 0c0 0 0-.1 0-.2 0 .1 0 .3.1.4-.1 0-.1 0-.1-.2 0 .1 0 .1 0 .1s0-.1 0-.1 0 .1 0 0c0 .2 0 .4 0 .5 0 .5.6.8 1 .6.1-.1.3-.1.4-.3.1-.1.2-.3.3-.5.1-.2 0-.5-.1-.7-.1-.2-.2-.4-.4-.5-.2-.1-.4-.1-.6-.1-.2.1-.4.2-.5.4-.2.2-.2.4-.1.6z" class="st55"/><path d="M895.3 462.6c.1.8.2 1.5.3 2.2.3 7.1-5.1 10.4-11.7 12.1-3.6.9-8.4 2.5-12 1-2.2-.9-3.5-3.9-4.1-7-.4-2.3-.5-4.7-.3-6.4.2-1.7.7-3.9 1.4-5.9.7-1.9 1.5-3.6 2.6-4.9 5.1-5.8 11.2-3.9 16.9 0 1.9 1.3 3.3 2.2 4.3 3.3 1.3 1.4 2.1 2.9 2.6 5.6z" class="st53"/><path d="M892.8 457.1c-.1 3.8-2.2 8.2-5 10.7-3.9 3.6-8.9 5.4-14.3 5.1-2.4-.1-4.3-.8-5.7-2-.4-2.3-.5-4.7-.3-6.4.2-1.7.7-3.9 1.4-5.9.7-1.9 1.5-3.6 2.6-4.9 5.1-5.8 11.2-3.9 16.9 0 1.9 1.4 3.3 2.3 4.4 3.4z" class="st54"/><path d="M875.4 454.8c-1-.6-2.1.3-2.4 1.2-.3.8.2 1.9.9 2.2.9.5 1.9.3 2.6-.3.9-.7 1-2.1.9-3.1-.1-.7-.5-1.4-1.3-1.3-1.2.1-2.1.4-2.8 1.4-.5.7-1 2.1-.4 2.9.4.5 1.1.8 1.7.4.4-.3.7-.7.8-1.2 0-.1.1-.2.1-.3 0-.1 0-.1.1-.2-.1.1-.1.2 0 0 0-.1.2-.3 0-.1.1-.1.1-.1 0 0 .1 0 .1-.1.2-.1.3-.2-.2.1.2-.1.2-.1.4-.1.7-.1-.5-.4-1.1-.8-1.6-1.3.1.4.1.8 0 1.1 0-.3-.1.1-.1.2.1-.3 0 0-.1.1.2-.3-.2.1.1-.1-.3.2.2-.1 0 0s.3 0 0 0c-.1 0 .3.1 0 0 .4.1.1 0 0 0-.3-.1.1.1 0 0s.1.3 0 0c.1.1.1.3.1.2 0-.1 0 0 0 .1.1-.3 0 .1.2-.3s.4-.6.4-1c-.1-.1-.2-.2-.3-.3zM872 460.6s0 .1 0 0c0 0-.1.1-.2.1.1 0 .2 0 .2-.1-.2.1-.5.2-.7.5 0 .1-.1.2-.1.2.1-.1.1-.1 0-.1-.1.1-.1.3-.1.4 0 .6.5 1 1.1 1.1.4.1.8-.1 1-.4.2-.4.3-.7.4-1.2 0-.3-.2-.7-.5-.9-.5-.3-1.1 0-1.3.5-.2.5.3 1 .8 1.1-.1 0-.3-.1-.4-.1-.1-.1-.2-.2-.3-.3 0-.2-.1-.4-.1-.7.2 0 .2-.1.2-.1-.1.1-.2.2-.2.3 0 .1 0 .1-.1.2 0 .1 0 .2-.1.2 0 .1 0 .1 0-.1 0 0 0 .1-.1.1.3-.1.7-.3 1-.4-.1 0-.1 0-.2 0s-.2-.1 0 0c0 0 .1.1.1.1-.1-.1-.1-.1-.2-.2-.2-.1-.3-.1-.4-.1.1 0 .3.1.4.1.1.2.2.3.4.5-.1-.2 0 .2 0 0s-.1-.5-.4-.6c.1.2.2.3.3.5 0-.1 0-.2 0-.2 0 .1 0 0 0 0 .1-.3-.3-.5-.5-.4z" class="st55"/><path d="M836.7 497.6c-3.3-1.2-3.3-3.2-2-4.7 1.8-2 6-3.3 7.9-1.2.3.3.5.6.7.9 1.8 3.4-3.5 6.1-6.6 5z" class="st53"/><path d="M843.3 492.6c.2 2.3-3.7 2.8-5.5 2.6-1.4-.2-3-.2-3.1-1.9 0-.1 0-.3 0-.4 1.8-2 6-3.3 7.9-1.2.3.3.5.6.7.9z" class="st54"/><path d="M839.1 492.3c.1.2.3.4.6.5.1 0 .2 0 .4 0 .1 0 .4 0 .5-.1.1-.1.2-.1.2-.2.2-.2.3-.5.2-.8-.1-.3-.3-.5-.6-.6-.2-.1-.4 0-.6 0 0 0-.1 0-.1 0-.2 0-.3.1-.4.2.1 0 .1-.1.2-.1 0 0 0 0-.1 0-.4.3-.5.8-.3 1.1z" class="st55"/><path d="M869.5 478.7c-6.9 2.4-13.6 4.8-21.1 3.8-3.3-.5-6.8.2-10.1-.4-4.5-.9-9.2-2.2-10.6-7.1-1.1-3.9-.8-7.7-2.5-11.5-.7-1.7-1.6-3.3-2.7-4.7-.6-.8-1.7-1.6-1.9-2.6 1.9.8 3.9 1.9 5.9 2.7 1.9.8 4.2 4.5 6.3 4.3-2.2-2.1-3.3-6.5-3.8-9.4-.8-4.3.9-7.2 3.5-10.5 2.5-3.2 4.4-6.2 4.4-10.3 0-2.1-1.8-7.4.4-8.8 1.9 2.7 1.4 9.2 4.6 10.7-1.7-5.5 2.5-12.2 4.7-17 1.5-3.4.2-5.9.5-9.3 1.4.7 2.4 3.4 3.9 4.6 2.7 2.1 5.7 4.1 8 6.6 2.8 3.1 5 7 5.7 11.1.3 1.6-.1 6.7 1.4 7.6.8-1.2-.1-4.8-.1-6.3.1-1.9 1.2-5.4.1-7 1.1 1.2 1.3 3.3 1.9 4.8.6 1.8 1.6 3.6 2.5 5.3 1.2 2.4 1.1 4.9.5 7.5-.3 1.6-1.8 4.1-1.4 5.7 2.4-.3 4.4-3 5.5-4.9 1.3-2.3.8-5.6 2.2-7.6 1.8 2.4 2.4 6.3 3.2 9.2 1.7 6.1 7.4 9.7 6.1 16.5-1.7 7.7-9.9 14.5-17.1 17z" class="st56"/><path d="M847.3 478.9c-4.5 1.8-11.5-1.8-14.3-4.9-1.6-1.8-2.8-3.2-3.5-5.5-.5-1.6-.1-3.1-1.5-4.1 2.6 2.8 8.1 5.1 11.8 5.9.1.1.1.1 0 0-2.8-4.5-8-10.6-7-16.4 1.1-6.3 7.3-9.8 9.3-15.5 2.3.7 2.6 3.4 4 5.1-.3-8.6 2.4-16.8 5.2-24.8 2.4 3.6 4.7 7.8 6.9 11.7 1.5 2.7 3.3 6.2 3.9 9.3.4 2-.5 3.9.3 5.8 2.6-.4 4-4.5 5.2-6.6.3 2.4-1.1 5-1.2 7.5-.1 2.3 1 4.8-.1 7 4-.8 6.3-2.6 8.6-5.9.4 3 3.7 5.6 4.5 9 1.3 5.5 2.1 8-2.5 12.1-4.2 3.7-9.5 5.7-14.8 7.4-3.5 1.1-11.6 4.4-15.2 3.1l.4-.2z" class="st57"/><path d="M869.4 459.3c-1 1.6-.3 5.3-1.2 7.3-1 2.3-2.9 4.5-4.7 6.4-3 3.1-8.4 4.9-12.5 2.5-2.8-1.6-3.8-5.8-5.2-8.5-2.1-4.4-1.9-9.5.9-13.8-.1 3.2 1.6 4.8 3.8 7-1.9-2.4.9-7.3 1.6-10 .4-1.7 1.2-3.6 1.4-5.4.1-1.6-.7-3.3.3-4.6.5 7.9 11 13.1 8.1 21.2.8-3.5 1.4-7 1.4-10.5 2.4 2.3 4.9 8.4 3 11.7 1.1-.8 2-2.2 3.1-3.3.1-.2 0-.2 0 0z" class="st58"/><path d="M878.9 488.3c2 7-11.5 11.1-16 12.3-3.6.9-8.4 2.5-12 1-3.9-1.6-4.8-9.6-4.3-13.4.2-1.7.7-3.9 1.4-5.9.7-1.9 1.5-3.6 2.6-4.9 5.1-5.8 11.2-3.9 16.9 0 1.9 1.3 4.9 3.2 7.3 5.3 1.9 1.7 3.5 3.6 4.1 5.6z" class="st53"/><path d="M874.8 482.7c.5 5-2 7.6-7.4 9.7-4 1.5-9.1 3.7-13.3 1.7-4.2-2-6.3-7.1-6.1-11.9.7-1.9 1.5-3.6 2.6-4.9 5.1-5.8 11.2-3.9 16.9 0 1.9 1.4 4.8 3.3 7.3 5.4z" class="st54"/><path d="M855.6 477.7c-.5-.3-1.3.1-1.7.5-.7.6-.8 1.4-.9 2.2 0 .4.3.9.8 1 1.1.3 2.2.3 3.1-.5.9-.7.9-2.2 1-3.2 0-.6-.6-1.3-1.2-1.2-1.1.1-2.2.4-2.9 1.3-.6.8-1.2 2.3-.6 3.2.4.5 1.3.8 1.8.2.3-.4.4-.7.5-1.2 0-.2.1-.4.2-.5-.1.2.1-.1.2-.1-.1.1.2-.1.2-.1.2-.1.6-.2 1-.3-.5-.4-1-.8-1.5-1.2 0 .4 0 .8 0 1.2 0-.1-.1.3-.1.2 0 .1 0 .2-.1.2 0-.1 0-.1 0 0 .1-.2-.1.1.1-.1-.1.1-.1.1 0 0-.1 0-.1 0-.2.1.2 0-.2 0-.2 0-.2 0-.4 0-.5 0 .3.3.5.7.8 1 0-.6.1-.9.3-1.4-.1-.4.4-1-.1-1.3zM859.9 480.4c-.1.2-.2.3-.3.5-.1.2 0 .5.1.7.1.2.4.3.7.3.3-.1.4-.3.4-.6 0 0 0 0 0-.1 0 .2 0 .2 0 0 0-.1 0-.1 0-.2s0 0 0 .1c0 0 0 0 0-.1 0 .2 0 .1 0 .1s.1-.1 0 0c0-.1.1-.1.1-.2.1-.3.1-.6-.2-.8-.2-.1-.6 0-.8.3z" class="st55"/><path d="M311.3 226.6c-2 2.4-1.4 2.1-6.9 1.2-4.9-.8-2.7-1.6-6.6 1.4-3.5 2.6-9.3 5.8-12 7.9 1.4 2.2 11.6 8.8 14.3 11.7-.8.5-1.4.9-2.2 1.4-1.3.9-1 .9-2.7.1-3.9-1.6-16.3-6.7-18.7-7.2-2.9 1.7-10.3 6.9-13.1 7.1-1.3.1-3.5 0-3.3-1.7.5-4.2 7.4-7.3 11.8-10 1.8-1.1 1.3-.8 1.4-2.9.2-2.4 1.2-18.8 1.8-19.7.2-.3 2.7-1.8 3.2-2 .4 1.4.8 3 1.1 4.5l2.1 9.1c.2 1.4.7 3.2 1.1 4.4 2-1.3 4-2.5 6.1-3.8 10.3-6.7 8.7-2.9 10.5-9.2 1-3.5.7-5.4 4-5.4.1 6.5 2.5 10.3 8.1 13.1z" class="st0"/><linearGradient id="XMLID_15_" x1="827.354" x2="639.831" y1="351.39" y2="365.906" gradientUnits="userSpaceOnUse"><stop offset="0" stop-color="#474747"/><stop offset=".064" stop-color="#4B4B4B"/><stop offset=".129" stop-color="#575757"/><stop offset=".195" stop-color="#6C6C6C"/><stop offset=".261" stop-color="#888"/><stop offset=".31" stop-color="#A3A3A3"/><stop offset=".397" stop-color="#AFAFAF"/><stop offset=".554" stop-color="#CFCFCF"/><stop offset=".659" stop-color="#E8E8E8"/></linearGradient><path id="XMLID_137_" d="M828 362.7c-5.7 1.6-11.7-1.6-13.6-7.2-1.6 1.6-3.7 2.8-6 3.5-3.8 1.1-7.7.5-10.9-1.3-1.7 3.7-4.8 6.6-9 7.8-7.5 2.1-15.3-2.2-17.4-9.7-.2-.6-.3-1.3-.4-1.9-5.6 3.7-13 2.8-17.7-1.8-5.9 3.5-13.5 2-17.6-3.6-1.1-1.5-1.8-3.1-2.2-4.7-.4.1-.8.1-1.2.2.7 3.9-.2 8.2-3 11.5-5 6-13.9 6.9-19.9 1.9-.5-.4-1-.9-1.4-1.3-2.5 6.2-9.1 9.8-15.6 8.6-2.8 6.2-10 9.3-16.5 7-7-2.4-10.7-10.1-8.2-17 2.1-6 8-9.6 14.1-8.9.4-1 .9-2 1.5-2.9-.5-2.3-.5-4.7.4-7 2-5.8 7.9-9.3 13.8-8.3-.4-3.7.6-7.5 3.1-10.6 5-6 13.9-6.9 19.9-1.9 1 .8 1.9 1.8 2.6 2.8.4-2 1.3-4 2.7-5.7 4.4-5.4 12.4-6.2 17.8-1.7 1.2 1 2.2 2.3 3 3.6 3.9-2 8.7-1.7 12.3 1.3 2.5 2.1 3.9 5.1 4 8.1 5-3.4 11.6-2.8 15.8 1.2 1.7-3.3 4.8-5.9 8.6-7 7.5-2.1 15.3 2.2 17.4 9.7.4 1.2.5 2.5.5 3.7 1.5-1.5 3.3-2.6 5.4-3.2 6.7-1.9 13.7 2 15.6 8.7.4 1.6.6 3.1.4 4.7 4.3.5 8.1 3.6 9.4 8 0 0 13.3-5.6 16 23.1 0 0 9.8 25.1-6.4 22.5 0 0-17.7 19.1-18.2-2.3 0 0-.8-13.6 9.5-13.5-.1-.4-13.7 1.9-8.6-16.4z" class="st59"/><linearGradient id="XMLID_16_" x1="1042.555" x2="1206.68" y1="140.047" y2="140.047" gradientUnits="userSpaceOnUse"><stop offset="0" stop-color="#474747"/><stop offset=".064" stop-color="#4B4B4B"/><stop offset=".129" stop-color="#575757"/><stop offset=".195" stop-color="#6C6C6C"/><stop offset=".261" stop-color="#888"/><stop offset=".31" stop-color="#A3A3A3"/><stop offset=".397" stop-color="#AFAFAF"/><stop offset=".554" stop-color="#CFCFCF"/><stop offset=".659" stop-color="#E8E8E8"/></linearGradient><path id="XMLID_3_" d="M1063.3 175c5.9-1.2 9.7-6.7 8.8-12.6 2.2.7 4.5.8 6.9.3 3.9-.8 7.1-3.1 9.1-6.2 3.1 2.5 7.3 3.6 11.6 2.8 7.6-1.5 12.6-9 11.1-16.6-.1-.6-.3-1.3-.5-1.9 6.7.7 12.9-3.4 14.9-9.7 6.8.4 12.9-4.4 14-11.3.3-1.8.2-3.6-.2-5.2.4-.1.8-.3 1.2-.4 1.2 3.8 4 7.1 7.9 8.9 7.2 3.1 15.5-.2 18.6-7.4.3-.6.5-1.2.6-1.8 5.1 4.4 12.6 4.5 17.8.5 5.4 4.2 13.1 3.7 17.9-1.3 5.1-5.3 4.9-13.8-.4-18.9-4.6-4.4-11.5-4.9-16.6-1.5-.8-.7-1.7-1.4-2.7-1.9-.6-2.2-1.7-4.4-3.5-6.1-4.5-4.3-11.3-4.6-16.1-1.1-1.3-3.5-4-6.4-7.6-8-7.2-3.1-15.5.2-18.6 7.4-.5 1.2-.8 2.4-1 3.6-1.3-1.6-2.9-3-5-3.8-6.4-2.8-13.8.2-16.6 6.6-.6 1.5-1 3-1 4.6-4.3 0-8.5 2.5-10.3 6.7-1.3 3-1.2 6.3.1 9.1-6-.8-11.6 2.8-13.5 8.3-3-2.1-6.9-3-10.8-2.3-7.6 1.5-12.6 9-11.1 16.6.3 1.3.7 2.5 1.2 3.6-2-.6-4.1-.8-6.3-.3-6.8 1.4-11.3 8-9.9 14.9.3 1.6.9 3 1.7 4.3-3.6 2.4-5.6 6.9-4.7 11.4 0 0-14.4 1.1-3.7 27.8 0 0-2.3 15.7 16.5 10.5l14.6-3.7s-5.5-12.5-14.6-7.7c-.1-.1 13.2-4.3.2-18.2z" class="st60"/></g></svg>