<svg width="16" height="16" viewBox="0 0 16 16" fill="none" xmlns="http://www.w3.org/2000/svg">
<path fill-rule="evenodd" clip-rule="evenodd" d="M8 16C12.4183 16 16 12.4183 16 8C16 3.58172 12.4183 0 8 0C3.58172 0 0 3.58172 0 8C0 12.4183 3.58172 16 8 16Z" fill="url(#paint0_linear)"/>
<path d="M0 4.44444C0 5.58981 0.928474 6.51852 2.07407 6.51852C2.93404 6.51852 3.67147 5.99514 3.98578 5.2499C3.85209 5.30204 3.70773 5.33333 3.55556 5.33333C3.12367 5.33333 2.7456 5.10222 2.53843 4.7571C2.43176 4.57908 2.37037 4.37073 2.37037 4.14815C2.37037 4.06068 2.37985 3.97535 2.39787 3.8931L2.70957 2.4704L2.93547 1.44C2.94329 1.40373 2.94969 1.36676 2.95419 1.3293C2.96012 1.28213 2.96296 1.23401 2.96296 1.18519C2.96296 0.962607 2.90157 0.754252 2.7949 0.576237C2.58773 0.231111 2.20966 0 1.77778 0C1.19799 0 0.715378 0.416474 0.612741 0.9664L0.0353185 4.06163C0.0120889 4.18584 0 4.3136 0 4.44444Z" transform="translate(6.3999 6.3999)" fill="white"/>
<path fill-rule="evenodd" clip-rule="evenodd" d="M1.18519 0C1.83964 0 2.37037 0.530726 2.37037 1.18519C2.37037 1.83964 1.83964 2.37037 1.18519 2.37037C0.530726 2.37037 0 1.83964 0 1.18519C0 0.530726 0.530489 0 1.18519 0Z" transform="translate(7.58496 3.2002)" fill="white"/>
<defs>
<linearGradient id="paint0_linear" x2="1" gradientUnits="userSpaceOnUse" gradientTransform="scale(18.7348) rotate(45)">
<stop stop-color="#615cB0"/>
<stop offset="0.510458" stop-color="#514cA0"/>
<stop offset="0.568062" stop-color="#413c90"/>
<stop offset="1" stop-color="#312c80"/>
</linearGradient>
</defs>
</svg>