<svg width="41" height="40" viewBox="0 0 41 40" fill="none" xmlns="http://www.w3.org/2000/svg">
<path d="M5.66474 34.9243C2.15522 31.2159 0 26.1915 0 20.6593C0 9.2495 9.16755 0 20.4763 0C31.785 0 40.9526 9.2495 40.9526 20.6593C40.9526 29.103 35.932 36.3635 28.7385 39.5679C28.7488 39.4215 28.754 39.2725 28.754 39.1209C28.754 34.7253 27.8826 25.4945 22.219 19.3407C21.9461 19.0442 22.219 17.1429 25.2686 14.9451C28.3183 12.7473 33.1106 14.0659 33.1106 13.6264C33.1106 13.1868 31.1816 12.7096 29.1896 12.3077C27.1976 11.9057 24.3973 11.8681 23.0903 11.4286C21.7833 10.989 19.605 9.23077 17.4266 9.67033C15.2483 10.1099 13.7929 11.2885 12.6343 13.6264C11.763 15.3846 12.6343 16.7033 10.8916 18.4615C7.29435 22.091 5.71171 29.6572 5.66474 34.9243Z" fill="#2E528F"/>
</svg>
